<ttFont>
          <CharString index="0">
            -2 -14 9 -9 14 0 rrcurveto
            55 hlineto
            14 0 10 8 2 15 rrcurveto
            9 57 rlineto
            2 14 -6 11 -15 0 rrcurveto
            -55 hlineto
            -16 0 -10 -10 -2 -15 rrcurveto
            return
          </CharString>
          <CharString index="1">
            54 0 31 134 11 67 -75 0 -11 -67 rlineto
            return
          </CharString>
          <CharString index="2">
            -13 -84 46 -41 75 0 rrcurveto
            101 hlineto
            104 0 29 32 15 93 rrcurveto
            21 133 rlineto
            14 91 -35 34 -86 0 rrcurveto
            -101 hlineto
            -111 0 -25 -42 -13 -83 rrcurveto
            return
          </CharString>
          <CharString index="3">
            21 133 rlineto
            7 45 9 15 58 0 rrcurveto
            101 hlineto
            56 0 4 -11 -8 -49 rrcurveto
            -21 -133 rlineto
            -8 -48 -10 -12 -55 0 rrcurveto
            -101 hlineto
            -47 0 -14 11 8 49 rrcurveto
            return
          </CharString>
          <CharString index="4">
            -13 -84 45 -41 75 0 rrcurveto
            101 hlineto
            104 0 30 32 15 93 rrcurveto
            21 133 rlineto
            return
          </CharString>
          <CharString index="5">
            14 91 -35 34 -86 0 rrcurveto
            -101 hlineto
            -111 0 -25 -42 -13 -83 rrcurveto
            return
          </CharString>
          <CharString index="6">
            21 133 rlineto
            7 45 8 15 58 0 rrcurveto
            101 hlineto
            56 0 5 -11 -8 -49 rrcurveto
            -21 -133 rlineto
            -8 -48 -11 -12 -55 0 rrcurveto
            -101 hlineto
            -47 0 -13 11 8 49 rrcurveto
            return
          </CharString>
          <CharString index="7">
            -53 -308 127 -228 0 0 rrcurveto
            81 hlineto
            0 0 -142 218 61 318 58 303 193 231 0 0 rrcurveto
            -88 hlineto
            0 0 -185 -230 -52 -304 rrcurveto
            return
          </CharString>
          <CharString index="8">
            88 hlineto
            0 0 185 230 52 304 53 308 -127 228 0 0 rrcurveto
            -81 hlineto
            0 0 142 -218 -61 -318 -58 -303 -193 -231 0 0 rrcurveto
            return
          </CharString>
          <CharString index="9">
            314 0 12 74 -314 0 rlineto
            return
          </CharString>
          <CharString index="10">
            -2 -14 9 -9 14 0 rrcurveto
            53 hlineto
            14 0 11 5 3 18 rrcurveto
            9 57 rlineto
            3 16 -6 9 -18 0 rrcurveto
            -53 hlineto
            -16 0 -10 -10 -2 -15 rrcurveto
            return
          </CharString>
          <CharString index="11">
            -19 -120 74 -42 91 0 rrcurveto
            164 hlineto
            108 0 66 43 19 119 rrcurveto
            65 408 rlineto
            13 79 -34 83 -121 0 rrcurveto
            -164 hlineto
            -109 0 -70 -47 -18 -115 rrcurveto
            return
          </CharString>
          <CharString index="12">
            65 408 rlineto
            7 46 26 42 79 0 rrcurveto
            164 hlineto
            74 0 14 -31 -9 -57 rrcurveto
            -65 -408 rlineto
            -9 -54 -34 -34 -64 0 rrcurveto
            -164 hlineto
            -48 0 -50 -3 14 91 rrcurveto
            return
          </CharString>
          <CharString index="13">
            495 0 12 74 -340 0 rlineto
            88 57 312 214 17 187 10 106 -44 104 -135 0 rrcurveto
            return
          </CharString>
          <CharString index="14">
            -111 0 -93 -7 -104 -13 rrcurveto
            -9 -55 rlineto
            return
          </CharString>
          <CharString index="15">
            303 hlineto
            93 0 28 -53 -12 -80 -26 -166 -334 -215 -139 -85 rrcurveto
            return
          </CharString>
          <CharString index="16">
            83 -31 104 3 114 0 122 0 65 59 17 109 rrcurveto
            10 59 rlineto
            12 76 -19 47 -37 21 40 11 35 44 13 81 rrcurveto
            11 69 rlineto
            15 95 -64 68 -96 2 -117 2 -113 1 -93 -31 rrcurveto
            -7 -46 311 0 rlineto
            52 0 50 -15 -12 -76 rrcurveto
            -11 -69 rlineto
            -10 -61 -41 -35 -69 -3 rrcurveto
            return
          </CharString>
          <CharString index="17">
            -244 -10 -10 -58 rlineto
            return
          </CharString>
          <CharString index="18">
            242 -7 rlineto
            54 -2 48 -4 -16 -100 rrcurveto
            -10 -59 rlineto
            -11 -67 -64 -26 -48 0 rrcurveto
            return
          </CharString>
          <CharString index="19">
            28 -37 362 0 -29 -185 77 0 29 185 rlineto
            return
          </CharString>
          <CharString index="20">
            93 19 9 59 -90 0 45 282 -37 0 -52 -75 -33 -207 rlineto
            return
          </CharString>
          <CharString index="21">
            -276 0 368 467 -93 0 rlineto
            return
          </CharString>
          <CharString index="22">
            -50 -315 84 -69 95 0 rrcurveto
            147 hlineto
            94 0 73 36 18 112 rrcurveto
            20 131 rlineto
            9 56 -11 95 -135 -2 -74 -1 -105 -10 -87 -10 15 84 50 173 86 0 rrcurveto
            return
          </CharString>
          <CharString index="23">
            289 0 9 55 rlineto
            return
          </CharString>
          <CharString index="24">
            263 hlineto
            63 0 23 -14 -10 -61 rrcurveto
            -19 -125 rlineto
            -11 -71 -59 -12 -33 0 rrcurveto
            -149 hlineto
            -100 0 14 169 18 114 rrcurveto
            return
          </CharString>
          <CharString index="25">
            391 0 -362 -658 88 0 373 684 -19 48 -459 0 rlineto
            return
          </CharString>
          <CharString index="26">
            -6 -37 -11 -117 168 0 rrcurveto
            145 hlineto
            77 0 88 12 23 142 rrcurveto
            15 98 rlineto
            8 43 -13 68 -54 18 74 15 22 81 2 22 rrcurveto
            11 65 rlineto
            17 110 -53 63 -99 0 rrcurveto
            -146 hlineto
            -113 0 -69 -38 -21 -135 rrcurveto
            -11 -65 rlineto
            -8 -48 15 -65 66 -22 -48 -5 -52 -33 -12 -74 rrcurveto
            return
          </CharString>
          <CharString index="27">
            17 105 rlineto
            10 62 48 19 46 0 rrcurveto
            159 hlineto
            44 0 38 -24 -9 -57 rrcurveto
            -17 -105 rlineto
            -9 -60 -53 -17 -39 0 rrcurveto
            -145 hlineto
            -73 0 -26 19 9 58 rrcurveto
            return
          </CharString>
          <CharString index="28">
            11 68 rlineto
            11 70 24 31 83 0 rrcurveto
            146 hlineto
            64 0 21 -21 -13 -80 rrcurveto
            -11 -68 rlineto
            -6 -36 -20 -48 -73 0 rrcurveto
            -159 hlineto
            -34 0 -55 17 11 67 rrcurveto
            return
          </CharString>
          <CharString index="29">
            19 125 rlineto
            11 71 59 12 33 0 rrcurveto
            149 hlineto
            100 0 -14 -169 -18 -114 rrcurveto
            -263 hlineto
            -63 0 -23 14 10 61 rrcurveto
            return
          </CharString>
          <CharString index="30">
            -17 -107 60 -81 104 0 rrcurveto
            98 hlineto
            return
          </CharString>
          <CharString index="31">
            126 0 116 17 50 10 rrcurveto
            8 47 rlineto
            return
          </CharString>
          <CharString index="32">
            -386 hlineto
            -86 0 -8 57 9 57 rrcurveto
            81 512 rlineto
            5 31 19 72 95 0 rrcurveto
            382 hlineto
            40 0 47 5 -16 -108 rrcurveto
            -53 -354 rlineto
            -13 -81 -36 -9 -48 0 rrcurveto
            59 405 rlineto
            -51 49 -105 13 -71 0 -74 0 -107 -48 -34 -221 rrcurveto
            return
          </CharString>
          <CharString index="33">
            -34 -227 75 -54 111 2 73 1 52 32 31 34 rrcurveto
            return
          </CharString>
          <CharString index="34">
            23 -60 54 0 rlineto
            144 0 18 117 7 47 rrcurveto
            53 354 rlineto
            17 113 -46 65 -111 0 rrcurveto
            -375 hlineto
            -138 0 -52 -86 -15 -92 rrcurveto
            return
          </CharString>
          <CharString index="35">
            23 185 70 32 52 0 42 0 47 0 60 -16 rrcurveto
            -51 -325 rlineto
            return
          </CharString>
          <CharString index="36">
            -65 -49 -42 -12 -55 1 -78 1 -21 38 18 145 rrcurveto
            return
          </CharString>
          <CharString index="37">
            81 0 108 204 297 0 39 -204 75 0 -141 732 -74 0 rlineto
            return
          </CharString>
          <CharString index="38">
            181 350 63 -350 rlineto
            return
          </CharString>
          <CharString index="39">
            283 hlineto
            154 0 59 87 14 114 14 115 -54 59 -29 5 57 16 50 43 12 100 10 84 -25 109 -146 0 rrcurveto
            -283 hlineto
            return
          </CharString>
          <CharString index="40">
            43 273 208 0 rlineto
            84 0 25 -67 -12 -74 -19 -119 -73 -13 -48 0 rrcurveto
            return
          </CharString>
          <CharString index="41">
            38 237 209 0 rlineto
            64 0 47 -19 -15 -97 -13 -82 -47 -39 -75 0 rrcurveto
            return
          </CharString>
          <CharString index="42">
            -28 -170 26 -204 189 0 65 0 99 0 85 23 rrcurveto
            8 59 rlineto
            -142 -10 -67 -1 -44 3 -117 9 -28 127 28 162 48 304 115 -5 55 1 95 2 123 -14 22 -3 rrcurveto
            9 59 rlineto
            -68 13 -120 17 -52 0 -199 0 -63 -138 -39 -234 rrcurveto
            return
          </CharString>
          <CharString index="43">
            273 hlineto
            189 0 92 150 37 213 22 122 1 247 -225 0 rrcurveto
            -60 -213 0 -1 hvcurveto
            return
          </CharString>
          <CharString index="44">
            92 581 199 0 rlineto
            126 0 46 -92 -32 -202 -24 -149 -78 -138 -130 0 rrcurveto
            return
          </CharString>
          <CharString index="45">
            -15 -94 65 -36 66 4 rrcurveto
            310 17 10 57 -307 0 rlineto
            -29 0 -33 -1 7 53 rrcurveto
            32 200 rlineto
            return
          </CharString>
          <CharString index="46">
            330 10 10 59 rlineto
            return
          </CharString>
          <CharString index="47">
            -328 10 32 200 rlineto
            4 27 9 29 48 0 rrcurveto
            317 0 9 58 -314 16 rlineto
            -76 4 -55 -36 -16 -98 rrcurveto
            return
          </CharString>
          <CharString index="48">
            -327 10 31 200 rlineto
            4 27 9 29 48 0 rrcurveto
            317 0 9 58 -314 16 rlineto
            -76 4 -55 -36 -16 -98 rrcurveto
            return
          </CharString>
          <CharString index="49">
            -28 -170 30 -203 186 -1 76 0 85 35 32 29 rrcurveto
            return
          </CharString>
          <CharString index="50">
            10 -57 57 0 61 386 rlineto
            -24 2 -22 1 -21 0 rrcurveto
            return
          </CharString>
          <CharString index="51">
            -81 0 -56 -14 -42 -11 rrcurveto
            -8 -50 rlineto
            return
          </CharString>
          <CharString index="52">
            169 0 -34 -192 rlineto
            0 -116 -55 -78 vhcurveto
            -117 -1 -28 136 26 163 45 305 112 -4 59 -1 46 -1 126 -4 60 -9 rrcurveto
            8 59 rlineto
            -68 13 -114 17 -49 -1 rrcurveto
            -199 0 -64 -138 -39 -234 rrcurveto
            return
          </CharString>
          <CharString index="53">
            74 0 51 317 350 0 -51 -317 74 0 116 732 -74 0 -55 -341 -350 0 55 341 -74 0 rlineto
            return
          </CharString>
          <CharString index="54">
            74 0 116 732 -74 0 rlineto
            return
          </CharString>
          <CharString index="55">
            47 -34 107 -3 58 34 55 32 13 68 7 47 rrcurveto
            90 567 -74 0 -90 -567 rlineto
            -21 -134 -108 26 -71 18 rrcurveto
            return
          </CharString>
          <CharString index="56">
            75 0 52 330 91 0 169 -330 89 0 -188 362 304 370 -92 0 -275 -328 -87 0 52 328 -74 0 rlineto
            return
          </CharString>
          <CharString index="57">
            -15 -94 64 -32 67 0 rrcurveto
            308 0 11 74 -306 0 rlineto
            -29 0 -34 -1 8 53 rrcurveto
            97 606 -73 0 rlineto
            return
          </CharString>
          <CharString index="58">
            74 0 135 598 99 -598 76 0 285 599 -52 -599 74 0 60 732 -101 0 -288 -609 -102 609 -96 0 rlineto
            return
          </CharString>
          <CharString index="59">
            75 0 94 594 280 -594 70 0 116 732 -74 0 -94 -594 -279 594 -72 0 rlineto
            return
          </CharString>
          <CharString index="60">
            -53 -333 126 -32 162 0 173 0 109 42 49 323 50 331 -109 45 -174 0 -175 0 -104 -33 -54 -343 rrcurveto
            return
          </CharString>
          <CharString index="61">
            47 299 77 3 133 0 124 0 84 -3 -47 -299 -39 -249 -74 -42 -142 0 -150 0 -54 34 41 257 rrcurveto
            return
          </CharString>
          <CharString index="62">
            5 -3 184 -14 40 0 74 0 105 -3 31 225 22 164 -85 48 -79 0 rrcurveto
            -306 hlineto
            return
          </CharString>
          <CharString index="63">
            45 285 232 0 rlineto
            39 0 59 -6 -19 -131 rrcurveto
            return
          </CharString>
          <CharString index="64">
            0 -100 128 -27 76 27 rrcurveto
            13 80 rlineto
            -61 -21 -49 -3 -55 44 rrcurveto
            return
          </CharString>
          <CharString index="65">
            74 0 49 308 206 -14 99 -294 81 0 -106 302 rlineto
            29 4 111 14 19 192 17 167 -66 53 -85 0 rrcurveto
            -312 hlineto
            return
          </CharString>
          <CharString index="66">
            45 285 237 0 rlineto
            52 0 30 -13 -11 -132 -9 -108 -57 -32 -55 0 rrcurveto
            return
          </CharString>
          <CharString index="67">
            35 -7 133 -17 76 0 82 0 123 12 24 152 rrcurveto
            11 68 rlineto
            13 82 -20 90 -123 0 rrcurveto
            -139 hlineto
            -53 0 -52 -9 17 107 rrcurveto
            10 66 rlineto
            15 96 49 12 76 -4 rrcurveto
            0 198 -9 50 vhcurveto
            9 59 rlineto
            -54 8 -138 14 -53 2 -108 4 -93 -26 -25 -156 rrcurveto
            -10 -66 rlineto
            -12 -75 5 -97 157 0 rrcurveto
            139 hlineto
            76 0 1 -41 -9 -57 rrcurveto
            -11 -68 rlineto
            -13 -85 -89 -5 -41 0 -93 0 -111 4 -43 6 rrcurveto
            return
          </CharString>
          <CharString index="68">
            214 0 -104 -658 74 0 104 658 220 0 12 74 -508 0 rlineto
            return
          </CharString>
          <CharString index="69">
            -35 -221 82 -86 164 0 243 0 40 164 23 143 rrcurveto
            68 430 -75 0 -68 -430 rlineto
            -28 -178 -67 -55 -130 0 -120 0 -52 43 30 190 rrcurveto
            68 430 -75 0 rlineto
            return
          </CharString>
          <CharString index="70">
            141 -732 74 0 197 374 61 -374 74 0 385 732 -81 0 -323 -617 -59 365 130 252 -84 0 -323 -611 -117 611 rlineto
            return
          </CharString>
          <CharString index="71">
            158 -472 -41 -260 74 0 41 260 328 472 -88 0 -266 -381 -128 381 rlineto
            return
          </CharString>
          <CharString index="72">
            493 0 12 74 -396 0 488 584 12 74 -493 0 -12 -74 396 0 -488 -584 rlineto
            return
          </CharString>
          <CharString index="73">
            84 0 87 80 52 -80 69 0 -83 131 -71 0 rlineto
            return
          </CharString>
          <CharString index="74">
            124 -133 69 0 -106 133 rlineto
            return
          </CharString>
          <CharString index="75">
            -40 -241 79 -44 114 0 77 0 80 48 29 19 rrcurveto
            return
          </CharString>
          <CharString index="76">
            11 -60 53 0 70 479 rlineto
            -51 49 -136 22 -70 -9 rrcurveto
            -82 -10 -98 -36 -36 -217 rrcurveto
            return
          </CharString>
          <CharString index="77">
            31 191 57 14 65 12 41 8 71 -8 60 -16 rrcurveto
            -52 -337 rlineto
            return
          </CharString>
          <CharString index="78">
            -68 -29 -46 -19 -77 0 -78 0 -26 46 22 138 rrcurveto
            return
          </CharString>
          <CharString index="79">
            53 0 29 59 rlineto
            23 -19 95 -42 68 -4 163 -10 34 158 21 121 20 119 0 157 -158 0 -45 0 -84 -14 -68 -26 rrcurveto
            45 286 -72 0 rlineto
            return
          </CharString>
          <CharString index="80">
            52 325 rlineto
            72 18 50 8 77 0 89 0 -1 -79 -18 -123 -19 -126 -38 -69 -75 0 -79 0 -59 24 -51 22 rrcurveto
            return
          </CharString>
          <CharString index="81">
            -35 -201 74 -70 102 -1 83 -1 62 6 85 23 rrcurveto
            9 56 rlineto
            0 -145 -11 -92 vhcurveto
            -65 0 -32 46 27 149 36 194 38 8 59 0 rrcurveto
            89 138 -8 0 hvcurveto
            8 54 rlineto
            -68 13 -103 15 -52 0 -94 0 -80 -19 -44 -253 rrcurveto
            return
          </CharString>
          <CharString index="82">
            -20 -122 24 -147 140 0 68 0 98 46 29 19 rrcurveto
            10 -59 53 0 125 785 -72 0 -46 -286 rlineto
            -60 26 -85 14 -45 0 -151 0 -45 -134 -23 -142 rrcurveto
            return
          </CharString>
          <CharString index="83">
            27 163 46 39 60 0 77 0 49 -8 66 -18 rrcurveto
            -51 -325 rlineto
            -57 -22 -66 -24 -79 0 -67 0 -26 71 21 124 rrcurveto
            return
          </CharString>
          <CharString index="84">
            -36 -194 34 -91 128 0 83 0 83 6 84 23 rrcurveto
            8 56 rlineto
            -78 -11 -95 -9 -76 6 -71 1 -19 38 21 124 37 -15 324 -43 28 219 15 116 -80 37 -126 0 -195 0 -38 -100 -31 -163 rrcurveto
            return
          </CharString>
          <CharString index="85">
            19 91 8 95 159 0 89 0 44 -8 -12 -71 -23 -138 -284 31 0 0 rrcurveto
            return
          </CharString>
          <CharString index="86">
            99 0 -75 -457 74 0 76 457 rlineto
            return
          </CharString>
          <CharString index="87">
            166 0 12 74 -165 0 6 36 rlineto
            17 114 13 31 69 0 rrcurveto
            112 0 rlineto
            return
          </CharString>
          <CharString index="88">
            -16 5 -63 19 -40 0 -116 0 -32 -61 -25 -157 rrcurveto
            -6 -36 rlineto
            return
          </CharString>
          <CharString index="89">
            254 -24 rlineto
            81 -8 85 52 20 124 rrcurveto
            98 618 rlineto
            -46 4 -112 19 -106 0 -112 0 -81 -94 -27 -168 -25 -158 17 -126 160 0 45 0 68 12 68 26 rrcurveto
            -21 -133 rlineto
            -10 -64 -43 -31 -47 0 rrcurveto
            -258 hlineto
            return
          </CharString>
          <CharString index="90">
            7 45 32 150 107 0 rrcurveto
            182 0 -60 -374 rlineto
            -86 -21 -31 -4 -74 0 -114 0 27 133 10 71 rrcurveto
            return
          </CharString>
          <CharString index="91">
            74 0 65 409 rlineto
            83 37 42 20 80 0 52 0 33 -30 -10 -66 rrcurveto
            -59 -370 74 0 59 370 rlineto
            14 88 -45 82 -106 0 -81 0 -60 -36 -67 -35 rrcurveto
            50 315 -74 0 rlineto
            return
          </CharString>
          <CharString index="92">
            74 0 84 531 -74 0 rlineto
            return
          </CharString>
          <CharString index="93">
            -2 -14 8 -9 14 0 rrcurveto
            50 hlineto
            14 0 11 8 2 15 rrcurveto
            8 54 rlineto
            2 14 -6 11 -15 0 rrcurveto
            -50 hlineto
            -16 0 -10 -10 -2 -15 rrcurveto
            return
          </CharString>
          <CharString index="94">
            74 0 43 267 38 1 186 -268 90 0 -201 288 rlineto
            68 30 134 106 31 107 rrcurveto
            -83 hlineto
            -16 -75 -152 -114 -88 -26 rrcurveto
            74 466 -74 0 rlineto
            return
          </CharString>
          <CharString index="95">
            -20 -129 38 -60 95 0 rrcurveto
            68 0 9 56 rlineto
            -1 -74 18 0 hvcurveto
            -39 9 -18 7 16 99 rrcurveto
            94 594 -74 0 rlineto
            return
          </CharString>
          <CharString index="96">
            74 0 64 407 rlineto
            83 37 35 19 80 0 48 0 37 -38 -9 -59 rrcurveto
            -58 -366 74 0 58 364 6 43 rlineto
            73 43 49 13 83 0 48 0 36 -38 -9 -59 rrcurveto
            -58 -366 74 0 58 366 rlineto
            16 102 -68 69 -85 0 -97 0 -76 -43 -59 -43 -15 49 -54 37 -60 0 -83 0 -50 -35 -67 -35 rrcurveto
            -12 64 -52 0 rlineto
            return
          </CharString>
          <CharString index="97">
            74 0 65 409 rlineto
            83 37 42 20 80 0 51 0 34 -30 -10 -66 rrcurveto
            -59 -370 74 0 59 370 rlineto
            14 88 -45 82 -106 0 -81 0 -60 -36 -67 -35 rrcurveto
            return
          </CharString>
          <CharString index="98">
            -30 -190 61 -73 172 0 175 0 57 66 33 197 31 187 -56 91 -168 0 -174 0 -67 -61 -34 -217 rrcurveto
            return
          </CharString>
          <CharString index="99">
            31 184 50 20 112 0 117 0 39 -33 -29 -171 -30 -175 -55 -14 -105 0 -103 0 -56 17 29 172 rrcurveto
            return
          </CharString>
          <CharString index="100">
            73 0 49 299 rlineto
            60 -26 93 -11 45 0 135 0 63 125 18 136 15 117 0 164 -165 0 -78 0 -90 -3 -85 -10 rrcurveto
            return
          </CharString>
          <CharString index="101">
            62 370 187 0 rlineto
            62 0 42 -47 -24 -150 -27 -169 -59 -17 -51 -9 -74 -13 -73 20 -45 15 rrcurveto
            return
          </CharString>
          <CharString index="102">
            74 0 64 404 rlineto
            83 37 44 21 80 0 29 0 32 -3 12 -3 rrcurveto
            12 73 rlineto
            -11 6 -33 2 -29 0 -82 0 -61 -38 -67 -35 rrcurveto
            -11 67 -52 0 rlineto
            return
          </CharString>
          <CharString index="103">
            37 -4 185 -15 49 0 56 0 77 10 17 109 rrcurveto
            9 63 rlineto
            12 75 -43 54 -87 0 rrcurveto
            -150 hlineto
            -28 0 -38 -10 11 67 rrcurveto
            8 51 rlineto
            3 20 7 39 64 0 rrcurveto
            return
          </CharString>
          <CharString index="104">
            261 0 9 57 rlineto
            return
          </CharString>
          <CharString index="105">
            -51 5 -156 11 -52 0 -103 0 -42 -46 -14 -86 rrcurveto
            -8 -51 rlineto
            -16 -100 50 -31 94 0 rrcurveto
            148 hlineto
            44 0 9 -20 -6 -35 rrcurveto
            -9 -54 rlineto
            -10 -60 -54 6 0 0 rrcurveto
            return
          </CharString>
          <CharString index="106">
            99 0 -42 -269 rlineto
            -20 -130 37 -59 97 0 rrcurveto
            68 0 8 56 rlineto
            -1 -74 18 0 hvcurveto
            -39 9 -17 7 15 99 rrcurveto
            42 269 rlineto
            return
          </CharString>
          <CharString index="107">
            155 0 12 74 -155 0 23 148 -56 0 -41 -148 rlineto
            return
          </CharString>
          <CharString index="108">
            -15 -95 46 -75 106 0 81 0 59 36 67 35 rrcurveto
            return
          </CharString>
          <CharString index="109">
            12 -62 52 0 84 531 -74 0 -64 -409 rlineto
            return
          </CharString>
          <CharString index="110">
            -83 -37 -42 -20 -80 0 -51 0 -36 20 12 76 rrcurveto
            58 370 -74 0 rlineto
            return
          </CharString>
          <CharString index="111">
            125 -531 82 0 147 280 58 -280 73 0 247 439 rlineto
            17 30 -1 29 -11 33 rrcurveto
            -55 hlineto
            -6 -37 -7 -16 -13 -27 rrcurveto
            -194 -349 -54 269 29 65 rlineto
            15 31 1 28 -11 33 rrcurveto
            -54 hlineto
            -6 -37 -7 -16 -13 -27 rrcurveto
            -187 -352 -101 435 rlineto
            return
          </CharString>
          <CharString index="112">
            63 -421 rlineto
            15 -100 68 -10 25 0 -37 -71 -49 -92 -81 -53 rrcurveto
            -53 vlineto
            111 22 63 92 80 156 rrcurveto
            221 436 rlineto
            16 31 4 32 -11 33 rrcurveto
            -61 hlineto
            -6 -37 -5 -16 -14 -27 rrcurveto
            -193 -376 rlineto
            0 0 -60 -10 -8 49 rrcurveto
            -64 415 rlineto
            return
          </CharString>
          <CharString index="113">
            381 hlineto
            0 0 12 73 -1 1 rrcurveto
            -276 0 339 382 10 74 -396 0 -10 -74 295 0 -345 -382 rlineto
            return
          </CharString>
          <CharString index="114">
            39 0 20 -35 45 0 53 0 42 47 31 25 rrcurveto
            -15 42 rlineto
            -29 -16 -32 -24 -39 0 rrcurveto
            return
          </CharString>
          <CharString index="115">
            -40 0 -16 35 -44 0 rrcurveto
            -53 0 -30 -35 -45 -33 rrcurveto
            return
          </CharString>
          <CharString index="116">
            -1 -14 5 -10 13 -1 rrcurveto
            56 hlineto
            14 4 7 9 3 12 rrcurveto
            8 51 rlineto
            2 14 -10 11 -12 1 rrcurveto
            -49 hlineto
            -14 -1 -12 -8 -2 -14 rrcurveto
            return
          </CharString>
          <CharString index="117">
            -4 -28 19 -23 28 0 28 0 26 23 4 28 4 28 -18 22 -28 0 -28 0 -27 -22 -4 -28 rrcurveto
            return
          </CharString>
          <CharString index="118">
            -16 -107 3 -261 192 0 rrcurveto
            260 hlineto
            151 0 80 175 31 193 20 124 16 240 -192 0 rrcurveto
            -260 hlineto
            -192 0 -66 -186 -27 -178 rrcurveto
            return
          </CharString>
          <CharString index="119">
            38 242 85 58 88 0 rrcurveto
            270 hlineto
            131 0 -20 -180 -19 -120 -32 -204 -80 -100 -78 0 rrcurveto
            -266 hlineto
            -114 0 -26 161 23 143 rrcurveto
            return
          </CharString>
          <CharString index="120">
            178 -208 54 47 -131 154 183 156 -46 54 rlineto
            return
          </CharString>
          <CharString index="121">
            292 0 10 63 -292 0 rlineto
            return
          </CharString>
          <CharString index="122">
            309 0 10 62 -192 0 rlineto
            29 30 187 104 22 150 8 42 -26 94 -91 0 rrcurveto
            return
          </CharString>
          <CharString index="123">
            -72 0 -46 -7 -67 -8 -1 1 -8 -48 2 0 rrcurveto
            return
          </CharString>
          <CharString index="124">
            172 hlineto
            58 0 13 -24 -8 -53 -18 -113 -196 -118 -76 -54 rrcurveto
            return
          </CharString>
          <CharString index="125">
            54 -20 55 2 74 0 101 -1 33 49 11 71 rrcurveto
            4 28 rlineto
            6 37 -13 34 -24 17 28 10 24 37 8 47 rrcurveto
            6 35 rlineto
            9 60 -35 56 -77 1 -76 1 -61 1 -60 -20 rrcurveto
            -7 -43 186 0 rlineto
            53 0 13 -18 -7 -42 rrcurveto
            -3 -22 rlineto
            -6 -40 -28 -22 -45 -2 rrcurveto
            -143 -6 -8 -48 141 -5 rlineto
            35 -1 30 -17 -8 -51 rrcurveto
            -4 -23 rlineto
            -7 -44 -36 -17 -38 0 rrcurveto
            0 -145 -1 -32 vhcurveto
            return
          </CharString>
          <CharString index="126">
            69 0 154 133 -95 0 rlineto
            return
          </CharString>
          <CharString index="127">
            51 hlineto
            80 0 27 34 16 102 rrcurveto
            -67 hlineto
            -6 -38 -10 -34 -30 -12 rrcurveto
            -55 -15 rlineto
            return
          </CharString>
          <CharString index="128">
            77 0 45 21 17 13 rrcurveto
            -65 -403 62 0 76 478 -60 0 rlineto
            0 -65 -67 -80 vhcurveto
            return
          </CharString>
          <CharString index="129">
            -20 -126 46 -52 112 0 137 0 35 52 20 126 23 146 -56 43 -109 -1 -130 -1 -36 -50 -22 -137 rrcurveto
            return
          </CharString>
          <CharString index="130">
            19 122 35 5 68 -1 73 -1 30 -2 -19 -123 -19 -118 -48 1 -55 1 -62 1 -40 0 18 115 rrcurveto
            return
          </CharString>
          <CharString index="131">
            46 -54 238 203 -178 208 -54 -47 131 -154 rlineto
            return
          </CharString>
          <CharString index="132">
            61 0 588 770 -61 0 rlineto
            return
          </CharString>
          <CharString index="133">
            18 -24 244 0 -20 -120 63 0 19 120 rlineto
            return
          </CharString>
          <CharString index="134">
            60 13 8 52 -58 0 27 169 -34 0 -36 -48 -19 -121 rlineto
            return
          </CharString>
          <CharString index="135">
            114 -5 68 12 104 13 rrcurveto
            8 51 rlineto
            return
          </CharString>
          <CharString index="136">
            -2 -14 6 -11 15 0 rrcurveto
            55 hlineto
            16 0 10 10 2 15 rrcurveto
            9 57 rlineto
            2 14 -9 9 -14 0 rrcurveto
            -55 hlineto
            -14 0 -10 -8 -2 -15 rrcurveto
            return
          </CharString>
          <CharString index="137">
            80 0 90 83 57 -83 65 0 -83 130 -71 0 rlineto
            return
          </CharString>
          <CharString index="138">
            15 -41 rlineto
            32 14 24 20 44 1 rrcurveto
            return
          </CharString>
          <CharString index="139">
            36 1 10 -34 56 -1 44 -1 39 36 43 27 rrcurveto
            return
          </CharString>
          <CharString index="140">
            -6 -4 -70 -31 -24 1 rrcurveto
            return
          </CharString>
          <CharString index="141">
            -28 1 -22 30 -50 3 rrcurveto
            -41 0 -42 -31 -45 -33 rrcurveto
            return
          </CharString>
          <CharString index="142">
            2.625 30 27.185546875 25 30 0 30 0 21.814453125 -25 -2.625 -30 -2.625 -30 -26.1005859375 -24 -30 0 -30 0 -22.8994140625 24 2.625 30 rrcurveto
            return
          </CharString>
          <CharString index="143">
            65 0 -55 -346 273 0 rlineto
            189 0 93 150 37 213 22 122 0 247 -225 0 rrcurveto
            -60 -213 0 -1 hvcurveto
            -52 -331 -65 0 rlineto
            return
          </CharString>
          <CharString index="144">
            43 269 139 0 9 54 -139 0 40 258 199 0 rlineto
            126 0 46 -92 -32 -202 -24 -149 -78 -138 -130 0 rrcurveto
            return
          </CharString>
          <CharString index="145">
            2.625 30 27.1865234375 25 30 0 30 0 21.8134765625 -25 -2.625 -30 -2.625 -30 -26.099609375 -24 -30 0 -30 0 -22.900390625 24 2.625 30 rrcurveto
            return
          </CharString>
          <CharString index="146">
            -2 -14 9 -9 14 0 rrcurveto
            50 hlineto
            14 0 10 8 2 15 rrcurveto
            9 54 rlineto
            2 14 -6 11 -15 0 rrcurveto
            -50 hlineto
            -16 0 -10 -10 -2 -15 rrcurveto
            return
          </CharString>
          <CharString index="147">
            -3 -20 10 -12 20 0 rrcurveto
            74 hlineto
            20 0 17 8 4 24 rrcurveto
            12 80 rlineto
            3 22 -7 13 -25 0 rrcurveto
            -74 hlineto
            -22 0 -14 -14 -3 -21 rrcurveto
            return
          </CharString>
          <CharString index="148">
            0 0 101 -19 17 104 rrcurveto
            16 99 rlineto
            3 16 -5 14 -20 0 rrcurveto
            -56 hlineto
            -18 0 -11 -10 -3 -20 rrcurveto
            -10 -59 rlineto
            -3 -19 11 -9 15 0 rrcurveto
            12 0 -4 -27 rlineto
            -2 -12 -4 -23 -33 1 rrcurveto
            return
          </CharString>
          <CharString index="149">
            0 0 101 -19 17 104 rrcurveto
            16 99 rlineto
            3 16 -5 14 -20 0 rrcurveto
            -56 hlineto
            -18 0 -11 -10 -3 -20 rrcurveto
            -10 -59 rlineto
            -3 -19 11 -9 15 0 rrcurveto
            12 0 -4 -27 rlineto
            -2 -12 -4 -24 -33 1 rrcurveto
            return
          </CharString>
          <CharString index="150">
            -3 -16 4 -14 20 0 rrcurveto
            56 hlineto
            18 0 12 10 3 20 rrcurveto
            9 59 rlineto
            3 19 -11 8 -15 0 rrcurveto
            -12 0 4 28 rlineto
            2 12 5 23 33 -1 rrcurveto
            5 35 rlineto
            0 0 -101 20 -17 -104 rrcurveto
            return
          </CharString>
          <CharString index="151">
            -15 -95 75 -15 39 0 rrcurveto
            117 hlineto
            70 0 46 14 15 96 rrcurveto
            40 255 rlineto
            11 67 -31 43 -75 0 rrcurveto
            -117 hlineto
            -67 0 -55 -26 -13 -84 rrcurveto
            return
          </CharString>
          <CharString index="152">
            39 247 rlineto
            5 31 15 21 47 0 rrcurveto
            109 hlineto
            53 0 0 -17 -6 -35 rrcurveto
            -39 -247 rlineto
            -6 -35 -12 -17 -46 0 rrcurveto
            -109 hlineto
            -49 0 -8 8 7 44 rrcurveto
            return
          </CharString>
          <CharString index="153">
            -162 0 224 289 -73 0 rlineto
            return
          </CharString>
          <CharString index="154">
            85 -15 47 2 81 -1 67 -1 44 23 15 92 rrcurveto
            11 64 rlineto
            11 71 -39 49 -62 0 -32 0 -84 10 -34 -29 rrcurveto
            30 138 234 0 10 62 -295 0 -62 -292 56 0 rlineto
            6 35 21 14 25 0 rrcurveto
            111 hlineto
            53 0 -9 -40 -3 -22 rrcurveto
            -9 -56 rlineto
            -5 -33 -19 -23 -35 0 rrcurveto
            -211 hlineto
            return
          </CharString>
          <CharString index="155">
            -32 -197 61 -53 60 0 rrcurveto
            110 hlineto
            72 0 39 33 11 72 rrcurveto
            11 73 rlineto
            7 42 -28 60 -68 -1 -48 -1 -75 -7 -56 -6 10 55 17 98 59 0 rrcurveto
            204 0 rlineto
            return
          </CharString>
          <CharString index="156">
            173 hlineto
            30 0 16 -7 -6 -36 rrcurveto
            -10 -61 rlineto
            -6 -36 -16 -15 -33 0 rrcurveto
            -109 hlineto
            -63 0 19 122 5 33 rrcurveto
            return
          </CharString>
          <CharString index="157">
            255 0 -237 -414 70 0 253 445 -13 31 -318 0 rlineto
            return
          </CharString>
          <CharString index="158">
            -8 -53 28 -51 78 0 rrcurveto
            115 hlineto
            62 0 46 13 14 91 rrcurveto
            9 58 rlineto
            4 28 -7 44 -35 14 48 10 14 52 2 14 rrcurveto
            6 40 rlineto
            12 74 -45 43 -54 0 rrcurveto
            -114 hlineto
            -67 0 -51 -25 -15 -92 rrcurveto
            -7 -40 rlineto
            -5 -30 11 -39 39 -21 -27 -8 -35 -16 -8 -48 rrcurveto
            return
          </CharString>
          <CharString index="159">
            8 50 rlineto
            6 40 21 12 30 0 rrcurveto
            116 hlineto
            29 0 14 -15 -6 -37 rrcurveto
            -7 -50 rlineto
            -5 -34 -22 -11 -28 0 rrcurveto
            -107 hlineto
            -47 0 -7 13 5 32 rrcurveto
            return
          </CharString>
          <CharString index="160">
            5 32 rlineto
            7 46 17 13 42 0 rrcurveto
            102 hlineto
            38 0 12 -11 -8 -48 rrcurveto
            -5 -32 rlineto
            -4 -23 -8 -32 -47 0 rrcurveto
            -111 hlineto
            -22 0 -25 11 7 44 rrcurveto
            return
          </CharString>
          <CharString index="161">
            9 61 rlineto
            6 36 16 15 33 0 rrcurveto
            109 hlineto
            63 0 -18 -122 -5 -33 rrcurveto
            -173 hlineto
            -30 0 -16 7 6 36 rrcurveto
            return
          </CharString>
          <CharString index="162">
            -68 12 -80 0 -66 0 rrcurveto
            -54 0 -62 -33 -32 -197 rrcurveto
            return
          </CharString>
          <CharString index="163">
            -19 -120 74 -42 91 0 rrcurveto
            164 hlineto
            108 0 66 43 19 119 rrcurveto
            49 308 rlineto
            13 79 -34 83 -121 0 rrcurveto
            -164 hlineto
            -109 0 -70 -47 -18 -115 rrcurveto
            return
          </CharString>
          <CharString index="164">
            49 308 rlineto
            7 46 26 42 79 0 rrcurveto
            164 hlineto
            74 0 14 -31 -9 -57 rrcurveto
            -49 -308 rlineto
            -9 -54 -34 -34 -64 0 rrcurveto
            -164 hlineto
            -48 0 -50 -3 14 91 rrcurveto
            return
          </CharString>
          <CharString index="165">
            495 0 12 74 -324 0 rlineto
            62 30 311 171 15 176 8 88 -20 99 -161 0 -120 0 -84 -6 -102 -14 rrcurveto
            -10 -55 rlineto
            0 255 1 50 vhcurveto
            96 2 22 -40 -12 -73 -23 -147 -300 -154 -159 -84 rrcurveto
            return
          </CharString>
          <CharString index="166">
            473 0 12 75 -473 0 rlineto
            return
          </CharString>
          <CharString index="167">
            696 0 12 75 -696 0 rlineto
            return
          </CharString>
          <CharString index="168">
            -6 -74 54 -40 53 0 69 0 46 33 11 81 rrcurveto
            -46 hlineto
            -8 -51 -29 -18 -43 1 -33 0 -28 25 6 43 rrcurveto
            return
          </CharString>
          <CharString index="169">
            -160 -64 55 -133 118 16 rrcurveto
            10 60 rlineto
            -83 -4 6 57 93 68 rrcurveto
            return
          </CharString>
          <CharString index="170">
            83 -130 71 0 138 130 -80 0 -90 -83 -57 83 rlineto
            return
          </CharString>
          <CharString index="171">
            53 0 31 134 11 67 -74 0 -11 -67 rlineto
            return
          </CharString>
          <CharString index="172">
            -4.9873046875 -57 42.0634765625 -45 56 0 56 0 48.9365234375 45 4.9873046875 57 4.986328125 57 -40.9755859375 46 -56 0 -56 0 -50.0244140625 -46 -4.986328125 -57 rrcurveto
            return
          </CharString>
          <CharString index="173">
            2.625 30 27.185546875 25 30 0 30 0 21.814453125 -25 -2.625 -30 -2.625 -30 -26.099609375 -24 -30 0 -30 0 -22.900390625 24 2.625 30 rrcurveto
            return
          </CharString>
          <CharString index="174">
            -19 -96 64 -58 102 0 rrcurveto
            139 hlineto
            147 0 16 84 11 70 rrcurveto
            5 33 rlineto
            13 79 -67 53 -68 9 rrcurveto
            -184 25 rlineto
            -21 3 -19 9 4 26 5 32 25 -5 16 0 rrcurveto
            147 hlineto
            142 0 44 119 10 77 18 141 -81 46 -68 0 rrcurveto
            -105 2 rlineto
            -107 2 -72 -61 -20 -130 -8 -53 13 -63 40 -28 -50 0 -22 -50 -5 -36 rrcurveto
            return
          </CharString>
          <CharString index="175">
            29 137 211 -31 rlineto
            51 -8 32 -23 -7 -47 rrcurveto
            -5 -28 rlineto
            -7 -47 -21 -32 -59 0 rrcurveto
            -150 hlineto
            -36 0 -54 2 16 77 rrcurveto
            return
          </CharString>
          <CharString index="176">
            9 52 22 63 82 0 rrcurveto
            101 hlineto
            74 0 8 -60 -9 -55 -6 -38 -29 -83 -75 0 rrcurveto
            -101 hlineto
            -77 0 -7 72 8 49 rrcurveto
            return
          </CharString>
          <CharString index="177">
            -1.78298950195 -14 8.42599487305 -9 14 0 rrcurveto
            53 hlineto
            14 0 11.2079925537 5 3.1490020752 18 rrcurveto
            8.97200012207 57 rlineto
            2.46598815918 16 -5.42599487305 9 -18 0 rrcurveto
            -53 hlineto
            -15.9999847412 0 -9.41600036621 -10 -2.62400817871 -15 rrcurveto
            return
          </CharString>
          <CharString index="178">
            97 0 -72 -457 74 0 72 457 rlineto
            return
          </CharString>
          <CharString index="179">
            130 -23 45 -8 125 7 91 5 77 28 22 137 rrcurveto
            17 108 rlineto
            16 100 -61 71 -91 0 -29 0 -57 6 -52 -5 -37 -3 -33 -9 -18 -19 rrcurveto
            51 242 351 0 12 74 -423 0 -91 -435 70 0 rlineto
            9 54 47 21 39 0 rrcurveto
            150 hlineto
            86 0 -8 -70 -5 -29 rrcurveto
            -17 -104 rlineto
            -6 -38 -28 -55 -69 0 rrcurveto
            -304 hlineto
            return
          </CharString>
          <CharString index="180">
            60 0 23 -38 60 0 60 0 45 45 43 27 rrcurveto
            -15 42 rlineto
            -50 -18 -23 -21 -47 0 rrcurveto
            return
          </CharString>
          <CharString index="181">
            -47 15 -38 8 -49 0 -120 0 -19 -102 -9 -54 rrcurveto
            -14 -89 rlineto
            return
          </CharString>
          <CharString index="182">
            9 48 7 36 63 0 rrcurveto
            121 0 rlineto
            return
          </CharString>
          <CharString index="183">
            0 0 82.7998046875 -16.2001953125 13.5 85.5 rrcurveto
            12.599609375 81 rlineto
            1.7998046875 13.5 -2.69921875 10.80078125 -16.2001953125 0 rrcurveto
            -45.900390625 hlineto
            -14.3994140625 0 -9.900390625 -8.1005859375 -2.7001953125 -16.2001953125 rrcurveto
            -7.2001953125 -48.599609375 rlineto
            -2.69921875 -15.2998046875 9 -7.2001953125 12.599609375 0 rrcurveto
            9.900390625 0 -3.6005859375 -22.5 rlineto
            -1.7998046875 -9.900390625 -3.599609375 -18.8994140625 -27 0.8994140625 rrcurveto
            return
          </CharString>
          <CharString index="184">
            -12 -84 44 -41 75 0 rrcurveto
            56 hlineto
            104 0 31 32 14 93 rrcurveto
            12 83 rlineto
            14 91 -35 34 -86 0 rrcurveto
            -56 hlineto
            -111 0 -25 -42 -13 -83 rrcurveto
            return
          </CharString>
          <CharString index="185">
            12 83 rlineto
            7 45 9 15 58 0 rrcurveto
            56 hlineto
            56 0 4 -11 -8 -49 rrcurveto
            -12 -83 rlineto
            -7 -48 -11 -12 -55 0 rrcurveto
            -56 hlineto
            -47 0 -13 11 7 49 rrcurveto
            return
          </CharString>
          <CharString index="186">
            -12 -84 44 -41 75 0 rrcurveto
            56 hlineto
            104 0 32 32 13 93 rrcurveto
            12 83 rlineto
            return
          </CharString>
          <CharString index="187">
            14 91 -35 34 -86 0 rrcurveto
            -56 hlineto
            -111 0 -25 -42 -13 -83 rrcurveto
            return
          </CharString>
          <CharString index="188">
            12 83 rlineto
            7 45 9 15 58 0 rrcurveto
            56 hlineto
            56 0 4 -11 -8 -49 rrcurveto
            -12 -83 rlineto
            -7 -48 -12 -12 -55 0 rrcurveto
            -56 hlineto
            -47 0 -12 11 7 49 rrcurveto
            return
          </CharString>
          <CharString index="189">
            87 0 82 152 240 0 36 -152 76 0 -124 570 -74 0 rlineto
            return
          </CharString>
          <CharString index="190">
            134 243 51 -243 rlineto
            return
          </CharString>
          <CharString index="191">
            264 hlineto
            126 0 42 69 15 93 12 75 -21 44 -36 10 46 12 25 43 11 72 11 67 -24 86 -124 0 rrcurveto
            -257 hlineto
            return
          </CharString>
          <CharString index="192">
            29 183 rlineto
            36 -2 154 2 0 0 65 0 8 -41 -5 -55 -7 -69 -55 -18 -35 0 rrcurveto
            return
          </CharString>
          <CharString index="193">
            26 165 190 0 rlineto
            43 0 35 -7 -11 -72 -10 -62 -19 -24 -64 0 rrcurveto
            return
          </CharString>
          <CharString index="194">
            -22 -138 -2 -179 181 0 77 0 93 16 60 11 rrcurveto
            9 57 rlineto
            0 0 -154 -8 -73 -2 -115 2 2 110 18 113 20 128 41 81 102 0 65 0 145 -7 15 -3 rrcurveto
            9 59 rlineto
            -49 12 -130 13 -43 0 -170 0 -56 -120 -23 -145 rrcurveto
            return
          </CharString>
          <CharString index="195">
            247 hlineto
            60 0 159 -12 45 282 19 123 -16 177 -176 2 rrcurveto
            -247 hlineto
            return
          </CharString>
          <CharString index="196">
            67 424 173 0 rlineto
            84 0 51 -64 -24 -151 -17 -110 -44 -99 -117 0 rrcurveto
            return
          </CharString>
          <CharString index="197">
            -8 -52 29 -33 50 0 rrcurveto
            return
          </CharString>
          <CharString index="198">
            309 14 10 60 rlineto
            return
          </CharString>
          <CharString index="199">
            -281 hlineto
            -21 0 -15 3 5 29 rrcurveto
            22 143 rlineto
            return
          </CharString>
          <CharString index="200">
            287 7 10 61 rlineto
            return
          </CharString>
          <CharString index="201">
            -285 8 23 142 rlineto
            4 24 3 9 30 0 rrcurveto
            return
          </CharString>
          <CharString index="202">
            285 0 10 61 rlineto
            return
          </CharString>
          <CharString index="203">
            -285 12 rlineto
            -64 0 -46 -32 -9 -58 rrcurveto
            return
          </CharString>
          <CharString index="204">
            -284 8 23 145 rlineto
            5 21 2 12 30 0 rrcurveto
            return
          </CharString>
          <CharString index="205">
            -286 12 rlineto
            -64 0 -45 -32 -9 -58 rrcurveto
            return
          </CharString>
          <CharString index="206">
            -8 -50 -33 -267 207 1 60 0 74 17 58 34 rrcurveto
            return
          </CharString>
          <CharString index="207">
            8 -44 56 0 49 308 rlineto
            -24 2 -21 1 -21 0 rrcurveto
            return
          </CharString>
          <CharString index="208">
            -81 0 -66 -14 -42 -11 rrcurveto
            -8 -49 rlineto
            return
          </CharString>
          <CharString index="209">
            178 0 -19 -119 rlineto
            -25 -17 -83 -35 -81 0 -117 0 1 145 12 77 28 176 37 41 108 0 93 0 85 -7 61 -6 rrcurveto
            10 62 rlineto
            -56 11 -138 14 -43 0 rrcurveto
            -172 0 -58 -86 -29 -184 rrcurveto
            return
          </CharString>
          <CharString index="210">
            74 0 38 239 311 0 -38 -239 74 0 90 571 -74 0 -40 -258 -311 0 40 258 -74 0 rlineto
            return
          </CharString>
          <CharString index="211">
            74 0 90 570 -74 0 rlineto
            return
          </CharString>
          <CharString index="212">
            44 -29 77 -6 60 31 58 30 15 72 7 46 rrcurveto
            64 405 -74 0 -64 -405 rlineto
            -20 -106 -60 -1 -94 17 rrcurveto
            return
          </CharString>
          <CharString index="213">
            74 0 38 243 77 0 161 -243 93 0 -181 275 271 296 -93 0 -242 -254 -74 0 40 254 -74 0 rlineto
            return
          </CharString>
          <CharString index="214">
            -9 -55 28 -31 53 0 rrcurveto
            296 0 12 74 -270 0 rlineto
            -24 0 -15 1 5 26 rrcurveto
            74 469 -74 0 rlineto
            return
          </CharString>
          <CharString index="215">
            70 0 117 442 100 -442 64 0 230 441 -29 -441 72 0 36 571 -90 0 -237 -449 -97 449 -91 0 rlineto
            return
          </CharString>
          <CharString index="216">
            74 0 72 448 247 -448 70 0 90 571 -73 0 -71 -444 -248 444 -71 0 rlineto
            return
          </CharString>
          <CharString index="217">
            -39 -249 95 -36 161 0 168 0 76 47 39 245 41 256 -95 32 -163 0 -166 0 -78 -51 -39 -244 rrcurveto
            return
          </CharString>
          <CharString index="218">
            35 221 79 -5 95 0 112 0 64 1 -34 -215 -34 -217 -83 -1 -94 0 -119 0 -52 18 31 198 rrcurveto
            return
          </CharString>
          <CharString index="219">
            194 -13 rlineto
            62 0 108 7 11 177 8 124 -66 38 -68 0 rrcurveto
            -271 hlineto
            return
          </CharString>
          <CharString index="220">
            31 198 196 0 rlineto
            36 0 41 -28 -14 -68 rrcurveto
            return
          </CharString>
          <CharString index="221">
            74 0 38 240 rlineto
            1 -2 125 -12 30 -2 rrcurveto
            93 -224 80 0 -99 233 rlineto
            84 7 47 67 7 97 9 135 -83 32 -55 0 rrcurveto
            -261 hlineto
            return
          </CharString>
          <CharString index="222">
            32 199 188 0 rlineto
            7 0 74 -9 -16 -84 -19 -97 -43 -9 -35 0 rrcurveto
            return
          </CharString>
          <CharString index="223">
            35 -12 189 -10 49 0 55 0 78 19 17 109 rrcurveto
            11 70 rlineto
            12 75 -35 54 -87 0 rrcurveto
            -160 hlineto
            -37 0 -28 -3 10 60 rrcurveto
            10 59 rlineto
            5 34 17 33 52 0 rrcurveto
            98 165 -4 0 hvcurveto
            9 57 rlineto
            -66 9 -142 11 -52 0 -103 0 -46 -58 -13 -82 rrcurveto
            -8 -59 rlineto
            -13 -102 51 -29 80 0 rrcurveto
            160 hlineto
            46 0 8 -10 -7 -45 rrcurveto
            -11 -70 rlineto
            -5 -32 -19 -22 -41 0 rrcurveto
            -96 -179 3 0 hvcurveto
            return
          </CharString>
          <CharString index="224">
            186 0 -79 -496 74 0 79 496 186 0 12 74 -446 0 rlineto
            return
          </CharString>
          <CharString index="225">
            -39 -239 112 -26 136 0 121 0 106 32 37 233 rrcurveto
            49 310 -75 0 -49 -310 rlineto
            -26 -162 -65 -29 -99 0 -117 0 -43 29 27 162 rrcurveto
            49 310 -75 0 rlineto
            return
          </CharString>
          <CharString index="226">
            126 -570 76 0 143 278 66 -278 74 0 296 570 -80 0 -240 -461 -63 267 98 194 -80 0 -241 -461 -99 461 rlineto
            return
          </CharString>
          <CharString index="227">
            152 -380 -30 -191 74 0 30 191 270 380 -84 0 -214 -296 -120 296 rlineto
            return
          </CharString>
          <CharString index="228">
            426 0 12 74 -324 0 391 422 11 74 -426 0 -11 -74 328 0 -395 -422 rlineto
            return
          </CharString>
          <CharString index="229">
            -4 -28 19 -23 28 0 28 0 26 23 4 28 4 28 -18 23 -28 0 -28 0 -27 -23 -4 -28 rrcurveto
            return
          </CharString>
          <CharString index="230">
            -9 -57 38 -46 56 0 56 0 52 46 9 57 9 57 -37 46 -56 0 -56 0 -53 -46 -9 -57 rrcurveto
            return
          </CharString>
          <CharString index="231">
            5 30 28 24 30 0 30 0 20 -24 -5 -30 -5 -30 -27 -24 -30 0 -30 0 -21 24 5 30 rrcurveto
            return
          </CharString>
          <CharString index="232">
            80 0 -41 -263 221 0 rlineto
            60 0 164 -9 45 282 19 123 -23 174 -176 2 rrcurveto
            -220 0 -40 -255 -80 0 rlineto
            return
          </CharString>
          <CharString index="233">
            30 189 90 0 7 54 -88 0 29 181 153 0 rlineto
            84 0 50 -64 -24 -151 -17 -110 -44 -99 -117 0 rrcurveto
            return
          </CharString>
          <CharString index="234">
            0 0 102 -20 17 105 rrcurveto
            15 99 rlineto
            3 17 -5 13 -20 0 rrcurveto
            -56 hlineto
            -18 0 -11 -10 -3 -20 rrcurveto
            -10 -60 rlineto
            -3 -19 12 -8 15 0 rrcurveto
            12 0 -5 -28 rlineto
            -2 -12 -4 -23 -33 1 rrcurveto
            return
          </CharString>
          <CharString index="235">
            0 0 102 -20 17 105 rrcurveto
            15 99 rlineto
            3 17 -4 13 -20 0 rrcurveto
            -57 hlineto
            -18 0 -11 -10 -3 -20 rrcurveto
            -10 -60 rlineto
            -3 -19 12 -8 15 0 rrcurveto
            12 0 -5 -28 rlineto
            -2 -12 -4 -23 -33 1 rrcurveto
            return
          </CharString>
          <CharString index="236">
            74 0 102 645 rlineto
            3 17 19 5 4 -15 rrcurveto
            172 -582 rlineto
            32 -109 128 10 16 109 rrcurveto
            100 652 -74 0 -102 -643 rlineto
            -4 -23 -16 2 -5 18 rrcurveto
            -176 594 rlineto
            -24 82 -135 -6 -13 -104 rrcurveto
            return
          </CharString>
          <CharString index="237">
            73 0 144 645 rlineto
            5 24 21 -6 2 -16 rrcurveto
            57 -386 rlineto
            16 -108 116 4 36 86 rrcurveto
            172 410 rlineto
            7 16 24 -6 -3 -17 rrcurveto
            -53 -646 76 0 52 647 rlineto
            8 103 -139 22 -42 -91 rrcurveto
            -171 -411 rlineto
            -6 -15 -16 -4 -3 19 rrcurveto
            -58 390 rlineto
            -18 108 -141 -14 -16 -102 rrcurveto
            return
          </CharString>
          <CharString index="238">
            74 0 68 429 rlineto
            94 33 37 4 71 0 51 0 34 -30 -10 -66 rrcurveto
            -59 -370 74 0 59 370 rlineto
            3 20 0 20 -3 19 78 30 49 7 76 0 51 0 34 -30 -10 -66 rrcurveto
            -59 -370 74 0 59 370 rlineto
            14 88 -45 82 -106 0 -97 0 -53 -10 -95 -34 -23 27 -35 17 -49 0 -108 0 -54 -13 -118 -44 rrcurveto
            return
          </CharString>
          <CharString index="239">
            74 0 68 429 rlineto
            94 33 37 4 71 0 51 0 34 -30 -10 -66 rrcurveto
            -59 -370 74 0 59 370 rlineto
            14 88 -45 82 -106 0 -108 0 -54 -13 -118 -44 rrcurveto
            return
          </CharString>
          <CharString index="240">
            74 0 68 429 rlineto
            105 37 74 6 100 -9 rrcurveto
            12 75 rlineto
            -161 14 -69 -21 -127 -48 rrcurveto
            return
          </CharString>
          <CharString index="241">
            -33 -224 74 -55 111 0 rrcurveto
            255 17 61 476 rlineto
            -38 13 -84 35 -96 0 -158 0 -66 -62 -26 -200 rrcurveto
            return
          </CharString>
          <CharString index="242">
            21 166 43 37 104 0 39 0 56 -11 54 -11 rrcurveto
            -49 -368 rlineto
            0 -116 -6 -74 vhcurveto
            -74 0 -23 42 19 151 rrcurveto
            return
          </CharString>
          <CharString index="243">
            -14 -88 46 -82 106 0 108 0 72 1 94 26 rrcurveto
            81 513 -74 0 -72 -454 rlineto
            -48 -7 -79 -5 -71 0 -51 0 -34 30 10 66 rrcurveto
            59 370 -74 0 rlineto
            return
          </CharString>
          <CharString index="244">
            46 -4 105 -19 106 0 131 0 72 83 24 186 20 159 -14 119 -146 0 -45 0 -80 -13 -68 -26 rrcurveto
            46 289 -74 0 rlineto
            return
          </CharString>
          <CharString index="245">
            59 374 rlineto
            86 21 31 4 74 0 114 0 -22 -117 -14 -87 -10 -63 -24 -132 -107 0 rrcurveto
            return
          </CharString>
          <CharString index="246">
            -23 -179 53 -90 112 0 106 0 110 19 48 4 rrcurveto
            123 774 -74 0 -46 -289 rlineto
            -60 26 -76 13 -45 0 -153 0 -55 -116 -20 -162 rrcurveto
            return
          </CharString>
          <CharString index="247">
            14 87 14 117 114 0 74 0 30 -4 80 -21 rrcurveto
            -60 -374 -187 0 rlineto
            -107 0 18 132 10 63 rrcurveto
            return
          </CharString>
          <CharString index="248">
            73 0 72 457 158 0 12 74 -156 0 16 99 rlineto
            8 48 7 34 64 0 rrcurveto
            0 142 -1 1 vhcurveto
            8 51 rlineto
            -47 15 -61 9 -49 0 -120 0 -19 -102 -9 -54 rrcurveto
            return
          </CharString>
          <CharString index="249">
            74 0 48 301 rlineto
            60 -26 75 -13 45 0 160 0 48 104 21 174 18 150 -30 119 -130 0 -106 0 -111 -19 -48 -4 rrcurveto
            return
          </CharString>
          <CharString index="250">
            59 374 187 0 rlineto
            107 0 -17 -132 -10 -63 -14 -87 -15 -117 -114 0 -74 0 -29 4 -80 21 rrcurveto
            return
          </CharString>
          <CharString index="251">
            -22 -141 47 -48 77 0 rrcurveto
            88 0 8 53 rlineto
            -7 -79 21 0 hvcurveto
            -33 8 -19 20 14 87 rrcurveto
            42 268 155 0 12 74 -155 0 23 148 -74 0 rlineto
            return
          </CharString>
        <CharString name=".notdef">
          195 0 13 505 13 hstem
          100 14 530 14 vstem
          100 hmoveto
          558 531 -558 hlineto
          14 -509 rmoveto
          0 485 256 -241 rlineto
          -246 252 rmoveto
          511 0 -254 -242 rlineto
          -254 -263 rmoveto
          254 243 253 -243 rlineto
          -242 253 rmoveto
          252 240 0 -481 rlineto
          endchar
        </CharString>
        <CharString name="A">
          97 21 -21 204 74 454 -20 hstem
          45 hmoveto
          -70 callsubr
          -157 -454 rmoveto
          -69 callsubr
          endchar
        </CharString>
        <CharString name="AE">
          358 21 -21 12 57 161 74 14 79 -69 59 270 75 -75 59 hstemhm
          hintmask 10100000
          30 hmoveto
          85 0 151 230 201 0 -16 -109 rlineto
          -14 -94 64 -36 66 4 rrcurveto
          hintmask 01110000
          310 17 10 57 -307 0 rlineto
          -29 0 -34 -1 8 53 rrcurveto
          31 197 rlineto
          hintmask 00101000
          332 10 9 59 rlineto
          hintmask 00110100
          -328 10 33 207 rlineto
          6 27 4 26 48 0 rrcurveto
          hintmask 00100010
          320 0 9 59 rlineto
          hintmask 10100100
          -317 16 rlineto
          -83 0 -70 16 -95 -144 rrcurveto
          -111 -300 rmoveto
          223 336 -56 -336 rlineto
          endchar
        </CharString>
        <CharString name="Aacute">
          97 0 21 183 74 434 20 65 133 hstem
          442.958999634 223 vstem
          442.958984375 797 rmoveto
          19 callsubr
          -525.958984375 -930 rmoveto
          -70 callsubr
          -157 -454 rmoveto
          -69 callsubr
          endchar
        </CharString>
        <CharString name="Abreve">
          97 0 21 183 74 434 20 65 46 hstem
          382.024993896 46 135 46 vstem
          382.025390625 911 rmoveto
          61 callsubr
          -383.025390625 -911 rmoveto
          -70 callsubr
          -157 -454 rmoveto
          -69 callsubr
          endchar
        </CharString>
        <CharString name="Acircumflex">
          97 0 21 183 74 434 20 65 130 hstem
          331.458999634 292 vstem
          331.458984375 797 rmoveto
          30 callsubr
          -424.458984375 -927 rmoveto
          -70 callsubr
          -157 -454 rmoveto
          -69 callsubr
          endchar
        </CharString>
        <CharString name="Adieresis">
          97 0 21 183 74 434 20 65 101 hstem
          307.541000366 101 154 101 vstem
          307.541015625 848 rmoveto
          10 callsubr
          255 hmoveto
          10 callsubr
          -517.541015625 -848 rmoveto
          -70 callsubr
          -157 -454 rmoveto
          -69 callsubr
          endchar
        </CharString>
        <CharString name="Agrave">
          97 0 21 183 74 434 20 65 133 hstem
          318.958999634 193 vstem
          318.958984375 930 rmoveto
          -33 callsubr
          -360.958984375 -930 rmoveto
          -70 callsubr
          -157 -454 rmoveto
          -69 callsubr
          endchar
        </CharString>
        <CharString name="Amacron">
          97 0 21 183 74 434 20 65 63 hstem
          331.451004028 302 vstem
          331.451171875 797 rmoveto
          14 callsubr
          -296.451171875 -860 rmoveto
          -70 callsubr
          -157 -454 rmoveto
          -69 callsubr
          endchar
        </CharString>
        <CharString name="Aogonek">
          195 -181 60 101 20 0 21 183 74 434 20 hstemhm
          hintmask 11000000
          693 hmoveto
          62 callsubr
          hintmask 00111000
          -585 hmoveto
          -70 callsubr
          -157 -454 rmoveto
          -69 callsubr
          endchar
        </CharString>
        <CharString name="Aring">
          97 0 21 183 74 434 20 -1.83299255371 48 109 48 hstemhm
          382.908004761 203 hintmask 00011100
          382.908203125 832.166992188 rmoveto
          -4.9873046875 -57 42.0634765625 -45 56 0 56 0 48.9365234375 45 4.9873046875 57 4.9853515625 57 -40.974609375 46 -56 0 -56 0 -50.025390625 -46 -4.9853515625 -57 rrcurveto
          47 hmoveto
          35 callsubr
          hintmask 11100000
          -384.908203125 -832.166992188 rmoveto
          -70 callsubr
          -157 -454 rmoveto
          -69 callsubr
          endchar
        </CharString>
        <CharString name="Atilde">
          97 0 21 183 74 434 20 66 70 -36 70 hstemhm
          hintmask 00001000
          314.19921875 838 rmoveto
          31 callsubr
          hintmask 00010000
          32 callsubr
          hintmask 00001000
          -15 42 rlineto
          hintmask 00010000
          33 callsubr
          hintmask 00001000
          34 callsubr
          hintmask 11100000
          -269.19921875 -838 rmoveto
          -70 callsubr
          -157 -454 rmoveto
          -69 callsubr
          endchar
        </CharString>
        <CharString name="B">
          34 0 74 273 74 237 74 hstem
          80 hmoveto
          -68 callsubr
          -29 -658 rmoveto
          -67 callsubr
          -153 347 rmoveto
          -66 callsubr
          endchar
        </CharString>
        <CharString name="C">
          15 -6 74 598 74 hstem
          115 368 rmoveto
          -65 callsubr
          endchar
        </CharString>
        <CharString name="Cacute">
          15 -6 74 598 74 60 133 hstem
          409.167007446 223 vstem
          409.166992188 800 rmoveto
          19 callsubr
          -422.166992188 -565 rmoveto
          -65 callsubr
          endchar
        </CharString>
        <CharString name="Ccaron">
          15 -6 74 598 74 60 130 hstem
          327.268005371 292 vstem
          327.267578125 930 rmoveto
          63 callsubr
          -277.267578125 -562 rmoveto
          -65 callsubr
          endchar
        </CharString>
        <CharString name="Ccedilla">
          15 -173 37 130 74 598 74 hstem
          296 67 vstem
          115 368 rmoveto
          -28 -170 26 -204 189 0 65 0 99 0 85 23 rrcurveto
          8 59 rlineto
          -142 -10 -67 -1 -44 3 -117 9 -26 127 28 162 48 304 113 -5 55 1 95 2 123 -14 22 -3 rrcurveto
          9 59 rlineto
          -68 13 -120 17 -52 0 -199 0 -63 -138 -39 -234 rrcurveto
          74 -541 rmoveto
          51 hlineto
          80 0 27 34 16 102 0 0 -39 -1 -28 1 -6 -38 -9 -38 -31 -8 rrcurveto
          -55 -15 rlineto
          endchar
        </CharString>
        <CharString name="Ccircumflex">
          15 -6 74 598 74 60 130 hstem
          299.667007446 292 vstem
          299.666992188 800 rmoveto
          30 callsubr
          -322.666992188 -562 rmoveto
          -65 callsubr
          endchar
        </CharString>
        <CharString name="Cdotaccent">
          15 -6 74 598 74 60 102 hstem
          380.589996338 106 vstem
          380.58984375 823 rmoveto
          39 callsubr
          -274.58984375 -509 rmoveto
          -65 callsubr
          endchar
        </CharString>
        <CharString name="D">
          105 0 77 581 74 hstem
          80 hmoveto
          -64 callsubr
          -30 -654 rmoveto
          -63 callsubr
          endchar
        </CharString>
        <CharString name="Dcaron">
          105 0 77 581 74 60 130 hstem
          340 292 vstem
          340 922 rmoveto
          63 callsubr
          -309 -922 rmoveto
          -64 callsubr
          -30 -654 rmoveto
          -63 callsubr
          endchar
        </CharString>
        <CharString name="Dcroat">
          105 0 77 269 54 258 74 hstem
          93 346 rmoveto
          36 callsubr
          87 -323 rmoveto
          37 callsubr
          endchar
        </CharString>
        <CharString name="E">
          4 14 57 252 79 -69 59 266 58 hstemhm
          hintmask 11010000
          98 123 rmoveto
          -62 callsubr
          hintmask 10110000
          -61 callsubr
          hintmask 11010000
          -60 callsubr
          endchar
        </CharString>
        <CharString name="Eacute">
          4 14 57 252 79 -69 59 266 58 76 133 hstemhm
          398 223 hintmask 00001100
          398 792 rmoveto
          19 callsubr
          hintmask 11010000
          -428 -802 rmoveto
          -62 callsubr
          hintmask 10110000
          -61 callsubr
          hintmask 11010000
          -60 callsubr
          endchar
        </CharString>
        <CharString name="Ecaron">
          4 14 57 252 79 -69 59 266 58 81 130 hstemhm
          327.921005249 292 hintmask 00001100
          327.920898438 927 rmoveto
          63 callsubr
          hintmask 11010000
          -294.920898438 -804 rmoveto
          -62 callsubr
          hintmask 10110000
          -61 callsubr
          hintmask 11010000
          -60 callsubr
          endchar
        </CharString>
        <CharString name="Ecircumflex">
          4 14 57 252 79 -69 59 266 58 76 131 hstemhm
          285 292 hintmask 00001100
          285 792 rmoveto
          -34 callsubr
          hintmask 11010000
          -325 -800 rmoveto
          -62 callsubr
          hintmask 10110000
          -61 callsubr
          hintmask 11010000
          -60 callsubr
          endchar
        </CharString>
        <CharString name="Edieresis">
          4 14 57 252 79 -69 59 266 58 76 101 hstemhm
          254 101 154 101 hintmask 00001110
          254 843 rmoveto
          10 callsubr
          255 hmoveto
          10 callsubr
          hintmask 11010000
          -411 -720 rmoveto
          -62 callsubr
          hintmask 10110000
          -61 callsubr
          hintmask 11010000
          -60 callsubr
          endchar
        </CharString>
        <CharString name="Edotaccent">
          4 14 57 252 79 -69 59 266 58 81 102 hstemhm
          395.242996216 106 hintmask 00001100
          395.243164062 820 rmoveto
          39 callsubr
          hintmask 11010000
          -306.243164062 -751 rmoveto
          -62 callsubr
          hintmask 10110000
          -61 callsubr
          hintmask 11010000
          -60 callsubr
          endchar
        </CharString>
        <CharString name="Egrave">
          4 14 57 252 79 -69 59 266 58 76 133 hstemhm
          279 193 hintmask 00001100
          279 925 rmoveto
          -33 callsubr
          hintmask 11010000
          -268 -802 rmoveto
          -62 callsubr
          hintmask 10110000
          -61 callsubr
          hintmask 11010000
          -60 callsubr
          endchar
        </CharString>
        <CharString name="Emacron">
          4 14 57 252 79 -69 59 266 58 76 63 hstemhm
          278 302 hintmask 00001100
          278 792 rmoveto
          14 callsubr
          hintmask 11010000
          -190 -732 rmoveto
          -62 callsubr
          hintmask 10110000
          -61 callsubr
          hintmask 11010000
          -60 callsubr
          endchar
        </CharString>
        <CharString name="Eng">
          97 -257 57 221 -21 732 -20 hstem
          80 hmoveto
          75 0 94 594 277 -588 -12 -76 rlineto
          -19 -120 -81 6 -61 -16 rrcurveto
          -9 -57 rlineto
          118 0 100 21 24 152 rrcurveto
          14 88 115 728 -74 0 -94 -594 -279 594 -72 0 rlineto
          endchar
        </CharString>
        <CharString name="Eogonek">
          -1 -167 60 101 20 0 57 252 79 -69 59 266 58 hstemhm
          hintmask 11000000
          490 14 rmoveto
          62 callsubr
          hintmask 00110100
          -426 109 rmoveto
          -62 callsubr
          hintmask 00101100
          -61 callsubr
          hintmask 00110100
          -60 callsubr
          endchar
        </CharString>
        <CharString name="Eth">
          105 0 77 269 54 258 74 hstem
          69 346 rmoveto
          36 callsubr
          87 -323 rmoveto
          37 callsubr
          endchar
        </CharString>
        <CharString name="Euro">
          155 -6 74 187 47 108 60 -52 43 205 74 hstemhm
          hintmask 11101000
          70 255 rmoveto
          87 -7 rlineto
          -36 -226 153 -28 77 0 83 0 86 12 85 23 rrcurveto
          9 56 rlineto
          0 -155 -17 -97 vhcurveto
          -94 0 -62 35 25 145 -3 2 238 5 0 0 rrcurveto
          7 47 -232 7 16 101 235 7 7 46 -233 7 rlineto
          18 100 24 96 149 0 rrcurveto
          82 161 -15 0 hvcurveto
          9 59 rlineto
          -68 13 -120 17 -52 0 -244 0 -22 -198 -11 -72 rrcurveto
          hintmask 11011000
          -89 -9 -7 -43 rlineto
          hintmask 11101000
          87 -8 -16 -101 -90 -7 rlineto
          endchar
        </CharString>
        <CharString name="Euro.smcp">
          -48 -5 75 129 47 70 44 143 74 hstem
          47 199 rmoveto
          68 -6 rlineto
          -28 -176 125 -22 64 0 65 0 77 10 66 18 rrcurveto
          10 61 rlineto
          0 -129 -14 -83 vhcurveto
          -60 0 -52 19 19 104 -2 2 189 4 0 0 rrcurveto
          7 47 -184 5 9 59 186 5 8 46 -185 6 rlineto
          9 47 16 89 114 0 rrcurveto
          64 136 -11 0 hvcurveto
          9 62 rlineto
          -53 10 -103 13 -41 0 -195 0 -22 -154 -9 -56 rrcurveto
          -70 -7 -6 -44 67 -6 -9 -59 -70 -5 rlineto
          endchar
        </CharString>
        <CharString name="F">
          5 21 -21 323 79 -69 59 266 58 hstemhm
          hintmask 11010000
          80 hmoveto
          74 0 51 323 rlineto
          hintmask 10110000
          331 10 9 59 rlineto
          hintmask 11010000
          -59 callsubr
          endchar
        </CharString>
        <CharString name="G">
          46 -7 74 -46 -21 314 75 -75 50 301 74 hstemhm
          508 57 hintmask 10001100
          117 367 rmoveto
          -58 callsubr
          hintmask 01101100
          -57 callsubr
          hintmask 00011100
          -56 callsubr
          hintmask 10101100
          -55 callsubr
          endchar
        </CharString>
        <CharString name="Gbreve">
          46 -7 74 -67 21 293 50 -50 75 276 74 60.0420074463 46 hstemhm
          335.393005371 46 126.606994629 57 -48.6069946289 46 hintmask 0000001010000000
          335.392578125 913.041992188 rmoveto
          61 callsubr
          hintmask 1000100100000000
          -264.392578125 -546.041992188 rmoveto
          -58 callsubr
          hintmask 0101100100000000
          -57 callsubr
          hintmask 0010100100000000
          -56 callsubr
          hintmask 1001100100000000
          -55 callsubr
          endchar
        </CharString>
        <CharString name="Gcircumflex">
          46 -7 74 -67 21 293 50 -50 75 276 74 60.0420074463 130 hstemhm
          284.82800293 292 -68.8280029297 57 hintmask 00000010
          284.828125 799.041992188 rmoveto
          30 callsubr
          hintmask 10001001
          -305.828125 -562.041992188 rmoveto
          -58 callsubr
          hintmask 01011001
          -57 callsubr
          hintmask 00101001
          -56 callsubr
          hintmask 10011001
          -55 callsubr
          endchar
        </CharString>
        <CharString name="Gcommaaccent">
          46 -249.199996948 28.8000030518 213.399993896 74 -67 21 293 50 -50 75 276 74 hstemhm
          269.399993896 108.899993896 129.700012207 57 hintmask 10000010
          269.400390625 -249.200195312 rmoveto
          76 callsubr
          hintmask 01000101
          -156.900390625 587.400390625 rmoveto
          -58 callsubr
          hintmask 00101101
          -57 callsubr
          hintmask 00010101
          -56 callsubr
          hintmask 01001101
          -55 callsubr
          endchar
        </CharString>
        <CharString name="Gdotaccent">
          46 -7 74 -67 21 293 50 -50 75 276 74 61 102 hstemhm
          391 106 11 57 hintmask 00000110
          391 823 rmoveto
          39 callsubr
          hintmask 10001001
          -283 -510 rmoveto
          -58 callsubr
          hintmask 01011001
          -57 callsubr
          hintmask 00101001
          -56 callsubr
          hintmask 10011001
          -55 callsubr
          endchar
        </CharString>
        <CharString name="H">
          81 21 -21 317 74 341 -20 hstem
          85 hmoveto
          -54 callsubr
          endchar
        </CharString>
        <CharString name="Hbar">
          76 21 -21 318 75 124 55 160 -20 hstem
          85 hmoveto
          74 0 52 318 350 0 -52 -318 74 0 82 517 59 0 8 55 -59 0 26 160 -74 0 -26 -160 -350 0 26 160 -74 0 rlineto
          -26 -160 -61 0 -8 -55 61 0 rlineto
          54 -124 rmoveto
          20 124 350 0 -20 -124 rlineto
          endchar
        </CharString>
        <CharString name="Hcircumflex">
          81 0 21 296 74 321 20 65 130 hstem
          314.458999634 292 vstem
          314.458984375 797 rmoveto
          30 callsubr
          -367.458984375 -927 rmoveto
          -54 callsubr
          endchar
        </CharString>
        <CharString name="I">
          -338 21 -21 732 -20 hstem
          90 190 vstem
          90 hmoveto
          -53 callsubr
          endchar
        </CharString>
        <CharString name="Iacute">
          -338 0 21 691 20 65 133 hstemhm
          90 190 -61.0410003662 223 hintmask 00101000
          218.958984375 797 rmoveto
          19 callsubr
          hintmask 11010000
          -256.958984375 -930 rmoveto
          -53 callsubr
          endchar
        </CharString>
        <CharString name="Icircumflex">
          -338 0 21 691 20 65 130 hstemhm
          90 190 -172.541000366 292 hintmask 00101000
          107.458984375 797 rmoveto
          30 callsubr
          hintmask 11010000
          -155.458984375 -927 rmoveto
          -53 callsubr
          endchar
        </CharString>
        <CharString name="Idieresis">
          -338 0 21 691 20 65 101 hstemhm
          83.5410003662 101 -94.5410003662 190 58.5410003662 101 hintmask 00110100
          83.541015625 848 rmoveto
          10 callsubr
          255 hmoveto
          10 callsubr
          hintmask 11001000
          -248.541015625 -848 rmoveto
          -53 callsubr
          endchar
        </CharString>
        <CharString name="Idotaccent">
          -338 0 21 691 20 65 102 hstemhm
          90 190 -71.6170043945 106 hintmask 00100000
          208.3828125 820 rmoveto
          39 callsubr
          hintmask 11010000
          -127.3828125 -874 rmoveto
          -53 callsubr
          endchar
        </CharString>
        <CharString name="Idotaccent.smcp">
          -349 21 -21 632 102 hstem
          151 106 vstem
          60 hmoveto
          104 callsubr
          1 85 rmoveto
          39 callsubr
          endchar
        </CharString>
        <CharString name="Igrave">
          -338 0 21 691 20 65 133 hstemhm
          90 190 -185.041000366 193 hintmask 00101000
          94.958984375 930 rmoveto
          -33 callsubr
          hintmask 11010000
          -91.958984375 -930 rmoveto
          -53 callsubr
          endchar
        </CharString>
        <CharString name="Imacron">
          -338 0 21 691 20 60 63 hstemhm
          42 190 -184 302 hintmask 00101000
          48 792 rmoveto
          14 callsubr
          hintmask 11010000
          -16 -855 rmoveto
          -53 callsubr
          endchar
        </CharString>
        <CharString name="Iogonek">
          -338 -180.92300415 60 101.00050354 20 -0.0774993896484 21 691 20 hstemhm
          90 190 hintmask 00000000
          109.837890625 0.0771484375 rmoveto
          62 callsubr
          hintmask 00111000
          -58.837890625 -0.0771484375 rmoveto
          -53 callsubr
          endchar
        </CharString>
        <CharString name="Itilde">
          -338 0 21 691 20 66 70 -36 70 hstemhm
          90 190 hintmask 00010000
          90.19921875 838 rmoveto
          31 callsubr
          hintmask 00100000
          32 callsubr
          hintmask 00010000
          -15 42 rlineto
          hintmask 00100000
          33 callsubr
          hintmask 00010000
          34 callsubr
          hintmask 11001000
          -0.19921875 -838 rmoveto
          -53 callsubr
          endchar
        </CharString>
        <CharString name="J">
          -203 21 54 657 -20 hstem
          38 21 rmoveto
          -52 callsubr
          endchar
        </CharString>
        <CharString name="Jcircumflex">
          -203 21 54 637 20 65 130 hstem
          242.458999634 292 vstem
          242.458984375 797 rmoveto
          30 callsubr
          -342.458984375 -906 rmoveto
          -52 callsubr
          endchar
        </CharString>
        <CharString name="K">
          9 21 -21 330 74 328 -20 hstem
          80 hmoveto
          -51 callsubr
          endchar
        </CharString>
        <CharString name="Kcommaaccent">
          9 -244.199996948 28.8000030518 215.399993896 21 309 74 308 20 hstem
          234.399993896 108.899993896 vstem
          hintmask 00000000
          234.400390625 -244.200195312 rmoveto
          76 callsubr
          -158.900390625 215.400390625 rmoveto
          -51 callsubr
          endchar
        </CharString>
        <CharString name="L">
          -28 0 74 658 -20 hstem
          99 126 rmoveto
          -50 callsubr
          endchar
        </CharString>
        <CharString name="Lacute">
          -28 0 74 638 20 60 133 hstem
          148 223 vstem
          148 792 rmoveto
          19 callsubr
          -239 -799 rmoveto
          -50 callsubr
          endchar
        </CharString>
        <CharString name="Lcaron">
          -28 0 74 658 -20 hstem
          99 126 rmoveto
          -15 -94 63.9920043945 -32 67.0079956055 0 rrcurveto
          308 0 11 74 -306 0 rlineto
          -29 0 -34 -1 8 53 rrcurveto
          97 606 -73 0 rlineto
          130 -161 rmoveto
          64 callsubr
          endchar
        </CharString>
        <CharString name="Lcommaaccent">
          -28 -244.199996948 28.8000030518 215.399993896 74 638 20 hstem
          239.399993896 108.899993896 vstem
          hintmask 00000000
          239.400390625 -244.200195312 rmoveto
          76 callsubr
          -144.900390625 341.400390625 rmoveto
          -50 callsubr
          endchar
        </CharString>
        <CharString name="Lslash">
          -28 0 74 658 -20 hstem
          44 320 rmoveto
          90 37 -37 -231 rlineto
          -15 -94 63.9920043945 -32 67.0079956055 0 rrcurveto
          307 0 12 74 -307 0 rlineto
          -29 0 -33 -1 8 53 rrcurveto
          42 263 147 60 11 60 -149 -60 45 283 -73 0 -50 -315 -90 -36 rlineto
          endchar
        </CharString>
        <CharString name="M">
          239 21 -21 732 -20 hstem
          71 hmoveto
          -49 callsubr
          endchar
        </CharString>
        <CharString name="M.salt">
          237 21 -21 hstem
          55 hmoveto
          130 callsubr
          endchar
        </CharString>
        <CharString name="N">
          97 21 -21 732 -20 hstem
          80 hmoveto
          -48 callsubr
          endchar
        </CharString>
        <CharString name="N.salt">
          112 21 -21 732 -20 hstem
          80 hmoveto
          129 callsubr
          endchar
        </CharString>
        <CharString name="Nacute">
          97 0 21 691 20 65 133 hstem
          431.458999634 223 vstem
          431.458984375 797 rmoveto
          19 callsubr
          -479.458984375 -930 rmoveto
          -48 callsubr
          endchar
        </CharString>
        <CharString name="Nacute.salt">
          112 0 21 691 20 65 133 hstem
          447 223 vstem
          447 797 rmoveto
          19 callsubr
          -495 -930 rmoveto
          129 callsubr
          endchar
        </CharString>
        <CharString name="Ncaron">
          97 0 21 691 20 65 130 hstem
          340.559997559 292 vstem
          340.559570312 927 rmoveto
          63 callsubr
          -325.559570312 -927 rmoveto
          -48 callsubr
          endchar
        </CharString>
        <CharString name="Ncaron.salt">
          112 0 21 691 20 65 130 hstem
          374 292 vstem
          374 927 rmoveto
          63 callsubr
          -359 -927 rmoveto
          129 callsubr
          endchar
        </CharString>
        <CharString name="Ncommaaccent">
          97 -244.199996948 28.8000030518 215.399993896 21 691 20 hstem
          280.399993896 108.899993896 vstem
          hintmask 00000000
          280.400390625 -244.200195312 rmoveto
          76 callsubr
          -204.900390625 215.400390625 rmoveto
          -48 callsubr
          endchar
        </CharString>
        <CharString name="Ncommaaccent.salt">
          112 -251.199996948 28.8000030518 222.399993896 21 691 20 hstem
          264.399993896 108.899993896 vstem
          hintmask 00000000
          264.400390625 -251.200195312 rmoveto
          76 callsubr
          -188.900390625 222.400390625 rmoveto
          129 callsubr
          endchar
        </CharString>
        <CharString name="Ntilde">
          97 0 21 691 20 61 70 -36 70 hstemhm
          hintmask 00010000
          295 833 rmoveto
          31 callsubr
          hintmask 00100000
          32 callsubr
          hintmask 00010000
          -15 42 rlineto
          hintmask 00100000
          33 callsubr
          hintmask 00010000
          34 callsubr
          hintmask 11000000
          -215 -833 rmoveto
          -48 callsubr
          endchar
        </CharString>
        <CharString name="Ntilde.salt">
          112 0 21 691 20 66 70 -36 70 hstemhm
          hintmask 00010000
          283 838 rmoveto
          31 callsubr
          hintmask 00100000
          32 callsubr
          hintmask 00010000
          -15 42 rlineto
          hintmask 00100000
          33 callsubr
          hintmask 00010000
          34 callsubr
          hintmask 11000000
          -203 -838 rmoveto
          129 callsubr
          endchar
        </CharString>
        <CharString name="O">
          104 -4 74 593 74 hstem
          115 361 rmoveto
          -47 callsubr
          74 hmoveto
          -46 callsubr
          endchar
        </CharString>
        <CharString name="OE">
          513 -4 74 -56 57 252 79 -69 59 266 58 -53 74 hstemhm
          hintmask 10000000
          104 361 rmoveto
          -53 -333 126 -32 162 0 92 0 74 12 56 59 14 -52 50 -21 51 3 rrcurveto
          hintmask 01100000
          309 17 10 57 -307 0 rlineto
          -29 0 -33 -1 7 53 rrcurveto
          32 200 rlineto
          hintmask 00010000
          331 10 9 59 rlineto
          hintmask 00101000
          -327 10 31 200 rlineto
          4 27 9 29 48 0 rrcurveto
          317 0 9 58 -314 16 rlineto
          -60 3 -48 -15 -24 -65 rrcurveto
          hintmask 10000100
          -41 68 -76 14 -96 0 rrcurveto
          -175 0 -104 -33 -54 -343 rrcurveto
          74 hmoveto
          -46 callsubr
          endchar
        </CharString>
        <CharString name="Oacute">
          104 -4 74 593 74 60 133 hstem
          423.167007446 223 vstem
          423.166992188 797 rmoveto
          19 callsubr
          -436.166992188 -569 rmoveto
          -47 callsubr
          74 hmoveto
          -46 callsubr
          endchar
        </CharString>
        <CharString name="Ocircumflex">
          104 -4 74 593 74 60 130 hstem
          311.667007446 292 vstem
          311.666992188 797 rmoveto
          30 callsubr
          -334.666992188 -566 rmoveto
          -47 callsubr
          74 hmoveto
          -46 callsubr
          endchar
        </CharString>
        <CharString name="Odieresis">
          104 -4 74 593 74 60 101 hstem
          287.74899292 101 154 101 vstem
          287.749023438 848 rmoveto
          10 callsubr
          255 hmoveto
          10 callsubr
          -427.749023438 -487 rmoveto
          -47 callsubr
          74 hmoveto
          -46 callsubr
          endchar
        </CharString>
        <CharString name="Ograve">
          104 -4 74 593 74 60 133 hstem
          299.167007446 193 vstem
          299.166992188 930 rmoveto
          -33 callsubr
          -271.166992188 -569 rmoveto
          -47 callsubr
          74 hmoveto
          -46 callsubr
          endchar
        </CharString>
        <CharString name="Ohungarumlaut">
          104 -4 74 593 74 60 133 hstem
          355.666992188 797 rmoveto
          19 callsubr
          7 -133 rmoveto
          19 callsubr
          -503.666992188 -569 rmoveto
          -47 callsubr
          74 hmoveto
          -46 callsubr
          endchar
        </CharString>
        <CharString name="Omacron">
          104 -4 74 593 74 55 63 hstem
          319 302 vstem
          319 792 rmoveto
          14 callsubr
          -214 -494 rmoveto
          -47 callsubr
          74 hmoveto
          -46 callsubr
          endchar
        </CharString>
        <CharString name="Omega">
          214 0 67 598 74 hstem
          71 hmoveto
          220 0 13 78 rlineto
          -130 116 4 54 21 132 23 148 85 137 188 0 200 0 24 -135 -23 -145 -21 -133 -19 -80 -157 -94 rrcurveto
          -13 -78 228 0 11 67 -127 10 rlineto
          131 83 22 106 19 117 29 182 -66 174 -226 0 -262 0 -89 -198 -29 -153 -14 -73 -24 -137 128 -100 rrcurveto
          -135 -10 rlineto
          endchar
        </CharString>
        <CharString name="Oslash">
          104 -4 74 593 74 hstem
          69 hmoveto
          61 0 33 41 rlineto
          45 -38 66 -7 73 0 173 0 109 42 49 323 23 151 -10 91 -34 55 rrcurveto
          59 74 -61 0 -30 -38 rlineto
          -43 35 -63 8 -74 0 -175 0 -104 -33 -54 -343 -23 -142 10 -88 32 -53 rrcurveto
          55 283 rmoveto
          47 299 77 3 133 0 55 0 48 -1 31 -27 rrcurveto
          -393 -491 rlineto
          -15 43 0 68 17 106 rrcurveto
          25 -259 rmoveto
          394 491 rlineto
          16 -44 1 -71 -18 -117 -39 -249 -74 -42 -142 0 -63 0 -46 6 -29 26 rrcurveto
          endchar
        </CharString>
        <CharString name="Otilde">
          104 -4 74 593 74 61 70 -36 70 hstemhm
          hintmask 00010000
          294.407226562 838 rmoveto
          31 callsubr
          hintmask 00100000
          32 callsubr
          hintmask 00010000
          -15 42 rlineto
          hintmask 00100000
          33 callsubr
          hintmask 00010000
          34 callsubr
          hintmask 11000000
          -179.407226562 -477 rmoveto
          -47 callsubr
          74 hmoveto
          -46 callsubr
          endchar
        </CharString>
        <CharString name="P">
          32 21 -21 298 74 -57 57 285 75 hstemhm
          hintmask 10110000
          75 hmoveto
          74 0 51 315 rlineto
          hintmask 11010000
          -45 callsubr
          hintmask 10110000
          17 -360 rmoveto
          -44 callsubr
          hintmask 11010000
          -21 -133 -52 -15 -52 0 rrcurveto
          endchar
        </CharString>
        <CharString name="Q">
          108 -4 74 593 74 hstem
          119 361 rmoveto
          -47 callsubr
          74 hmoveto
          -46 callsubr
          116 -394 rmoveto
          -43 callsubr
          endchar
        </CharString>
        <CharString name="R">
          47 21 -21 308 64 285 75 hstem
          75 hmoveto
          -42 callsubr
          18 -360 rmoveto
          -41 callsubr
          endchar
        </CharString>
        <CharString name="Racute">
          47 0 21 287 64 285 75 65 133 hstem
          382.958999634 223 vstem
          382.958984375 797 rmoveto
          19 callsubr
          -435.958984375 -930 rmoveto
          -42 callsubr
          18 -360 rmoveto
          -41 callsubr
          endchar
        </CharString>
        <CharString name="Rcaron">
          47 0 21 287 64 285 75 65 130 hstem
          297.059997559 292 vstem
          297.059570312 927 rmoveto
          63 callsubr
          -287.059570312 -927 rmoveto
          -42 callsubr
          18 -360 rmoveto
          -41 callsubr
          endchar
        </CharString>
        <CharString name="Rcommaaccent">
          47 -244.199996948 28.8000030518 215.399993896 21 287 64 285 75 hstem
          256.399993896 108.899993896 vstem
          hintmask 00000000
          256.400390625 -244.200195312 rmoveto
          76 callsubr
          -185.900390625 215.400390625 rmoveto
          -42 callsubr
          18 -360 rmoveto
          -41 callsubr
          endchar
        </CharString>
        <CharString name="S">
          8 -8 74 256 74 268 74 hstem
          79 16 rmoveto
          -40 callsubr
          endchar
        </CharString>
        <CharString name="Sacute">
          8 -8 74 256 74 268 74 60 133 hstem
          370 223 vstem
          370 798 rmoveto
          19 callsubr
          -431 -915 rmoveto
          -40 callsubr
          endchar
        </CharString>
        <CharString name="Scaron">
          8 -8 74 256 74 268 74 60.3739929199 130 hstem
          298.824996948 292 vstem
          298.825195312 928.374023438 rmoveto
          63 callsubr
          -284.825195312 -912.374023438 rmoveto
          -40 callsubr
          endchar
        </CharString>
        <CharString name="Scedilla">
          8 -181 37 136 74 256 74 268 74 hstem
          278 67 vstem
          171 -181 rmoveto
          20 callsubr
          -98 160 rmoveto
          -40 callsubr
          endchar
        </CharString>
        <CharString name="Scircumflex">
          8 -8 74 256 74 268 74 60.3739929199 130 hstem
          263.223999023 292 vstem
          263.223632812 798.374023438 rmoveto
          30 callsubr
          -322.223632812 -912.374023438 rmoveto
          -40 callsubr
          endchar
        </CharString>
        <CharString name="T">
          16 21 -21 658 74 hstem
          139 658 rmoveto
          -39 callsubr
          endchar
        </CharString>
        <CharString name="Tbar">
          16 21 -21 390 54 214 74 hstem
          139 658 rmoveto
          214 0 -34 -214 -120 0 -8 -54 120 0 -62 -390 74 0 62 390 120 0 8 54 -120 0 34 214 220 0 12 74 -508 0 rlineto
          endchar
        </CharString>
        <CharString name="Tcaron">
          16 0 21 637 74 65 130 hstem
          290.059997559 292 vstem
          290.059570312 927 rmoveto
          63 callsubr
          -216.059570312 -269 rmoveto
          -39 callsubr
          endchar
        </CharString>
        <CharString name="Tcommaaccent">
          16 -185 37 148 21 637 74 hstem
          226 67 vstem
          119 -185 rmoveto
          20 callsubr
          -6 806 rmoveto
          -39 callsubr
          endchar
        </CharString>
        <CharString name="Thorn">
          -8 21 -21 154 74 285 75 hstem
          60 hmoveto
          74 0 28 174 rlineto
          62 -21 95 1 40 0 87 0 95 11 25 210 22 180 -103 33 -61 0 rrcurveto
          -197 0 22 141 -74 0 rlineto
          -38 -243 -39 -243 -38 -243 rrcurveto
          110 228 rmoveto
          45 285 197 0 rlineto
          30 0 67 -5 -19 -131 -21 -133 -42 -16 -60 0 rrcurveto
          endchar
        </CharString>
        <CharString name="U">
          93 -5 74 663 -20 hstem
          127 302 rmoveto
          -38 callsubr
          endchar
        </CharString>
        <CharString name="Uacute">
          93 -5 74 643 20 65 133 hstem
          429.458999634 223 vstem
          429.458984375 797 rmoveto
          19 callsubr
          -430.458984375 -628 rmoveto
          -38 callsubr
          endchar
        </CharString>
        <CharString name="Ubreve">
          93 -5 74 643 20 65 46 hstem
          368.524993896 46 135 46 vstem
          368.525390625 911 rmoveto
          61 callsubr
          -287.525390625 -609 rmoveto
          -38 callsubr
          endchar
        </CharString>
        <CharString name="Ucircumflex">
          93 -5 74 643 20 65 130 hstem
          317.958999634 292 vstem
          317.958984375 797 rmoveto
          30 callsubr
          -328.958984375 -625 rmoveto
          -38 callsubr
          endchar
        </CharString>
        <CharString name="Udieresis">
          93 -5 74 643 20 65 101 hstem
          294.041000366 101 154 101 vstem
          294.041015625 848 rmoveto
          10 callsubr
          255 hmoveto
          10 callsubr
          -422.041015625 -546 rmoveto
          -38 callsubr
          endchar
        </CharString>
        <CharString name="Ugrave">
          93 -5 74 643 20 65 133 hstem
          305.458999634 193 vstem
          305.458984375 930 rmoveto
          -33 callsubr
          -265.458984375 -628 rmoveto
          -38 callsubr
          endchar
        </CharString>
        <CharString name="Uhungarumlaut">
          93 -5 74 643 20 65 133 hstem
          361.958984375 797 rmoveto
          19 callsubr
          7 -133 rmoveto
          19 callsubr
          -497.958984375 -628 rmoveto
          -38 callsubr
          endchar
        </CharString>
        <CharString name="Umacron">
          93 -5 74 643 20 65 63 hstem
          317.951004028 302 vstem
          317.951171875 797 rmoveto
          14 callsubr
          -200.951171875 -558 rmoveto
          -38 callsubr
          endchar
        </CharString>
        <CharString name="Uogonek">
          93 -180 60 101 20 -6 74 643 20 hstemhm
          hintmask 11000000
          319 1 rmoveto
          62 callsubr
          hintmask 00110000
          -231 301 rmoveto
          -38 callsubr
          endchar
        </CharString>
        <CharString name="Uring">
          93 -5 74 643 20 65 48 109 48 hstem
          378.623001099 203 vstem
          378.623046875 899 rmoveto
          65 callsubr
          47 hmoveto
          66 callsubr
          -298.623046875 -597 rmoveto
          -38 callsubr
          endchar
        </CharString>
        <CharString name="Utilde">
          93 -5 74 643 20 66 70 -36 70 hstemhm
          hintmask 00010000
          300.69921875 838 rmoveto
          31 callsubr
          hintmask 00100000
          32 callsubr
          hintmask 00010000
          -15 42 rlineto
          hintmask 00100000
          33 callsubr
          hintmask 00010000
          34 callsubr
          hintmask 11000000
          -173.69921875 -536 rmoveto
          -38 callsubr
          endchar
        </CharString>
        <CharString name="V">
          107 21 -21 732 -20 hstem
          150 732 rmoveto
          141 -732 74 0 385 732 -85 0 -321 -613 -116 613 rlineto
          endchar
        </CharString>
        <CharString name="W">
          439 21 -21 732 -20 hstem
          150 732 rmoveto
          -37 callsubr
          endchar
        </CharString>
        <CharString name="Wacute">
          439 0 21 691 20 65 133 hstem
          591.958999634 223 vstem
          591.958984375 797 rmoveto
          19 callsubr
          -569.958984375 -198 rmoveto
          -37 callsubr
          endchar
        </CharString>
        <CharString name="Wcircumflex">
          439 0 21 691 20 65 130 hstem
          480.458999634 292 vstem
          480.458984375 797 rmoveto
          30 callsubr
          -468.458984375 -195 rmoveto
          -37 callsubr
          endchar
        </CharString>
        <CharString name="Wdieresis">
          439 0 21 691 20 65 101 hstem
          456.541000366 101 154 101 vstem
          456.541015625 848 rmoveto
          10 callsubr
          255 hmoveto
          10 callsubr
          -561.541015625 -116 rmoveto
          -37 callsubr
          endchar
        </CharString>
        <CharString name="Wgrave">
          439 0 21 691 20 65 133 hstem
          467.958999634 193 vstem
          467.958984375 930 rmoveto
          -33 callsubr
          -404.958984375 -198 rmoveto
          -37 callsubr
          endchar
        </CharString>
        <CharString name="X">
          38 21 -21 732 -20 hstem
          38 hmoveto
          89 0 220 290 128 -290 78 0 -157 355 285 377 -89 0 -229 -303 -134 303 -78 0 163 -368 rlineto
          endchar
        </CharString>
        <CharString name="X.salt">
          50 21 -21 732 -20 hstem
          20 hmoveto
          89 0 215 284 rlineto
          51 67 -21 72 -29 64 rrcurveto
          -111 245 -78 0 124 -275 rlineto
          27 -60 4 -31 -45 -61 rrcurveto
          143 -21 rmoveto
          125 -284 78 0 -130 305 rlineto
          -26 61 15 31 46 60 rrcurveto
          211 275 -89 0 -189 -245 rlineto
          -50 -64 -20 -72 29 -67 rrcurveto
          endchar
        </CharString>
        <CharString name="Y">
          67 21 -21 732 -20 hstem
          150 732 rmoveto
          -36 callsubr
          endchar
        </CharString>
        <CharString name="Yacute">
          67 0 21 691 20 65 133 hstem
          405.958999634 223 vstem
          405.958984375 797 rmoveto
          19 callsubr
          -383.958984375 -198 rmoveto
          -36 callsubr
          endchar
        </CharString>
        <CharString name="Ycircumflex">
          67 0 21 691 20 65 130 hstem
          294.458999634 292 vstem
          294.458984375 797 rmoveto
          30 callsubr
          -282.458984375 -195 rmoveto
          -36 callsubr
          endchar
        </CharString>
        <CharString name="Ydieresis">
          67 0 21 691 20 60 101 hstem
          227 101 154 101 vstem
          227 843 rmoveto
          10 callsubr
          255 hmoveto
          10 callsubr
          -375 -111 rmoveto
          -36 callsubr
          endchar
        </CharString>
        <CharString name="Ygrave">
          67 0 21 691 20 65 133 hstem
          281.958999634 193 vstem
          281.958984375 930 rmoveto
          -33 callsubr
          -218.958984375 -198 rmoveto
          -36 callsubr
          endchar
        </CharString>
        <CharString name="Z">
          1 0 74 584 74 hstem
          35 hmoveto
          -35 callsubr
          endchar
        </CharString>
        <CharString name="Zacute">
          1 0 74 584 74 60 133 hstem
          476 223 vstem
          476 792 rmoveto
          19 callsubr
          -465 -925 rmoveto
          -35 callsubr
          endchar
        </CharString>
        <CharString name="Zcaron">
          1 0 74 584 74 65 130 hstem
          282.559997559 292 vstem
          282.559570312 927 rmoveto
          63 callsubr
          -312.559570312 -927 rmoveto
          -35 callsubr
          endchar
        </CharString>
        <CharString name="Zdotaccent">
          1 0 74 584 74 65 102 hstem
          362.882995605 106 vstem
          362.8828125 820 rmoveto
          39 callsubr
          -336.8828125 -874 rmoveto
          -35 callsubr
          endchar
        </CharString>
        <CharString name="a">
          -22 -7 74 -46 -21 hstemhm
          440 53 hintmask 10100000
          90 278 rmoveto
          -32 callsubr
          hintmask 01100000
          -31 callsubr
          71 -27 rmoveto
          -30 callsubr
          hintmask 10100000
          -29 callsubr
          endchar
        </CharString>
        <CharString name="a.salt">
          -27 -7 75 396 70 hstem
          90 272 rmoveto
          134 callsubr
          74 -11 rmoveto
          135 callsubr
          endchar
        </CharString>
        <CharString name="a.smcp">
          28 21 -21 152 74 hstem
          35 hmoveto
          82 callsubr
          -112 -344 rmoveto
          83 callsubr
          endchar
        </CharString>
        <CharString name="a.superior">
          -158 364 61 hstem
          375 36 vstem
          116 553 rmoveto
          -23 -153 50 -36 75 0 62 0 61 40 20 19 rrcurveto
          14 -54 36 0 48 322 rlineto
          -34 33 -115 15 -49 -4 -50 -4 -72 -28 -23 -150 rrcurveto
          59 -4 rmoveto
          16 111 49 14 29 3 29 3 57 -4 41 -11 rrcurveto
          -31 -195 rlineto
          -46 -23 -50 -22 -48 0 -48 0 -12 31 14 93 rrcurveto
          endchar
        </CharString>
        <CharString name="aacute">
          -22 -7 74 -67 21 581.972000122 133 hstemhm
          335.718994141 223 -118.718994141 53 hintmask 00010000
          335.71875 602.971679688 rmoveto
          19 callsubr
          hintmask 10001000
          -373.71875 -457.971679688 rmoveto
          -32 callsubr
          hintmask 01001000
          -31 callsubr
          71 -27 rmoveto
          -30 callsubr
          hintmask 10001000
          -29 callsubr
          endchar
        </CharString>
        <CharString name="aacute.salt">
          -27 -7 75 396 70 67 133 hstem
          323 223 vstem
          323 601 rmoveto
          19 callsubr
          -361 -462 rmoveto
          134 callsubr
          74 -11 rmoveto
          135 callsubr
          endchar
        </CharString>
        <CharString name="aacute.smcp">
          28 0 21 131 74 404 133 hstem
          370.167007446 223 vstem
          370.166992188 630 rmoveto
          19 callsubr
          -463.166992188 -763 rmoveto
          82 callsubr
          -112 -344 rmoveto
          83 callsubr
          endchar
        </CharString>
        <CharString name="abreve">
          -22 -7 74 -67 21 581.972106934 46 hstemhm
          274.783996582 46 119.216003418 53 -37.216003418 46 hintmask 00110100
          274.784179688 716.971679688 rmoveto
          61 callsubr
          hintmask 10001000
          -230.784179688 -438.971679688 rmoveto
          -32 callsubr
          hintmask 01001000
          -31 callsubr
          71 -27 rmoveto
          -30 callsubr
          hintmask 10001000
          -29 callsubr
          endchar
        </CharString>
        <CharString name="abreve.salt">
          -27 -7 75 396 70 62 46 hstem
          254.548995972 46 135 46 vstem
          254.548828125 710 rmoveto
          61 callsubr
          -210.548828125 -438 rmoveto
          134 callsubr
          74 -11 rmoveto
          135 callsubr
          endchar
        </CharString>
        <CharString name="abreve.smcp">
          28 0 21 131 74 404 46 hstem
          299.231994629 46 135 46 vstem
          299.232421875 744 rmoveto
          61 callsubr
          -310.232421875 -744 rmoveto
          82 callsubr
          -112 -344 rmoveto
          83 callsubr
          endchar
        </CharString>
        <CharString name="acircumflex">
          -22 -7 74 -67 21 581.972000122 130 hstemhm
          214.218994141 292 -66.2189941406 53 hintmask 00010000
          214.21875 602.971679688 rmoveto
          30 callsubr
          hintmask 10001000
          -262.21875 -454.971679688 rmoveto
          -32 callsubr
          hintmask 01001000
          -31 callsubr
          71 -27 rmoveto
          -30 callsubr
          hintmask 10001000
          -29 callsubr
          endchar
        </CharString>
        <CharString name="acircumflex.salt">
          -27 -7 75 396 70 62 130 hstem
          212.98399353 292 vstem
          212.984375 596 rmoveto
          30 callsubr
          -260.984375 -454 rmoveto
          134 callsubr
          74 -11 rmoveto
          135 callsubr
          endchar
        </CharString>
        <CharString name="acircumflex.smcp">
          28 0 21 131 74 404 130 hstem
          258.667007446 292 vstem
          258.666992188 630 rmoveto
          30 callsubr
          -361.666992188 -760 rmoveto
          82 callsubr
          -112 -344 rmoveto
          83 callsubr
          endchar
        </CharString>
        <CharString name="acute">
          -321 531 133 hstem
          104 223 vstem
          104 531 rmoveto
          19 callsubr
          endchar
        </CharString>
        <CharString name="acute.smcp">
          -321 531 133 hstem
          104 223 vstem
          104 531 rmoveto
          19 callsubr
          endchar
        </CharString>
        <CharString name="adieresis">
          -22 -7 74 -67 21 581.972000122 101 hstemhm
          190.300994873 101 148.699005127 53 -47.699005127 101 hintmask 00000000
          190.30078125 653.971679688 rmoveto
          10 callsubr
          255 hmoveto
          10 callsubr
          hintmask 10001000
          -355.30078125 -375.971679688 rmoveto
          -32 callsubr
          hintmask 01001000
          -31 callsubr
          71 -27 rmoveto
          -30 callsubr
          hintmask 10001000
          -29 callsubr
          endchar
        </CharString>
        <CharString name="adieresis.salt">
          -27 -7 75 396 70 62 101 hstem
          191.065994263 101 154 101 vstem
          191.065429688 647 rmoveto
          10 callsubr
          255 hmoveto
          10 callsubr
          -356.065429688 -375 rmoveto
          134 callsubr
          74 -11 rmoveto
          135 callsubr
          endchar
        </CharString>
        <CharString name="adieresis.smcp">
          28 0 21 131 74 404 101 hstem
          234.74899292 101 154 101 vstem
          234.749023438 681 rmoveto
          10 callsubr
          255 hmoveto
          10 callsubr
          -454.749023438 -681 rmoveto
          82 callsubr
          -112 -344 rmoveto
          83 callsubr
          endchar
        </CharString>
        <CharString name="ae">
          339 -7 71 403 74 hstem
          51 275 rmoveto
          -41 -228 78 -54 115 0 70 0 97 39 38 31 20 -47 41 -23 64 0 83 0 82 6 84 23 rrcurveto
          9 56 rlineto
          -78 -11 -96 -9 -76 6 -71 1 -19 38 21 124 37 -15 324 -43 28 219 15 116 -80 37 -126 0 -78 0 -54 -16 -37 -30 -61 37 -112 17 -62 -8 rrcurveto
          -82 -10 -92 -28 -41 -228 rrcurveto
          70 -24 rmoveto
          31 191 58 14 64 12 40 8 85 -14 60 -16 -26 -43 -14 -57 -13 -68 -12 -65 -5 -54 5 -43 -32 -30 -92 -20 -67 1 -87 1 -17 45 22 138 rrcurveto
          359 30 rmoveto
          -22 callsubr
          endchar
        </CharString>
        <CharString name="ae.smcp">
          176 -2 74 -61 60 92 71 8 76 -68 61 186 73 -73 61 hstemhm
          hintmask 10100000
          23 hmoveto
          90 0 105 163 151 0 -12 -82 rlineto
          -7 -51 26 -34 60 2 rrcurveto
          hintmask 01100000
          264 13 9 60 rlineto
          hintmask 10110000
          -241 1 rlineto
          -22 0 -16 1 5 30 rrcurveto
          22 139 rlineto
          hintmask 00101000
          250 8 9 61 rlineto
          hintmask 00110100
          -247 7 24 147 rlineto
          5 21 3 11 31 0 rrcurveto
          hintmask 00100010
          245 0 9 61 rlineto
          hintmask 10100100
          -245 12 rlineto
          -94 -1 -64 -11 -50 -76 rrcurveto
          -70 -248 rmoveto
          158 252 -42 -252 rlineto
          endchar
        </CharString>
        <CharString name="afii61289">
          -177 0 56 hstem
          69 248 rmoveto
          21 -32 rlineto
          12 6 11 6 11 7 rrcurveto
          -5 -46 rlineto
          -15 -130 33 -59 95 0 rrcurveto
          68 0 9 56 rlineto
          -1 -74 18 0 hvcurveto
          -39 9 -16 7 14 99 rrcurveto
          14 105 rlineto
          115 90 81 116 14 98 11 75 -31 61 -80 5 -71 5 -48 -45 -11 -67 rrcurveto
          -52 -328 rlineto
          -22 -20 -22 -19 -22 -17 rrcurveto
          154 148 rmoveto
          37 230 rlineto
          9 57 67 -11 7 -32 14 -68 -59 -92 -75 -84 rrcurveto
          endchar
        </CharString>
        <CharString name="afii61352">
          498 21 -21 381 62 227 65 hstem
          788 62 vstem
          72 hmoveto
          70 0 102 645 rlineto
          3 17 30 5 4 -15 rrcurveto
          166 -589 rlineto
          27 -97 128 12 15 98 0 0 50 313 29 181 11 70 40 30 57 0 72 0 113 -1 0 0 50 -2 25 -6 -17 -108 -16 -102 -34 -8 -44 0 rrcurveto
          -54 hlineto
          -44 0 -31 6 26 166 rrcurveto
          -62 hlineto
          -28 -176 36 -58 87 0 rrcurveto
          66 hlineto
          123 0 20 65 17 107 19 121 -30 60 -93 0 0 0 -115 1 -74 0 -100 0 -75 -45 -19 -122 -28 -177 -47 -304 0 0 -2 -15 -25 -6 -5 18 rrcurveto
          -167 596 rlineto
          -24 86 -135 -12 -16 -102 rrcurveto
          endchar
        </CharString>
        <CharString name="agrave">
          -22 -7 74 -67 21 581.972000122 133 hstemhm
          201.718994141 193 45.2810058594 53 hintmask 00000000
          201.71875 735.971679688 rmoveto
          -33 callsubr
          hintmask 10001000
          -198.71875 -457.971679688 rmoveto
          -32 callsubr
          hintmask 01001000
          -31 callsubr
          71 -27 rmoveto
          -30 callsubr
          hintmask 10001000
          -29 callsubr
          endchar
        </CharString>
        <CharString name="agrave.salt">
          -27 -7 75 396 70 67 133 hstem
          184 193 vstem
          184 734 rmoveto
          -33 callsubr
          -181 -462 rmoveto
          134 callsubr
          74 -11 rmoveto
          135 callsubr
          endchar
        </CharString>
        <CharString name="agrave.smcp">
          28 0 21 131 74 404 133 hstem
          246.167007446 193 vstem
          246.166992188 763 rmoveto
          -33 callsubr
          -298.166992188 -763 rmoveto
          82 callsubr
          -112 -344 rmoveto
          83 callsubr
          endchar
        </CharString>
        <CharString name="amacron">
          -22 -7 74 -67 21 581.972000122 63 hstemhm
          214.210006714 302 -76.2100067139 53 hintmask 00000000
          214.209960938 602.971679688 rmoveto
          14 callsubr
          hintmask 10001000
          -134.209960938 -387.971679688 rmoveto
          -32 callsubr
          hintmask 01001000
          -31 callsubr
          71 -27 rmoveto
          -30 callsubr
          hintmask 10001000
          -29 callsubr
          endchar
        </CharString>
        <CharString name="amacron.salt">
          -27 -7 75 396 70 62 63 hstem
          223.975006104 302 vstem
          223.975585938 596 rmoveto
          14 callsubr
          -143.975585938 -387 rmoveto
          134 callsubr
          74 -11 rmoveto
          135 callsubr
          endchar
        </CharString>
        <CharString name="amacron.smcp">
          28 0 21 131 74 404 63 hstem
          258.658004761 302 vstem
          258.658203125 630 rmoveto
          14 callsubr
          -233.658203125 -693 rmoveto
          82 callsubr
          -112 -344 rmoveto
          83 callsubr
          endchar
        </CharString>
        <CharString name="ampersand">
          63 21 -21 662 48 hstem
          94 79 rmoveto
          68 -106 143 2 77 69 rrcurveto
          74 67 65 -111 76 0 -90 152 48 46 71 118 -24 20 -133 -120 -187 324 rlineto
          -54 94 58 28 86 0 rrcurveto
          203 0 8 48 rlineto
          -97 22 -61 4 -105 -9 -83 -7 -86 -84 65 -112 rrcurveto
          49 -85 -95 -73 rlineto
          -103 -79 -36 -111 63 -97 rrcurveto
          61 37 rmoveto
          -39 56 8 69 90 67 rrcurveto
          86 66 120 -202 -84 -75 rlineto
          -57 -51 -83 11 -41 59 rrcurveto
          endchar
        </CharString>
        <CharString name="ampersand.salt">
          383 0 74 79 73 92 74 66 73 -53 53 hstemhm
          209 74 -63 74 527 56 hintmask 11110101
          89 286 rmoveto
          -13 -85 59 -47 74 0 -15 -134 95 -20 88 0 rrcurveto
          160 hlineto
          110 0 128 35 24 152 rrcurveto
          43 271 rlineto
          hintmask 11101101
          158 20 9 53 rlineto
          hintmask 11110101
          -155 0 23 149 -56 0 rlineto
          hintmask 11101101
          -41 -149 rlineto
          hintmask 11110101
          -441 hlineto
          -134 0 -79 -12 -23 -144 rrcurveto
          60 -89 rmoveto
          14 89 rlineto
          13 81 44 0 93 2 rrcurveto
          441 0 -43 -271 rlineto
          -12 -76 -82 -37 -83 0 rrcurveto
          -164 hlineto
          -53 3 -60 -10 12 86 rrcurveto
          223 hlineto
          106 0 33 12 17 106 14 111 -86 10 -46 0 rrcurveto
          -129 hlineto
          hintmask 11110011
          -111 0 -65 -46 -19 -120 -45 1 -20 11 8 48 rrcurveto
          131 -60 rmoveto
          14 84 36 8 59 0 rrcurveto
          129 hlineto
          57 0 5 -7 -6 -40 -7 -47 -16 2 -48 0 rrcurveto
          endchar
        </CharString>
        <CharString name="ampersand.smcp">
          -29 21 -21 501 68 -68 53 hstemhm
          hintmask 11000000
          83 67 rmoveto
          53 -89 116 0 69 52 rrcurveto
          57 48 46 -78 84 0 -74 121 24 23 54 87 -26 31 -92 -79 -139 242 rlineto
          -24 41 9 35 66 0 rrcurveto
          158 0 rlineto
          hintmask 10100000
          9 53 rlineto
          hintmask 11000000
          -87 20 -37 0 -82 -5 -64 -4 -71 -71 56 -96 rrcurveto
          26 -44 -75 -56 rlineto
          -86 -64 -20 -83 50 -84 rrcurveto
          64 39 rmoveto
          -21 33 -16 47 70 52 rrcurveto
          71 51 88 -147 -65 -55 rlineto
          -57 -44 -48 28 -22 35 rrcurveto
          endchar
        </CharString>
        <CharString name="aogonek">
          -76 -181 60 101 20 -7 74 -67 21 hstemhm
          418 53 hintmask 11000000
          425 hmoveto
          62 callsubr
          hintmask 00101000
          -396 278 rmoveto
          -32 callsubr
          hintmask 00011000
          -31 callsubr
          71 -27 rmoveto
          -30 callsubr
          hintmask 00101000
          -29 callsubr
          endchar
        </CharString>
        <CharString name="aogonek.salt">
          58 -171 60 101 20 -17 75 396 70 hstemhm
          hintmask 11000000
          458 10 rmoveto
          62 callsubr
          hintmask 00110000
          -407 262 rmoveto
          134 callsubr
          74 -11 rmoveto
          135 callsubr
          endchar
        </CharString>
        <CharString name="aogonek.smcp">
          130 -181 60 101 20 0 21 131 74 hstemhm
          hintmask 11000000
          506 hmoveto
          62 callsubr
          hintmask 00110000
          -510 hmoveto
          82 callsubr
          -112 -344 rmoveto
          83 callsubr
          endchar
        </CharString>
        <CharString name="approxequal">
          -32 209 75 -37 74 65 75 -37 74 hstemhm
          hintmask 10000000
          89 250 rmoveto
          15 -41 rlineto
          hintmask 01000000
          51 15 28 23 51 0 rrcurveto
          hintmask 10000000
          73 callsubr
          hintmask 01000000
          -60 0 -23 37 -60 0 rrcurveto
          -64 0 -49 -38 -45 -33 rrcurveto
          28 177 rmoveto
          hintmask 00100000
          15 -41 rlineto
          hintmask 00010000
          51 15 28 23 51 0 rrcurveto
          hintmask 00100000
          73 callsubr
          hintmask 00010000
          -60 0 -23 37 -60 0 -64 0 -49 -38 -45 -33 rrcurveto
          endchar
        </CharString>
        <CharString name="aring">
          -22 -7 74 -67 21 581.972000122 48 109 48 hstemhm
          285.175003052 203 -48.1750030518 53 hintmask 00001000
          285.174804688 704.971679688 rmoveto
          -4.986328125 -57 42.0625 -45 56 0 56 0 48.9375 45 4.986328125 57 4.986328125 57 -40.9755859375 46 -56 0 -56 0 -50.0244140625 -46 -4.986328125 -57 rrcurveto
          47 hmoveto
          38 callsubr
          hintmask 10000100
          -242.174804688 -426.971679688 rmoveto
          -32 callsubr
          hintmask 01000100
          -31 callsubr
          71 -27 rmoveto
          -30 callsubr
          hintmask 10000100
          -29 callsubr
          endchar
        </CharString>
        <CharString name="aring.salt">
          -27 -7 75 396 70 62 48 109 48 hstem
          274.647994995 203 vstem
          274.6484375 698 rmoveto
          -4.9873046875 -57 42.0625 -45 56 0 56 0 48.9375 45 4.9873046875 57 4.9853515625 57 -40.974609375 46 -56 0 -56 0 -50.025390625 -46 -4.9853515625 -57 rrcurveto
          47 hmoveto
          35 callsubr
          -231.6484375 -426 rmoveto
          134 callsubr
          74 -11 rmoveto
          135 callsubr
          endchar
        </CharString>
        <CharString name="aring.smcp">
          28 0 21 131 74 336 48 109 48 hstem
          300.292999268 203 vstem
          300.29296875 664 rmoveto
          65 callsubr
          47 hmoveto
          66 callsubr
          -312.29296875 -664 rmoveto
          82 callsubr
          -112 -344 rmoveto
          83 callsubr
          endchar
        </CharString>
        <CharString name="asciicircum">
          -171 531 131 hstem
          134 292 vstem
          134 531 rmoveto
          -34 callsubr
          endchar
        </CharString>
        <CharString name="asciitilde">
          -125 531 74 -39 74 hstemhm
          hintmask 10000000
          140 572 rmoveto
          15 -41 rlineto
          hintmask 01000000
          38 14 21 21 39 0 rrcurveto
          hintmask 10000000
          7 callsubr
          hintmask 01000000
          8 callsubr
          endchar
        </CharString>
        <CharString name="asterisk">
          -123 561 74 -69 40 127 -20 hstemhm
          hintmask 01100000
          139 566 rmoveto
          hintmask 10100000
          143 -5 7 74 rlineto
          hintmask 01100000
          -144 -29 rlineto
          38 -192 rmoveto
          35 -12 80 130 -70 17 rlineto
          55 -73 rmoveto
          120 -61 26 32 -95 91 rlineto
          -45 179 rmoveto
          25 -133 73 31 -57 118 rlineto
          11 -162 rmoveto
          39 -56 106 97 -13 35 rlineto
          endchar
        </CharString>
        <CharString name="asterisk.smcp">
          -124 403 74 -69 40 hstemhm
          hintmask 01000000
          114 408 rmoveto
          hintmask 10000000
          142 -5 8 74 rlineto
          hintmask 01000000
          -144 -29 rlineto
          37 -192 rmoveto
          35 -12 81 130 -70 17 rlineto
          55 -73 rmoveto
          120 -61 26 32 -95 92 rlineto
          -45 178 rmoveto
          25 -132 73 30 -57 118 rlineto
          11 -161 rmoveto
          39 -57 106 97 -14 35 rlineto
          endchar
        </CharString>
        <CharString name="at">
          305 -179 74 -47 47 101 74 -67 74 394 73 80 75 hstemhm
          hintmask 10001100
          64 9 rmoveto
          -77 callsubr
          hintmask 01001100
          -76 callsubr
          hintmask 10011100
          -75 callsubr
          hintmask 00101100
          -74 callsubr
          hintmask 10011100
          -73 callsubr
          184 -267 rmoveto
          -72 callsubr
          hintmask 00101100
          -71 callsubr
          endchar
        </CharString>
        <CharString name="at.alt">
          199 -89 74 -47 47 101 74 -67 74 394 73 80 75 hstemhm
          hintmask 10001100
          76 99 rmoveto
          -77 callsubr
          hintmask 01001100
          -76 callsubr
          hintmask 10011100
          -75 callsubr
          hintmask 00101100
          -74 callsubr
          hintmask 10011100
          -73 callsubr
          184 -267 rmoveto
          -72 callsubr
          hintmask 00101100
          -71 callsubr
          endchar
        </CharString>
        <CharString name="at.smcp">
          306 -138 74 -47 47 101 74 -67 74 394 73 80 75 hstemhm
          hintmask 10001100
          71 50 rmoveto
          -77 callsubr
          hintmask 01001100
          -76 callsubr
          hintmask 10011100
          -75 callsubr
          hintmask 00101100
          -74 callsubr
          hintmask 10011100
          -73 callsubr
          184 -267 rmoveto
          -72 callsubr
          hintmask 00101100
          -71 callsubr
          endchar
        </CharString>
        <CharString name="atilde">
          -22 -7 74 -67 21 582.972000122 70 -36 70 hstemhm
          440 53 hintmask 00000000
          204.958984375 643.971679688 rmoveto
          15 -41 rlineto
          32 14 24 20 44 1 rrcurveto
          36 1 10 -34 56 -1 44 -1 39 36 43 27 rrcurveto
          -15 42 rlineto
          -6 -4 -70 -31 -24 1 rrcurveto
          -28 1 -22 30 -50 3 rrcurveto
          -41 0 -42 -31 -45 -33 rrcurveto
          hintmask 10001000
          -114.958984375 -365.971679688 rmoveto
          -32 callsubr
          hintmask 01001000
          -31 callsubr
          71 -27 rmoveto
          -30 callsubr
          hintmask 10001000
          -29 callsubr
          endchar
        </CharString>
        <CharString name="atilde.salt">
          -27 -7 75 396 70 63 70 -36 70 hstemhm
          hintmask 00010000
          206.723632812 637 rmoveto
          31 callsubr
          hintmask 00100000
          32 callsubr
          hintmask 00010000
          -15 42 rlineto
          hintmask 00100000
          33 callsubr
          hintmask 00010000
          34 callsubr
          hintmask 11000000
          -116.723632812 -365 rmoveto
          134 callsubr
          74 -11 rmoveto
          135 callsubr
          endchar
        </CharString>
        <CharString name="atilde.smcp">
          28 0 21 131 74 405 70 -36 70 hstemhm
          hintmask 00010000
          241.407226562 671 rmoveto
          31 callsubr
          hintmask 00100000
          32 callsubr
          hintmask 00010000
          -15 42 rlineto
          hintmask 00100000
          33 callsubr
          hintmask 00010000
          34 callsubr
          hintmask 11000000
          -206.407226562 -671 rmoveto
          82 callsubr
          -112 -344 rmoveto
          83 callsubr
          endchar
        </CharString>
        <CharString name="b">
          -9 21 -21 465 74 246 -20 hstem
          60 hmoveto
          -28 callsubr
          -33 -671 rmoveto
          -27 callsubr
          endchar
        </CharString>
        <CharString name="b.salt">
          -11 -13 74 399 74 250 -20 hstem
          61 10 rmoveto
          137 callsubr
          -41 -723 rmoveto
          138 callsubr
          endchar
        </CharString>
        <CharString name="b.smcp">
          -17 0 75 183 74 165 74 hstem
          80 hmoveto
          84 callsubr
          -4 -496 rmoveto
          85 callsubr
          -149 257 rmoveto
          86 callsubr
          endchar
        </CharString>
        <CharString name="b.superior">
          -138 374 62 241 62 hstem
          119 378 rmoveto
          40 0 29 45 rlineto
          18 -14 53 -35 51 0 109 0 44 91 8 89 6 67 5 118 -114 0 -34 0 -50 -10 -51 -20 rrcurveto
          31 193 -62 0 rlineto
          -7 -437 rmoveto
          31 195 rlineto
          54 11 14 6 58 0 48 0 20 -17 -11 -106 -7 -69 -39 -49 -49 0 -59 0 -21 15 -39 14 rrcurveto
          endchar
        </CharString>
        <CharString name="backslash">
          -172 141 219 vstem
          141 770 rmoveto
          148 -842 71 0 -148 842 rlineto
          endchar
        </CharString>
        <CharString name="bar">
          -318 74 207 vstem
          74 -72 rmoveto
          74 0 133 842 -74 0 rlineto
          endchar
        </CharString>
        <CharString name="braceleft">
          -243 -210 74 446 67 391 74 hstem
          67 310 rmoveto
          40 3 48 -24 -7 -42 rrcurveto
          -40 -244 rlineto
          -17 -102 32 -111 143 0 rrcurveto
          12 74 rlineto
          -72 -4 -42 32 18 111 rrcurveto
          40 248 rlineto
          7 42 -31 36 -47 7 49 9 42 27 8 48 rrcurveto
          37 236 rlineto
          14 87 52 26 68 -1 rrcurveto
          12 74 rlineto
          -130 0 -71 -69 -19 -117 rrcurveto
          -37 -236 rlineto
          -8 -51 -56 9 -34 -1 rrcurveto
          endchar
        </CharString>
        <CharString name="braceright">
          -248 -210 74 391 67 446 74 hstem
          -13 -210 rmoveto
          130 0 70 69 19 117 rrcurveto
          38 236 rlineto
          8 51 56 -9 34 1 rrcurveto
          11 67 rlineto
          -40 -3 -48 24 7 42 rrcurveto
          40 244 rlineto
          17 102 -32 111 -143 0 rrcurveto
          -12 -74 rlineto
          72 4 42 -32 -18 -111 rrcurveto
          -40 -248 rlineto
          -7 -42 30 -36 47 -7 -49 -9 -41 -27 -8 -48 rrcurveto
          -38 -236 rlineto
          -14 -87 -51 -26 -68 1 rrcurveto
          endchar
        </CharString>
        <CharString name="bracketleft">
          -242 -210 74 904 74 hstem
          78 -38 rmoveto
          -9 -57 -5 -115 123 0 rrcurveto
          80 0 12 74 -80 0 rlineto
          -50 0 -10 14 13 84 rrcurveto
          115 726 rlineto
          11 66 26 14 38 0 rrcurveto
          80 0 12 74 -80 0 rlineto
          -121 0 -26 -67 -14 -87 rrcurveto
          endchar
        </CharString>
        <CharString name="bracketright">
          -241 -210 74 904 74 hstem
          -13 -210 rmoveto
          80 hlineto
          121 0 26 67 14 87 rrcurveto
          115 726 rlineto
          9 57 5 115 -123 0 rrcurveto
          -80 0 -12 -74 80 0 rlineto
          50 0 10 -14 -13 -84 rrcurveto
          -115 -726 rlineto
          -11 -66 -26 -14 -38 0 rrcurveto
          -80 hlineto
          endchar
        </CharString>
        <CharString name="breve">
          -308 530 46 hstem
          59 46 135 46 vstem
          59 644 rmoveto
          61 callsubr
          endchar
        </CharString>
        <CharString name="brokenbar">
          -317 74 207 vstem
          74 -72 rmoveto
          74 0 52 328 -74 0 rlineto
          27 173 rmoveto
          74 0 54 341 -74 0 rlineto
          endchar
        </CharString>
        <CharString name="bullet">
          -253 309 147 hstem
          139 154 vstem
          139 341 rmoveto
          40 callsubr
          endchar
        </CharString>
        <CharString name="bullet.smcp">
          -253 252 147 hstem
          130 154 vstem
          130 284 rmoveto
          40 callsubr
          endchar
        </CharString>
        <CharString name="c">
          -67 -6 73 397 74 hstem
          89 266 rmoveto
          -26 callsubr
          endchar
        </CharString>
        <CharString name="c.smcp">
          -43 -4 74 434 74 hstem
          102 313 rmoveto
          87 callsubr
          endchar
        </CharString>
        <CharString name="c.superior">
          -193 373 62 240 62 hstem
          131 555 rmoveto
          -22 -132 54 -50 81 0 62 0 33 5 64 17 rrcurveto
          8 47 rlineto
          0 -92 -7 -69 vhcurveto
          -54 0 -19 21 15 97 19 120 32 2 45 0 rrcurveto
          67 87 -5 0 hvcurveto
          7 46 rlineto
          -51 10 -68 11 -39 0 -76 0 -57 -15 -27 -167 rrcurveto
          endchar
        </CharString>
        <CharString name="c_h">
          504 -7 74 -46 -21 464 74 246 -20 hstemhm
          hintmask 10110000
          81 266 rmoveto
          -37 -233 80 -40 99 0 156 7 269 -62 42 268 rrcurveto
          32 203 rlineto
          66 30 50 27 89 0 47 0 38 -30 -10 -66 rrcurveto
          hintmask 01110000
          -59 -370 74 0 59 370 rlineto
          14 88 -45 82 -106 0 -83 0 -66 -40 -59 -31 rrcurveto
          50 315 -74 0 -91 -578 rlineto
          hintmask 10110000
          -26 -162 -176 23 -189 0 -72 0 -22 42 24 153 30 189 43 13 60 0 rrcurveto
          89 137 -8 0 hvcurveto
          9 54 rlineto
          -68 13 -104 15 -52 0 rrcurveto
          -102 0 -79 -40 -37 -232 rrcurveto
          endchar
        </CharString>
        <CharString name="c_k">
          370 -7 74 -46 -21 464 74 -7 -20 271 -20 hstemhm
          915 83 hintmask 10001100
          81 266 rmoveto
          -37 -233 148 -40 99 0 86 0 94 47 85 53 rrcurveto
          hintmask 01011100
          -15 -93 74 0 23 148 74 52 164 -200 90 0 -196 251 rlineto
          69 47 123 132 36 101 rrcurveto
          -83 hlineto
          -15 -68 -121 -125 -124 -85 rrcurveto
          84 529 -74 0 -93 -588 rlineto
          hintmask 10101100
          -114 -75 -114 -55 -60 3 -93 5 -61 37 24 153 30 189 43 13 60 0 rrcurveto
          89 138 -8 0 hvcurveto
          8 54 rlineto
          -68 13 -103 15 -52 0 rrcurveto
          -102 0 -79 -40 -37 -232 rrcurveto
          endchar
        </CharString>
        <CharString name="c_t">
          293 -6 73 -66 56 399 74 hstemhm
          734 56 hintmask 10110000
          80 266 rmoveto
          -35 -201 74 -70 102 -1 83 -1 62 6 85 23 rrcurveto
          9 56 rlineto
          0 -145 -11 -92 vhcurveto
          -65 0 -32 46 27 149 36 194 38 0 59 0 rrcurveto
          394 0 -42 -266 rlineto
          hintmask 01110000
          -22 -140 30 -49 95 0 rrcurveto
          78 0 9 56 rlineto
          -1 -74 18 0 hvcurveto
          -44 10 -13 6 16 99 rrcurveto
          42 266 155 0 12 76 -155 0 24 148 -56 0 -42 -147 -394 -3 rlineto
          -94 0 -80 -11 -44 -253 rrcurveto
          endchar
        </CharString>
        <CharString name="cacute">
          -67 -6 73 397 74 60 133 hstem
          316 223 vstem
          316 598 rmoveto
          19 callsubr
          -353 -465 rmoveto
          -26 callsubr
          endchar
        </CharString>
        <CharString name="cacute.smcp">
          -43 -4 74 434 74 65 133 hstem
          326.167007446 223 vstem
          326.166992188 643 rmoveto
          19 callsubr
          -352.166992188 -463 rmoveto
          87 callsubr
          endchar
        </CharString>
        <CharString name="caron">
          -186 531 130 hstem
          32 292 vstem
          32 661 rmoveto
          63 callsubr
          endchar
        </CharString>
        <CharString name="caron.smcp">
          -171 531 160 hstem
          159 292 vstem
          159 691 rmoveto
          78 -160 71 0 143 160 -62 0 -109 -91 -61 91 rlineto
          endchar
        </CharString>
        <CharString name="ccaron">
          -67 -6 73 397 74 60 130 hstem
          244.268005371 292 vstem
          244.267578125 728 rmoveto
          63 callsubr
          -220.267578125 -462 rmoveto
          -26 callsubr
          endchar
        </CharString>
        <CharString name="ccaron.smcp">
          -43 -4 74 434 74 60 130 hstem
          264 292 vstem
          264 768 rmoveto
          63 callsubr
          -227 -455 rmoveto
          87 callsubr
          endchar
        </CharString>
        <CharString name="ccedilla">
          -65 -173 37 130 73 397 74 hstem
          253 67 vstem
          91 266 rmoveto
          -26 callsubr
          55 -439 rmoveto
          51 hlineto
          80 0 27 34 16 102 0 0 -39 -1 -28 1 -6 -38 -10 -34 -30 -12 rrcurveto
          -55 -15 rlineto
          endchar
        </CharString>
        <CharString name="ccedilla.smcp">
          -43 -175 37 134 74 434 74 hstem
          261 67 vstem
          154 -175 rmoveto
          20 callsubr
          -58 451 rmoveto
          87 callsubr
          endchar
        </CharString>
        <CharString name="ccircumflex">
          -67 -6 73 397 74 60 130 hstem
          217.667007446 292 vstem
          217.666992188 598 rmoveto
          30 callsubr
          -266.666992188 -462 rmoveto
          -26 callsubr
          endchar
        </CharString>
        <CharString name="ccircumflex.smcp">
          -43 -4 74 434 74 65 130 hstem
          234.667007446 292 vstem
          234.666992188 643 rmoveto
          30 callsubr
          -270.666992188 -460 rmoveto
          87 callsubr
          endchar
        </CharString>
        <CharString name="cdotaccent">
          -67 -6 73 397 74 60 102 hstem
          321.589996338 106 vstem
          321.58984375 621 rmoveto
          39 callsubr
          -241.58984375 -409 rmoveto
          -26 callsubr
          endchar
        </CharString>
        <CharString name="cdotaccent.smcp">
          -43 -4 74 434 74 65 102 hstem
          340.589996338 106 vstem
          340.58984375 666 rmoveto
          39 callsubr
          -247.58984375 -407 rmoveto
          87 callsubr
          endchar
        </CharString>
        <CharString name="cedilla">
          -312 -173 37 hstem
          129 67 vstem
          22 -173 rmoveto
          20 callsubr
          endchar
        </CharString>
        <CharString name="cent">
          -74 -6 73 hstem
          80 266 rmoveto
          -36 -205 75 -66 108 -1 rrcurveto
          -13 -90 60 0 13 91 rlineto
          54 3 49 7 61 17 rrcurveto
          9 56 rlineto
          0 -145 -11 -92 vhcurveto
          -65 0 -32 46 27 149 36 194 38 8 59 0 rrcurveto
          89 138 -8 0 hvcurveto
          9 54 rlineto
          -43 8 -58 9 -49 6 rrcurveto
          17 101 -60 0 -16 -96 rlineto
          -109 5 -79 -18 -45 -259 rrcurveto
          endchar
        </CharString>
        <CharString name="circumflex">
          -231 531 130 hstem
          66 292 vstem
          66 531 rmoveto
          30 callsubr
          endchar
        </CharString>
        <CharString name="circumflex.smcp">
          -171 531 130 hstem
          134 292 vstem
          134 531 rmoveto
          84 0 87 80 52 -80 69 0 -83 130 -71 0 rlineto
          endchar
        </CharString>
        <CharString name="colon">
          -291 0 105 322 105 hstem
          88 179 vstem
          88 23 rmoveto
          -97 callsubr
          59 370 rmoveto
          -2 -14 8 -9 14 0 rrcurveto
          53 hlineto
          14 0 12 5 3 18 rrcurveto
          9 57 rlineto
          3 16 -6 9 -18 0 rrcurveto
          -53 hlineto
          -16 0 -10 -10 -2 -15 rrcurveto
          endchar
        </CharString>
        <CharString name="comma">
          -295 -88 32 hstem
          76 121 vstem
          76 -88 rmoveto
          0 0 92 -18 15 95 rrcurveto
          14 90 rlineto
          2 15 -3 12 -18 0 rrcurveto
          -51 hlineto
          -16 0 -11 -9 -3 -18 rrcurveto
          -8 -54 rlineto
          -3 -17 10 -8 14 0 rrcurveto
          11 0 -4 -25 rlineto
          -2 -11 -4 -21 -30 1 rrcurveto
          endchar
        </CharString>
        <CharString name="copyright">
          242 0 64 83 64 308 64 85 64 hstem
          110 368 rmoveto
          11 callsubr
          64 hmoveto
          12 callsubr
          112 -3 rmoveto
          -25 -154 55 -64 79 0 67 0 55 10 67 18 rrcurveto
          8 52 rlineto
          -36 -5 -79 -11 -72 0 -67 0 -2 67 13 84 17 105 34 52 54 0 33 0 81 -3 62 -9 rrcurveto
          8 52 rlineto
          -54 10 -79 14 -41 0 -81 0 -68 -41 -29 -177 rrcurveto
          endchar
        </CharString>
        <CharString name="currency">
          -98 144 61 210 59 hstem
          79 177 rmoveto
          36 -48 52 45 rlineto
          22 -18 33 -12 33 0 35 0 38 7 29 20 rrcurveto
          40 -49 48 37 -44 53 rlineto
          22 27 12 33 5 35 5 31 -6 33 -12 24 rrcurveto
          55 47 -34 47 -56 -47 rlineto
          -24 21 -40 11 -38 0 -34 0 -33 -11 -29 -19 rrcurveto
          -35 42 -46 -36 37 -44 rlineto
          -22 -26 -10 -31 -5 -34 -6 -37 9 -29 15 -28 rrcurveto
          43 92 rmoveto
          9 56 41 45 68 1 65 1 36 -53 -12 -54 -12 -57 -36 -48 -74 1 -56 1 -38 49 9 58 rrcurveto
          endchar
        </CharString>
        <CharString name="d">
          -11 -6 74 397 74 246 -20 hstem
          438 53 vstem
          89 263 rmoveto
          -25 callsubr
          74 hmoveto
          -24 callsubr
          endchar
        </CharString>
        <CharString name="d.salt">
          -10 -13 74 399 74 250 -20 hstem
          88 256 rmoveto
          139 callsubr
          74 hmoveto
          140 callsubr
          endchar
        </CharString>
        <CharString name="d.smcp">
          37 0 74 424 74 hstem
          80 hmoveto
          88 callsubr
          -5 -498 rmoveto
          89 callsubr
          endchar
        </CharString>
        <CharString name="d.superior">
          -138 374 62 242 62 hstem
          385 40 vstem
          131 555 rmoveto
          -8 -57 8 -124 114 0 51 0 47 28 28 21 rrcurveto
          14 -45 40 0 84 526 -60 0 -31 -194 rlineto
          -45 20 -47 10 -34 0 -114 0 -34 -94 -13 -91 rrcurveto
          62 hmoveto
          14 104 34 19 48 0 58 0 7 -3 55 -9 rrcurveto
          -30 -190 rlineto
          -44 -25 -26 -15 -59 0 -49 0 -19 35 11 84 rrcurveto
          endchar
        </CharString>
        <CharString name="dagger">
          -99 489 59 hstem
          164 63 vstem
          113 489 rmoveto
          131 -10 -80 -551 63 0 96 551 134 10 9 59 -130 10 26 212 -63 0 -42 -212 -135 -10 rlineto
          endchar
        </CharString>
        <CharString name="daggerdbl">
          -129 174 59 256 59 hstem
          97 174 rmoveto
          134 -10 -33 -236 63 0 41 236 139 10 9 59 -133 10 40 236 134 10 9 59 -130 10 25 212 -62 0 -42 -212 -135 -10 rlineto
          -9 -59 131 -10 -36 -236 -136 -10 rlineto
          endchar
        </CharString>
        <CharString name="dcaron">
          87 -6 74 397 74 246 -20 hstem
          438 53 vstem
          89 263 rmoveto
          -25 callsubr
          74 hmoveto
          -24 callsubr
          505 316 rmoveto
          53 0 32 134 11 67 -75 0 -10 -67 rlineto
          endchar
        </CharString>
        <CharString name="dcaron.salt">
          78 -13 74 399 74 250 -20 hstem
          88 256 rmoveto
          139 callsubr
          74 hmoveto
          140 callsubr
          506 325 rmoveto
          -106 callsubr
          endchar
        </CharString>
        <CharString name="dcaron.smcp">
          40 0 74 424 74 60 130 hstem
          324 292 vstem
          324 762 rmoveto
          63 callsubr
          -251 -762 rmoveto
          88 callsubr
          -5 -498 rmoveto
          89 callsubr
          endchar
        </CharString>
        <CharString name="dcroat">
          -11 -6 74 397 74 77 54 115 -20 hstem
          438 53 vstem
          89 263 rmoveto
          -20 -122 24 -147 140 0 68 0 98 46 29 19 rrcurveto
          10 -59 53 0 98 616 72 0 9 54 -72 0 18 115 -72 0 -19 -115 -122 0 -9 -54 122 0 -18 -117 rlineto
          -60 26 -85 14 -45 0 -151 0 -45 -134 -23 -142 rrcurveto
          74 hmoveto
          -24 callsubr
          endchar
        </CharString>
        <CharString name="dcroat.salt">
          -10 -13 74 399 74 82 54 114 -20 hstem
          88 256 rmoveto
          -21 -166 48 -102 114 -1 106 -1 111 20 48 4 rrcurveto
          96 606 72 0 8 54 -72 0 18 114 -74 0 -18 -114 -121 0 -8 -54 121 0 -20 -121 rlineto
          -60 26 -75 13 -45 0 -153 0 -54 -108 -21 -170 rrcurveto
          74 hmoveto
          14 87 14 117 114 0 74 0 29 -4 80 -21 rrcurveto
          -59 -374 -187 0 rlineto
          -102 0 13 132 10 63 rrcurveto
          endchar
        </CharString>
        <CharString name="dcroat.smcp">
          40 0 74 189 54 181 74 hstem
          61 263 rmoveto
          125 callsubr
          115 -243 rmoveto
          126 callsubr
          endchar
        </CharString>
        <CharString name="degree">
          -263 530 48 109 48 hstem
          148 47 109 47 vstem
          148 632 rmoveto
          -57 46 -45 56 56 45 45 57 57 -45 46 -56 -56 -46 -46 -57 vhcurveto
          47 hmoveto
          30 25 25 30 30 24 -25 -30 -30 -24 -24 -30 -30 -25 24 30 vhcurveto
          endchar
        </CharString>
        <CharString name="degree.smcp">
          -262 364 49 108 49 hstem
          123 202 vstem
          123 467 rmoveto
          123 callsubr
          47 hmoveto
          124 callsubr
          endchar
        </CharString>
        <CharString name="dieresis">
          -107 531 101 hstem
          142 101 154 101 vstem
          142 582 rmoveto
          10 callsubr
          255 hmoveto
          10 callsubr
          endchar
        </CharString>
        <CharString name="dieresis.smcp">
          -107 530 102 hstem
          142 101 154 101 vstem
          142 581 rmoveto
          122 callsubr
          255 hmoveto
          122 callsubr
          endchar
        </CharString>
        <CharString name="divide">
          -46 150 102 64 74 59 102 hstem
          100 316 rmoveto
          416 0 12 74 -416 0 rlineto
          127 -217 rmoveto
          39 callsubr
          39 245 rmoveto
          -14 callsubr
          endchar
        </CharString>
        <CharString name="dollar">
          11 -3 67 258 74 hstem
          80 17 rmoveto
          25 -3 76 -10 62 -7 rrcurveto
          -14 -87 58 0 13 82 rlineto
          106 -6 116 32 22 138 rrcurveto
          11 68 rlineto
          13 82 -5 90 -138 0 rrcurveto
          -130 hlineto
          -82 0 -16 31 10 67 rrcurveto
          10 66 rlineto
          14 86 57 22 70 -3 rrcurveto
          0 188 -9 50 vhcurveto
          9 58 rlineto
          -39 4 -86 12 -62 5 rrcurveto
          14 89 -58 0 -14 -86 rlineto
          -108 -2 -85 -35 -24 -141 rrcurveto
          -10 -66 rlineto
          -13 -79 25 -93 138 0 rrcurveto
          130 hlineto
          86 0 -9 -41 -9 -57 rrcurveto
          -11 -68 rlineto
          -12 -77 -89 -15 -41 0 -93 0 -105 6 -40 0 rrcurveto
          endchar
        </CharString>
        <CharString name="dollar.smcp">
          -61 -3 71 181 71 180 75 -75 57 hstemhm
          hintmask 11100000
          69 11 rmoveto
          19 -2 87 -7 46 -5 rrcurveto
          -10 -66 63 0 10 62 rlineto
          95 0 73 26 19 120 rrcurveto
          6 38 rlineto
          11 68 -44 75 -99 0 rrcurveto
          -83 hlineto
          -55 0 -31 14 9 54 rrcurveto
          5 31 rlineto
          11 68 47 13 53 0 rrcurveto
          207 0 rlineto
          hintmask 11010000
          9 57 rlineto
          -29 3 -66 9 -46 4 rrcurveto
          11 67 -64 0 rlineto
          hintmask 11100000
          -10 -65 rlineto
          -75 -1 -101 -21 -21 -134 rrcurveto
          -5 -31 rlineto
          -9 -58 24 -81 131 0 rrcurveto
          76 hlineto
          52 0 25 -20 -8 -52 rrcurveto
          -6 -38 rlineto
          -11 -67 -57 -4 -31 0 -70 0 -119 -1 -30 0 rrcurveto
          endchar
        </CharString>
        <CharString name="dotaccent">
          -435 533 102 hstem
          104 106 vstem
          104 556 rmoveto
          39 callsubr
          endchar
        </CharString>
        <CharString name="dotlessi">
          -368 21 -21 531 -20 hstem
          60 158 vstem
          60 hmoveto
          -15 callsubr
          endchar
        </CharString>
        <CharString name="e">
          -38 -7 71 403 74 hstem
          89 278 rmoveto
          -23 callsubr
          74 3 rmoveto
          -22 callsubr
          endchar
        </CharString>
        <CharString name="e.smcp">
          -47 -2 74 -60 60 175 76 -69 61 183 73 -73 61 hstemhm
          hintmask 10000000
          92 83 rmoveto
          90 callsubr
          hintmask 01000000
          91 callsubr
          hintmask 10100000
          92 callsubr
          hintmask 00010000
          93 callsubr
          hintmask 00101000
          94 callsubr
          hintmask 00000100
          95 callsubr
          hintmask 10001000
          96 callsubr
          endchar
        </CharString>
        <CharString name="e.superior">
          -148 366 58 256 58 hstem
          134 560 rmoveto
          -21 -133 20 -61 87 0 57 0 80 4 57 16 rrcurveto
          6 48 rlineto
          -53 -8 -91 -6 -51 4 -33 1 -16 18 13 76 25 -10 236 -31 19 149 11 87 -69 24 -93 0 -132 0 -33 -60 -19 -118 rrcurveto
          60 8 rmoveto
          13 64 11 48 96 0 52 0 50 -3 -8 -48 -16 -94 -198 33 0 0 rrcurveto
          endchar
        </CharString>
        <CharString name="eacute">
          -38 -7 71 403 74 60 133 hstem
          328.167007446 223 vstem
          328.166992188 601 rmoveto
          19 callsubr
          -367.166992188 -456 rmoveto
          -23 callsubr
          74 3 rmoveto
          -22 callsubr
          endchar
        </CharString>
        <CharString name="eacute.smcp">
          -47 -2 74 -60 60 175 76 -69 61 183 61 -61 73 60 133 hstemhm
          354 223 hintmask 00000011
          354 631 rmoveto
          19 callsubr
          hintmask 10000000
          -390 -681 rmoveto
          90 callsubr
          hintmask 01000000
          91 callsubr
          hintmask 10100000
          92 callsubr
          hintmask 00010000
          93 callsubr
          hintmask 00100100
          94 callsubr
          hintmask 00001000
          95 callsubr
          hintmask 10000100
          96 callsubr
          endchar
        </CharString>
        <CharString name="ecaron">
          -38 -7 71 403 74 60 130 hstem
          247.268005371 292 vstem
          247.267578125 731 rmoveto
          63 callsubr
          -223.267578125 -453 rmoveto
          -23 callsubr
          74 3 rmoveto
          -22 callsubr
          endchar
        </CharString>
        <CharString name="ecaron.smcp">
          -47 -2 74 -60 60 175 76 -69 61 183 61 -61 73 60 130 hstemhm
          262.268005371 292 hintmask 00000010
          262.267578125 761 rmoveto
          63 callsubr
          hintmask 10000000
          -235.267578125 -678 rmoveto
          90 callsubr
          hintmask 01000000
          91 callsubr
          hintmask 10100000
          92 callsubr
          hintmask 00010000
          93 callsubr
          hintmask 00100100
          94 callsubr
          hintmask 00001000
          95 callsubr
          hintmask 10000100
          96 callsubr
          endchar
        </CharString>
        <CharString name="ecircumflex">
          -38 -7 71 403 74 60 130 hstem
          216.667007446 292 vstem
          216.666992188 601 rmoveto
          30 callsubr
          -265.666992188 -453 rmoveto
          -23 callsubr
          74 3 rmoveto
          -22 callsubr
          endchar
        </CharString>
        <CharString name="ecircumflex.smcp">
          -47 -2 74 -60 60 175 76 -69 61 183 61 -61 73 60 130 hstemhm
          232.667007446 292 hintmask 00000011
          232.666992188 631 rmoveto
          30 callsubr
          hintmask 10000000
          -278.666992188 -678 rmoveto
          90 callsubr
          hintmask 01000000
          91 callsubr
          hintmask 10100000
          92 callsubr
          hintmask 00010000
          93 callsubr
          hintmask 00100100
          94 callsubr
          hintmask 00001000
          95 callsubr
          hintmask 10000100
          96 callsubr
          endchar
        </CharString>
        <CharString name="edieresis">
          -38 -7 71 403 74 60 101 hstem
          192.74899292 101 154 101 vstem
          192.749023438 652 rmoveto
          10 callsubr
          255 hmoveto
          10 callsubr
          -358.749023438 -374 rmoveto
          -23 callsubr
          74 3 rmoveto
          -22 callsubr
          endchar
        </CharString>
        <CharString name="edieresis.smcp">
          -47 -2 74 -60 60 175 76 -69 61 183 61 -61 73 60 101 hstemhm
          209 101 154 101 hintmask 0000001110000000
          209 682 rmoveto
          10 callsubr
          255 hmoveto
          10 callsubr
          hintmask 1000000000000000
          -372 -599 rmoveto
          90 callsubr
          hintmask 0100000000000000
          91 callsubr
          hintmask 1010000000000000
          92 callsubr
          hintmask 0001000000000000
          93 callsubr
          hintmask 0010010000000000
          94 callsubr
          hintmask 0000100000000000
          95 callsubr
          hintmask 1000010000000000
          96 callsubr
          endchar
        </CharString>
        <CharString name="edotaccent">
          -38 -7 71 403 74 60 102 hstem
          317.589996338 106 vstem
          317.58984375 624 rmoveto
          39 callsubr
          -237.58984375 -400 rmoveto
          -23 callsubr
          74 3 rmoveto
          -22 callsubr
          endchar
        </CharString>
        <CharString name="edotaccent.smcp">
          -47 -2 74 -60 60 175 76 -69 61 183 61 -61 73 61 102 hstemhm
          335 106 hintmask 00000011
          335 655 rmoveto
          39 callsubr
          hintmask 10000000
          -252 -626 rmoveto
          90 callsubr
          hintmask 01000000
          91 callsubr
          hintmask 10100000
          92 callsubr
          hintmask 00010000
          93 callsubr
          hintmask 00100100
          94 callsubr
          hintmask 00001000
          95 callsubr
          hintmask 10000100
          96 callsubr
          endchar
        </CharString>
        <CharString name="egrave">
          -38 -7 71 403 74 60 133 hstem
          204.167007446 193 vstem
          204.166992188 734 rmoveto
          -33 callsubr
          -202.166992188 -456 rmoveto
          -23 callsubr
          74 3 rmoveto
          -22 callsubr
          endchar
        </CharString>
        <CharString name="egrave.smcp">
          -47 -2 74 -60 60 175 76 -69 61 183 61 -61 73 60 133 hstemhm
          226.167007446 193 hintmask 00000011
          226.166992188 764 rmoveto
          -33 callsubr
          hintmask 10000000
          -221.166992188 -681 rmoveto
          90 callsubr
          hintmask 01000000
          91 callsubr
          hintmask 10100000
          92 callsubr
          hintmask 00010000
          93 callsubr
          hintmask 00100100
          94 callsubr
          hintmask 00001000
          95 callsubr
          hintmask 10000100
          96 callsubr
          endchar
        </CharString>
        <CharString name="eight">
          69 0 74 263 73 253 74 hstem
          109 154 rmoveto
          -81 callsubr
          58 -101 rmoveto
          -80 callsubr
          54 343 rmoveto
          -79 callsubr
          endchar
        </CharString>
        <CharString name="eight.denominator">
          -100 -2 63 147 63 146 62 hstem
          80 102 rmoveto
          51 callsubr
          53 -54 rmoveto
          52 callsubr
          35 220 rmoveto
          53 callsubr
          endchar
        </CharString>
        <CharString name="eight.numerator">
          -98 254 63 147 63 146 62 hstem
          121 358 rmoveto
          51 callsubr
          53 -54 rmoveto
          52 callsubr
          35 220 rmoveto
          53 callsubr
          endchar
        </CharString>
        <CharString name="eight.oldstyle">
          70 0 74 263 73 253 74 hstem
          109 154 rmoveto
          -81 callsubr
          58 -101 rmoveto
          -80 callsubr
          54 343 rmoveto
          -79 callsubr
          endchar
        </CharString>
        <CharString name="eight.smcp">
          11 0 75 177 75 173 75 hstem
          94 130 rmoveto
          -8 -51 17 -79 106 0 rrcurveto
          165 hlineto
          76 0 55 22 17 108 rrcurveto
          11 70 rlineto
          5 34 -12 48 -40 14 58 12 16 65 3 17 rrcurveto
          7 43 rlineto
          13 80 -42 62 -75 0 rrcurveto
          -166 hlineto
          -102 0 -39 -36 -17 -106 rrcurveto
          -7 -43 rlineto
          -6 -41 16 -53 47 -17 -36 -4 -42 -17 -9 -58 rrcurveto
          62 -72 rmoveto
          11 65 rlineto
          8 48 28 11 36 0 rrcurveto
          156 hlineto
          34 0 25 -15 -7 -44 rrcurveto
          -11 -65 rlineto
          -6 -41 -31 -12 -34 0 rrcurveto
          -145 hlineto
          -57 0 -13 15 6 38 rrcurveto
          41 258 rmoveto
          7 45 rlineto
          11 70 22 -1 50 0 rrcurveto
          146 hlineto
          46 0 15 -11 -9 -58 rrcurveto
          -7 -45 rlineto
          -4 -28 -10 -31 -57 0 rrcurveto
          -156 hlineto
          -27 0 -35 7 8 52 rrcurveto
          endchar
        </CharString>
        <CharString name="eight.tnum">
          57 0 74 263 73 253 74 hstem
          96 154 rmoveto
          -81 callsubr
          58 -101 rmoveto
          -80 callsubr
          54 343 rmoveto
          -79 callsubr
          endchar
        </CharString>
        <CharString name="eight.tosf">
          57 0 74 263 73 253 74 hstem
          92 154 rmoveto
          -81 callsubr
          58 -101 rmoveto
          -80 callsubr
          54 343 rmoveto
          -79 callsubr
          endchar
        </CharString>
        <CharString name="eightinferior">
          -157 -202 63 147 63 146 62 hstem
          50 -98 rmoveto
          51 callsubr
          53 -54 rmoveto
          52 callsubr
          35 220 rmoveto
          53 callsubr
          endchar
        </CharString>
        <CharString name="eightsuperior">
          -158 354 63 147 63 146 62 hstem
          122 458 rmoveto
          51 callsubr
          53 -54 rmoveto
          52 callsubr
          35 220 rmoveto
          53 callsubr
          endchar
        </CharString>
        <CharString name="ellipsis">
          201 0 105 hstem
          145.356994629 23 rmoveto
          70 callsubr
          263.027999878 -57 rmoveto
          70 callsubr
          263.027999878 -57 rmoveto
          70 callsubr
          endchar
        </CharString>
        <CharString name="emacron">
          -38 -7 71 403 74 60 63 hstem
          216.658996582 302 vstem
          216.658203125 601 rmoveto
          14 callsubr
          -137.658203125 -386 rmoveto
          -23 callsubr
          74 3 rmoveto
          -22 callsubr
          endchar
        </CharString>
        <CharString name="emacron.smcp">
          -47 -2 74 -60 60 175 76 -69 61 183 61 -61 73 61 63 hstemhm
          230 302 hintmask 00000011
          230 632 rmoveto
          14 callsubr
          hintmask 10000000
          -148 -612 rmoveto
          90 callsubr
          hintmask 01000000
          91 callsubr
          hintmask 10100000
          92 callsubr
          hintmask 00010000
          93 callsubr
          hintmask 00100100
          94 callsubr
          hintmask 00001000
          95 callsubr
          hintmask 10000100
          96 callsubr
          endchar
        </CharString>
        <CharString name="emdash">
          173 252 75 hstem
          59 252 rmoveto
          60 callsubr
          endchar
        </CharString>
        <CharString name="emdash.alt">
          174 322 75 hstem
          71 322 rmoveto
          60 callsubr
          endchar
        </CharString>
        <CharString name="emdash.smcp">
          173 239 75 hstem
          57 239 rmoveto
          60 callsubr
          endchar
        </CharString>
        <CharString name="endash">
          -106 250 75 hstem
          60 250 rmoveto
          59 callsubr
          endchar
        </CharString>
        <CharString name="endash.alt">
          -50 320 75 hstem
          70 320 rmoveto
          59 callsubr
          endchar
        </CharString>
        <CharString name="endash.smcp">
          -50 235 75 hstem
          57 235 rmoveto
          59 callsubr
          endchar
        </CharString>
        <CharString name="eng">
          -9 -268 38 251 -21 466 74 -9 -20 hstemhm
          144 55 hintmask 11101000
          60 hmoveto
          74 0 65 409 rlineto
          83 37 42 20 80 0 51 0 34 -30 -10 -66 rrcurveto
          -59 -370 -15 -94 rlineto
          -15 -84 -81 -29 -45 -23 rrcurveto
          24 -38 rlineto
          69 20 92 22 30 136 rrcurveto
          15 90 59 370 rlineto
          14 88 -45 82 -106 0 -81 0 -60 -36 -67 -35 rrcurveto
          hintmask 11011000
          -12 62 -52 0 rlineto
          endchar
        </CharString>
        <CharString name="eng.smcp">
          36 -212 62 167 -21 hstem
          70 -4 rmoveto
          73 0 73 448 241 -443 -8 -50 rlineto
          -25 -83 -57 -18 -47 0 rrcurveto
          -11 -62 rlineto
          108 -8 85 66 18 92 rrcurveto
          11 68 89 564 -73 0 -71 -448 -244 448 -71 0 rlineto
          endchar
        </CharString>
        <CharString name="eogonek">
          -38 -159 60 92 71 -62 20 445 74 hstemhm
          hintmask 10100000
          428 22 rmoveto
          62 callsubr
          hintmask 01010000
          -376 256 rmoveto
          -23 callsubr
          74 3 rmoveto
          -22 callsubr
          endchar
        </CharString>
        <CharString name="eogonek.smcp">
          -47 -168 60 101 20 -15 74 -60 60 175 76 -69 61 183 61 -61 73 hstemhm
          hintmask 11000000
          433 13 rmoveto
          62 callsubr
          hintmask 00100000
          -380 70 rmoveto
          90 callsubr
          hintmask 00010000
          91 callsubr
          hintmask 00101000
          92 callsubr
          hintmask 00000100
          93 callsubr
          hintmask 00001001
          94 callsubr
          hintmask 00000010
          95 callsubr
          hintmask 00100001
          96 callsubr
          endchar
        </CharString>
        <CharString name="equal">
          -96 212 74 135 74 hstem
          53 212 rmoveto
          427 0 13 74 -427 0 rlineto
          19 135 rmoveto
          427 0 13 74 -427 0 rlineto
          endchar
        </CharString>
        <CharString name="estimated">
          153 0 21 237 17 239 19 hstem
          98 111 379 112 vstem
          98 266 rmoveto
          0 -78 28 -63 55 -51 55 -51 67 -23 96 0 62 0 30 6 42 16 40 16 35 27 38 40 rrcurveto
          -56 hlineto
          -43 -48 -72 -36 -76 0 rrcurveto
          -114 -76 66 27 hvcurveto
          133 vlineto
          13 5 -2 7 vhcurveto
          479 hlineto
          -4 89 -31 75 -58 45 -58 45 -61 21 -89 0 -97 0 -64 -25 -56 -50 -55 -52 -29 -62 0 -78 rrcurveto
          111 18 rmoveto
          137 vlineto
          23 81 70 108 86 104 -57 -42 vhcurveto
          -133 vlineto
          -10 -1 3 -12 vhcurveto
          -357 hlineto
          -5 -4 0 9 hvcurveto
          endchar
        </CharString>
        <CharString name="eth">
          -26 0 74 383 74 187 65 hstem
          79 258 rmoveto
          -23 -133 20 -125 137 0 rrcurveto
          108 hlineto
          137 0 51 83 28 175 15 96 19 198 -81 123 rrcurveto
          97 36 -16 60 -125 -47 rlineto
          -46 40 -62 19 -92 0 rrcurveto
          -10 -65 rlineto
          37 2 50 -3 39 -23 rrcurveto
          -116 -44 15 -60 154 58 rlineto
          31 -37 15 -49 7 -46 -12 15 -50 0 -6 0 rrcurveto
          -103 hlineto
          -135 0 -51 -85 -32 -188 rrcurveto
          74 hmoveto
          28 166 42 33 66 0 rrcurveto
          100 hlineto
          84 0 14 -49 -24 -150 -26 -162 -52 -23 -54 1 rrcurveto
          -108 hlineto
          -55 -2 -42 24 27 162 rrcurveto
          endchar
        </CharString>
        <CharString name="eth.smcp">
          51 0 74 189 54 181 74 hstem
          20 263 rmoveto
          125 callsubr
          115 -243 rmoveto
          126 callsubr
          endchar
        </CharString>
        <CharString name="exclam">
          -298 0 105 626 -20 hstem
          122 75 vstem
          85 23 rmoveto
          -107 callsubr
          28 120 rmoveto
          75 0 91 531 -89 0 rlineto
          endchar
        </CharString>
        <CharString name="exclam.smcp">
          -299 0 105 hstem
          117 75 vstem
          85 23 rmoveto
          -107 callsubr
          23 87 rmoveto
          75 0 71 403 -89 0 rlineto
          endchar
        </CharString>
        <CharString name="exclamdown">
          -292 360 102 hstem
          45 207 vstem
          45 -269 rmoveto
          97 0 73 531 -75 0 rlineto
          7 123 rmoveto
          9 callsubr
          endchar
        </CharString>
        <CharString name="exclamdown.alt">
          -254 22 -21 531 -20 118 102 hstem
          92 206 vstem
          92 1 rmoveto
          89 0 76 531 -75 0 rlineto
          11 123 rmoveto
          9 callsubr
          endchar
        </CharString>
        <CharString name="exclamdown.smcp">
          -297 21 -21 465 105 hstem
          89 178 vstem
          89 hmoveto
          89 0 52 403 -75 0 rlineto
          1 87 rmoveto
          29 callsubr
          endchar
        </CharString>
        <CharString name="f">
          -160 21 -21 457 74 -74 55 200 73 -73 49 hstemhm
          hintmask 10100000
          92 457 rmoveto
          -21 callsubr
          hintmask 11010000
          -20 callsubr
          hintmask 10001000
          7 49 rlineto
          hintmask 11010000
          -19 callsubr
          hintmask 10100000
          -104 -19 rlineto
          endchar
        </CharString>
        <CharString name="f.salt">
          -198 21 -21 457 74 181 74 hstem
          60 hmoveto
          141 callsubr
          endchar
        </CharString>
        <CharString name="f.smcp">
          -46 21 -21 244 76 -69 61 186 73 -73 61 hstemhm
          hintmask 11000000
          80 hmoveto
          74 0 39 244 rlineto
          hintmask 10100000
          287 7 9 61 rlineto
          hintmask 11010000
          97 callsubr
          hintmask 10001000
          95 callsubr
          hintmask 11010000
          98 callsubr
          endchar
        </CharString>
        <CharString name="f.superior">
          -249 672 62 -62 49 124 58 -58 41 hstemhm
          121 311 hintmask 01001000
          121 672 rmoveto
          73 0 -47 -294 62 0 47 294 rlineto
          hintmask 10101000
          109 0 10 62 -107 0 6 32 rlineto
          5 31 7 48 48 0 rrcurveto
          89 0 rlineto
          hintmask 00011000
          9 41 rlineto
          hintmask 01101000
          -35 10 -31 7 -37 0 -90 0 -20 -94 -6 -36 rrcurveto
          -7 -41 -77 -11 rlineto
          endchar
        </CharString>
        <CharString name="f_f">
          228 21 -21 457 74 -74 57 190 72 -72 49 -39 72 -72 49 hstemhm
          hintmask 10100000
          92 457 rmoveto
          71 callsubr
          hintmask 11000000
          316 0 -72 -457 74 0 rlineto
          hintmask 10100000
          72 457 rlineto
          hintmask 11000100
          148 0 12 74 -146 0 15 99 rlineto
          8 48 9 36 63 0 rrcurveto
          121 0 rlineto
          hintmask 10000010
          8 49 rlineto
          hintmask 11000100
          -47 15 -39 8 -49 0 -120 0 -19 -102 -9 -54 rrcurveto
          -15 -99 -316 0 14 89 rlineto
          hintmask 10010000
          8 48 8 36 63 0 rrcurveto
          121 0 rlineto
          hintmask 10001000
          8 49 rlineto
          hintmask 11010000
          74 callsubr
          hintmask 10100000
          -102 -17 rlineto
          endchar
        </CharString>
        <CharString name="f_f_i">
          409 21 -21 457 74 -74 64 -64 57 190 72 -72 49 -39 72 -72 49 hstemhm
          hintmask 10010000
          92 457 rmoveto
          71 callsubr
          hintmask 11000000
          286 0 -72 -457 74 0 rlineto
          hintmask 10010000
          72 457 rlineto
          hintmask 10100000
          286 0 -72 -457 75 0 82 521 rlineto
          hintmask 11000010
          -357 10 8 53 rlineto
          17 108 79 22 64 0 rrcurveto
          169 0 rlineto
          hintmask 10000001
          8 49 rlineto
          hintmask 11000010
          -47 15 -64 8 -72 0 -119 0 -89 -74 -20 -128 rrcurveto
          -8 -53 -288 0 16 89 rlineto
          hintmask 10001000
          75 callsubr
          hintmask 10000100
          8 49 rlineto
          hintmask 11001000
          74 callsubr
          hintmask 10010000
          -102 -17 rlineto
          endchar
        </CharString>
        <CharString name="f_t">
          203 1 56 400 57 -56 74 182 72 -72 49 hstemhm
          642 56 hintmask 11000100
          92 457 rmoveto
          97 0 -72 -457 74 0 rlineto
          hintmask 10110100
          72 458 326 0 -40 -268 rlineto
          -21 -140 51 -49 83 0 rrcurveto
          68 0 9 56 rlineto
          -1 -75 18 0 hvcurveto
          -39 9 -16 7 15 99 rrcurveto
          40 268 155 0 12 74 -155 0 23 148 -56 0 -41 -148 -324 0 15 98 rlineto
          8 48 9 36 63 0 rrcurveto
          121 0 rlineto
          hintmask 10001100
          8 49 rlineto
          hintmask 11010100
          -47 15 -39 8 -49 0 -120 0 -19 -102 -9 -54 rrcurveto
          -15 -99 -102 -17 rlineto
          endchar
        </CharString>
        <CharString name="f_y">
          377 -271 53 239 -21 457 74 -74 57 200 72 -72 49 hstemhm
          hintmask 11010000
          92 457 rmoveto
          71 callsubr
          hintmask 11101000
          173 hlineto
          57 0 19 -8 8 -39 rrcurveto
          53 -302 rlineto
          18 -100 64 -10 25 0 -37 -71 -48 -92 -81 -53 rrcurveto
          -53 vlineto
          111 22 61 92 80 156 rrcurveto
          223 436 rlineto
          15 31 5 32 -11 33 rrcurveto
          -61 hlineto
          -6 -37 -6 -16 -13 -27 rrcurveto
          -189 -376 rlineto
          0 0 -63 -10 -9 49 rrcurveto
          -54 296 rlineto
          -15 82 -38 39 -96 0 rrcurveto
          -171 0 15 99 rlineto
          8 48 9 36 63 0 rrcurveto
          121 0 rlineto
          hintmask 11000100
          8 49 rlineto
          hintmask 11101000
          -47 15 -39 8 -49 0 -120 0 -19 -102 -9 -54 rrcurveto
          -15 -99 rlineto
          hintmask 11010000
          -102 -17 rlineto
          endchar
        </CharString>
        <CharString name="ffl">
          513 0 53 404 74 -74 57 190 72 -72 49 -39 72 hstemhm
          hintmask 10100000
          92 457 rmoveto
          71 callsubr
          hintmask 11000000
          286 0 -72 -457 74 0 rlineto
          hintmask 10100000
          72 457 rlineto
          hintmask 11000100
          148 0 12 74 -146 0 8 53 rlineto
          17 108 46 22 64 0 rrcurveto
          176 0 -81 -525 rlineto
          -22 -141 30 -48 94 0 rrcurveto
          88 0 8 53 rlineto
          -7 -79 21 0 hvcurveto
          -41 12 -11 16 14 87 rrcurveto
          94 597 -269 0 rlineto
          -126 -4 -52 -90 -17 -108 rrcurveto
          -8 -53 -288 0 16 89 rlineto
          hintmask 10010000
          75 callsubr
          hintmask 10001000
          8 49 rlineto
          hintmask 11010000
          74 callsubr
          hintmask 10100000
          -102 -17 rlineto
          endchar
        </CharString>
        <CharString name="fi">
          16 21 -21 457 74 -74 64 -64 57 189 83 hstemhm
          hintmask 10011000
          60 457 rmoveto
          71 callsubr
          hintmask 10101000
          287 0 -72 -457 75 0 82 521 rlineto
          hintmask 11001000
          -358 10 8 53 rlineto
          17 109 85 25 58 -4 rrcurveto
          0 169 -11 1 vhcurveto
          8 49 rlineto
          -47 15 -84 19 -53 0 -125 0 -83 -75 -20 -127 rrcurveto
          -8 -53 rlineto
          hintmask 10011000
          -102 -17 rlineto
          endchar
        </CharString>
        <CharString name="five">
          40 -5 79 -55 55 298 75 211 74 hstemhm
          hintmask 01110000
          79 19 rmoveto
          hintmask 10110000
          130 -23 44 -2 126 1 92 1 76 32 22 137 rrcurveto
          17 110 rlineto
          15 100 -60 71 -91 0 -29 0 -57 6 -52 -5 -37 -3 -34 -9 -18 -19 rrcurveto
          51 242 352 0 12 74 -423 0 -91 -435 69 0 rlineto
          9 54 47 21 39 0 rrcurveto
          151 hlineto
          86 0 -8 -70 -5 -29 rrcurveto
          -17 -106 rlineto
          -6 -38 -28 -55 -69 0 rrcurveto
          hintmask 01110000
          -304 hlineto
          endchar
        </CharString>
        <CharString name="five.denominator">
          -144 -5 62 -48 48 174 62 119 62 hstemhm
          83 56 hintmask 01111000
          56 9 rmoveto
          hintmask 10111000
          47 callsubr
          endchar
        </CharString>
        <CharString name="five.numerator">
          -144 251 62 -48 48 174 62 119 62 hstemhm
          123 56 hintmask 01111000
          96 265 rmoveto
          hintmask 10111000
          47 callsubr
          endchar
        </CharString>
        <CharString name="five.oldstyle">
          29 -79 55 296 75 211 74 hstem
          39 -79 rmoveto
          130 -23 45 -8 125 7 91 5 77 28 22 137 rrcurveto
          17 108 rlineto
          16 100 -61 71 -91 0 -28 0 -57 5 -51 -4 -37 -3 -34 -9 -19 -19 rrcurveto
          51 242 351 0 12 74 -423 0 -91 -435 70 0 rlineto
          9 54 47 21 39 0 rrcurveto
          150 hlineto
          86 0 -8 -70 -5 -29 rrcurveto
          -17 -104 rlineto
          -6 -38 -28 -55 -69 0 rrcurveto
          -304 hlineto
          endchar
        </CharString>
        <CharString name="five.smcp">
          -23 -1 79 -55 55 206 74 138 74 hstemhm
          hintmask 01110000
          79 23 rmoveto
          hintmask 10110000
          79 -23 64 -2 100 1 113 1 51 39 18 113 rrcurveto
          10 63 rlineto
          10 66 -27 77 -118 0 -28 0 -37 3 -35 -5 -27 -4 -25 -9 -19 -20 rrcurveto
          35 173 290 0 12 74 -361 0 -75 -361 70 0 rlineto
          9 54 37 21 39 0 rrcurveto
          103 hlineto
          86 0 -8 -40 -5 -31 rrcurveto
          -9 -59 rlineto
          -7 -44 -20 -32 -69 0 rrcurveto
          -247 hlineto
          endchar
        </CharString>
        <CharString name="five.tnum">
          57 23 55 296 75 211 74 hstem
          79 23 rmoveto
          72 callsubr
          endchar
        </CharString>
        <CharString name="five.tosf">
          57 -79 55 296 75 211 74 hstem
          63 -79 rmoveto
          72 callsubr
          endchar
        </CharString>
        <CharString name="fiveinferior">
          -155 -205 62 -48 48 174 62 119 62 hstemhm
          34 56 hintmask 01111000
          7 -191 rmoveto
          hintmask 10111000
          47 callsubr
          endchar
        </CharString>
        <CharString name="fivesuperior">
          -154 351 62 -48 48 174 62 119 62 hstemhm
          hintmask 01110000
          79 365 rmoveto
          hintmask 10110000
          47 callsubr
          endchar
        </CharString>
        <CharString name="fl">
          127 0 56 401 74 -74 55 200 72 hstemhm
          hintmask 10110000
          92 457 rmoveto
          -21 callsubr
          hintmask 11010000
          166 0 12 74 -165 0 6 36 rlineto
          17 114 49 31 69 0 rrcurveto
          185 0 -83 -523 rlineto
          -22 -140 52 -49 83 0 rrcurveto
          68 0 9 56 rlineto
          -1 -74 18 0 hvcurveto
          -39 9 -18 7 16 99 rrcurveto
          94 595 -266 0 rlineto
          -116 0 -72 -60 -25 -157 rrcurveto
          -6 -36 rlineto
          hintmask 10110000
          -104 -19 rlineto
          endchar
        </CharString>
        <CharString name="florin">
          -121 -204 74 -49 49 527 74 255 74 -74 49 hstemhm
          hintmask 01100000
          -8 -179 rmoveto
          hintmask 10110000
          6 -4 52 -21 39 0 132 0 28 133 25 159 rrcurveto
          48 309 141 0 13 74 -141 0 5 35 rlineto
          17 99 22 121 70 0 rrcurveto
          88 0 rlineto
          hintmask 00101000
          7 49 rlineto
          hintmask 10110000
          -6 2 -40 23 -49 0 -117 0 -44 -135 -25 -159 rrcurveto
          -5 -34 -102 0 -13 -75 102 0 -48 -309 rlineto
          -15 -99 -23 -119 -70 0 rrcurveto
          -90 hlineto
          endchar
        </CharString>
        <CharString name="four">
          40 23 -21 185 78 -59 59 467 -20 hstemhm
          hintmask 11010000
          55 224 rmoveto
          -88 callsubr
          hintmask 10110000
          -87 callsubr
          hintmask 11010000
          -86 callsubr
          endchar
        </CharString>
        <CharString name="four.denominator">
          -147 21 -21 120 65 -52 52 hstemhm
          hintmask 11000000
          38 144 rmoveto
          26 callsubr
          hintmask 10100000
          27 callsubr
          hintmask 11000000
          46 callsubr
          endchar
        </CharString>
        <CharString name="four.numerator">
          -146 376 65 -52 52 hstemhm
          hintmask 10000000
          79 400 rmoveto
          26 callsubr
          hintmask 01000000
          27 callsubr
          hintmask 10000000
          46 callsubr
          endchar
        </CharString>
        <CharString name="four.oldstyle">
          40 87 78 -59 59 hstemhm
          hintmask 10000000
          54 124 rmoveto
          -88 callsubr
          hintmask 01000000
          -87 callsubr
          hintmask 10000000
          -86 callsubr
          endchar
        </CharString>
        <CharString name="four.smcp">
          -21 23 -21 136 78 -59 59 hstemhm
          hintmask 11000000
          47 175 rmoveto
          28 -37 305 0 -21 -136 74 0 21 136 rlineto
          hintmask 10100000
          93 19 9 59 -90 0 39 240 -37 0 -49 -75 -27 -165 rlineto
          hintmask 11000000
          -224 0 258 354 -88 0 rlineto
          endchar
        </CharString>
        <CharString name="four.tnum">
          57 23 -21 185 78 -59 59 467 -20 hstemhm
          hintmask 11010000
          53 224 rmoveto
          -88 callsubr
          hintmask 10110000
          -87 callsubr
          hintmask 11010000
          -86 callsubr
          endchar
        </CharString>
        <CharString name="four.tosf">
          57 87 78 -59 59 hstemhm
          hintmask 10000000
          47 124 rmoveto
          -88 callsubr
          hintmask 01000000
          -87 callsubr
          hintmask 10000000
          -86 callsubr
          endchar
        </CharString>
        <CharString name="fourinferior">
          -135 -80 65 -52 52 hstemhm
          hintmask 10000000
          4 -56 rmoveto
          26 callsubr
          hintmask 01000000
          27 callsubr
          hintmask 10000000
          46 callsubr
          endchar
        </CharString>
        <CharString name="foursuperior">
          -95 476 65 -52 52 hstemhm
          hintmask 10000000
          115 500 rmoveto
          26 callsubr
          hintmask 01000000
          27 callsubr
          hintmask 10000000
          46 callsubr
          endchar
        </CharString>
        <CharString name="fraction">
          -330 21 -21 732 -20 hstem
          -90 hmoveto
          65 0 463.93800354 732 -65 0 rlineto
          endchar
        </CharString>
        <CharString name="g">
          -10 -248 49 190 73 399 74 hstem
          37 -248 rmoveto
          -18 callsubr
          120 467 rmoveto
          -17 callsubr
          endchar
        </CharString>
        <CharString name="g.salt">
          -46 -270 75 343 75 236 74 hstem
          19 -116 rmoveto
          67 callsubr
          30 -230 rmoveto
          68 callsubr
          76 460 rmoveto
          69 callsubr
          endchar
        </CharString>
        <CharString name="g.smcp">
          14 -7 73 -45 -21 237 74 -74 49 219 74 hstemhm
          466 56 hintmask 10001100
          100 309 rmoveto
          99 callsubr
          hintmask 01101100
          100 callsubr
          hintmask 00011100
          101 callsubr
          hintmask 10101100
          102 callsubr
          endchar
        </CharString>
        <CharString name="g.superior">
          -154 210 43 116 61 247 62 hstem
          98 210 rmoveto
          191 -16 rlineto
          52 -5 71 25 15 93 rrcurveto
          66 415 rlineto
          -35 3 -79 14 -80 0 -88 0 -58 -53 -22 -121 -18 -102 33 -94 102 0 34 0 47 8 51 20 rrcurveto
          -13 -81 rlineto
          -7 -42 -27 -21 -40 0 rrcurveto
          -188 hlineto
          88 303 rmoveto
          8 37 14 84 80 0 rrcurveto
          129 0 -37 -231 rlineto
          -64 -14 -11 -2 -56 0 -81 0 11 92 7 34 rrcurveto
          endchar
        </CharString>
        <CharString name="gbreve">
          -10 -248 49 190 73 399 74 60 46 hstem
          286.231994629 46 135 46 vstem
          286.232421875 711 rmoveto
          61 callsubr
          -295.232421875 -959 rmoveto
          -18 callsubr
          120 467 rmoveto
          -17 callsubr
          endchar
        </CharString>
        <CharString name="gbreve.salt">
          -46 -270 75 343 75 236 74 63 46 hstem
          257.167999268 46 135 46 vstem
          257.16796875 710 rmoveto
          61 callsubr
          -284.16796875 -826 rmoveto
          67 callsubr
          30 -230 rmoveto
          68 callsubr
          76 460 rmoveto
          69 callsubr
          endchar
        </CharString>
        <CharString name="gbreve.smcp">
          14 -7 73 -66 21 216 49 -49 74 194 74 60 46 hstemhm
          283.231994629 46 135 46 -44.2319946289 56 hintmask 0000010000000000
          283.232421875 753 rmoveto
          61 callsubr
          hintmask 1000100010000000
          -229.232421875 -444 rmoveto
          99 callsubr
          hintmask 0101100010000000
          100 callsubr
          hintmask 0010100010000000
          101 callsubr
          hintmask 1001100010000000
          102 callsubr
          endchar
        </CharString>
        <CharString name="gcircumflex">
          -10 -248 49 190 73 399 74 60 130 hstem
          224.667007446 292 vstem
          224.666992188 597 rmoveto
          30 callsubr
          -325.666992188 -975 rmoveto
          -18 callsubr
          120 467 rmoveto
          -17 callsubr
          endchar
        </CharString>
        <CharString name="gcircumflex.salt">
          -46 -270 75 343 75 236 74 63 130 hstem
          198.602005005 292 vstem
          198.6015625 596 rmoveto
          30 callsubr
          -317.6015625 -842 rmoveto
          67 callsubr
          30 -230 rmoveto
          68 callsubr
          76 460 rmoveto
          69 callsubr
          endchar
        </CharString>
        <CharString name="gcircumflex.smcp">
          14 -7 73 -66 21 216 49 -49 74 194 74 60 130 hstemhm
          247 292 -73 56 hintmask 00000110
          247 639 rmoveto
          30 callsubr
          hintmask 10001001
          -285 -460 rmoveto
          99 callsubr
          hintmask 01011001
          100 callsubr
          hintmask 00101001
          101 callsubr
          hintmask 10011001
          102 callsubr
          endchar
        </CharString>
        <CharString name="gcommaaccent">
          -248 49 190 73 399 74 202 29 hstem
          38 -248 rmoveto
          -18 callsubr
          120 467 rmoveto
          -17 callsubr
          167 349 rmoveto
          -2 -14 3 -10 16 0 rrcurveto
          46 hlineto
          15 0 9 8 3 16 rrcurveto
          7 49 rlineto
          2 15 -8 7 -13 0 rrcurveto
          -10 0 4 23 rlineto
          2 10 3 19 27 -1 rrcurveto
          5 29 rlineto
          0 0 -83 16 -14 -86 rrcurveto
          endchar
        </CharString>
        <CharString name="gcommaaccent.salt">
          -46 -270 77 341 75 236 74 206 29 hstem
          19 -116 rmoveto
          67 callsubr
          30 -230 rmoveto
          29 137 211 -31 rlineto
          51 -8 32 -23 -7 -47 rrcurveto
          -5 -28 rlineto
          -7 -47 -22 -30 -59 0 rrcurveto
          -150 hlineto
          -36 0 -53 0 16 77 rrcurveto
          76 460 rmoveto
          69 callsubr
          141 273 rmoveto
          -2 -14 4 -10 16 0 rrcurveto
          46 hlineto
          15 0 8 8 3 16 rrcurveto
          8 49 rlineto
          2 15 -8 7 -13 0 rrcurveto
          -10 0 3 23 rlineto
          2 10 4 19 27 -1 rrcurveto
          4 29 rlineto
          0 0 -82 16 -14 -86 rrcurveto
          endchar
        </CharString>
        <CharString name="gcommaaccent.smcp">
          14 -244.199996948 28.8000030518 208.399993896 73 -45 -21 237 74 -74 49 219 74 hstemhm
          466 56 hintmask 11000110
          100 309 rmoveto
          99 callsubr
          hintmask 10110110
          100 callsubr
          hintmask 10001110
          101 callsubr
          hintmask 11010110
          102 callsubr
          150.100006104 -451.5 rmoveto
          -2.70001220703 -15.3000030518 9 -7.19999694824 12.6000061035 0 rrcurveto
          9.89999389648 0 -3.60000610352 -22.5 rlineto
          -1.79998779297 -9.89999389648 -3.60000610352 -18.9000091553 -27 0.900009155273 rrcurveto
          -4.5 -28.8000030518 rlineto
          0 1.52587890625e-05 82.8000030518 -16.1999969482 13.5 85.5 rrcurveto
          12.6000061035 80.9996032715 rlineto
          1.80001831055 13.4999847412 -2.70001220703 10.8008117676 -16.1999969482 0 rrcurveto
          -45.8999938965 hlineto
          -14.3999938965 1.52587890625e-05 -9.89999389648 -8.10060119629 -2.69999694824 -16.2002105713 rrcurveto
          endchar
        </CharString>
        <CharString name="gdotaccent">
          -10 -248 49 190 73 399 74 60 102 hstem
          345.589996338 106 vstem
          345.58984375 620 rmoveto
          39 callsubr
          -317.58984375 -922 rmoveto
          -18 callsubr
          120 467 rmoveto
          -17 callsubr
          endchar
        </CharString>
        <CharString name="gdotaccent.salt">
          -46 -270 75 343 75 236 74 63 102 hstem
          307.526000977 106 vstem
          307.526367188 619 rmoveto
          39 callsubr
          -297.526367188 -789 rmoveto
          67 callsubr
          30 -230 rmoveto
          68 callsubr
          76 460 rmoveto
          69 callsubr
          endchar
        </CharString>
        <CharString name="gdotaccent.smcp">
          14 -7 73 -66 21 216 49 -49 74 194 74 60 102 hstemhm
          353.589996338 106 6.41000366211 56 hintmask 00000100
          353.58984375 662 rmoveto
          39 callsubr
          hintmask 10001001
          -262.58984375 -407 rmoveto
          99 callsubr
          hintmask 01011001
          100 callsubr
          hintmask 00101001
          101 callsubr
          hintmask 10011001
          102 callsubr
          endchar
        </CharString>
        <CharString name="germandbls">
          7 -8 74 -45 -21 703 74 hstemhm
          hintmask 01100000
          60 hmoveto
          74 0 90 566 rlineto
          18 114 74 23 88 0 84 0 57 -11 -10 -80 -6 -44 -25 -37 -38 -21 -118 -64 -15 -22 -11 -76 -23 -154 213 57 -13 -82 rrcurveto
          -7 -37 rlineto
          hintmask 10100000
          -8 -40 -36 -26 -42 0 -69 0 -67 5 -40 0 rrcurveto
          -9 -60 rlineto
          37 -4 65 -15 68 0 63 0 99 23 16 109 rrcurveto
          7 47 rlineto
          24 150 -217 -68 17 99 10 59 59 18 43 24 111 63 78 261 -295 0 -167 0 -71 -95 -18 -116 rrcurveto
          endchar
        </CharString>
        <CharString name="germandbls.smcp">
          425 -10 74 179 74 183 73 hstem
          60 12 rmoveto
          116 callsubr
          470 -55 rmoveto
          116 callsubr
          endchar
        </CharString>
        <CharString name="grave">
          -309 531 133 hstem
          125 193 vstem
          125 664 rmoveto
          -33 callsubr
          endchar
        </CharString>
        <CharString name="grave.smcp">
          -309 531 133 hstem
          125 193 vstem
          125 664 rmoveto
          -33 callsubr
          endchar
        </CharString>
        <CharString name="greater">
          -88 72 140 rmoveto
          403 174 12 80 -349 162 -13 -70 276 -132 -316 -132 rlineto
          endchar
        </CharString>
        <CharString name="greaterequal">
          -113 104 74 hstem
          66 104 rmoveto
          376 0 12 74 -376 0 rlineto
          7 50 rmoveto
          402 174 13 80 -349 162 -13 -70 276 -132 -316 -132 rlineto
          endchar
        </CharString>
        <CharString name="guillemotleft">
          -7 106 354 rmoveto
          13 callsubr
          -48 -203 rmoveto
          13 callsubr
          endchar
        </CharString>
        <CharString name="guillemotright">
          -10 81 200 rmoveto
          24 callsubr
          11 -156 rmoveto
          24 callsubr
          endchar
        </CharString>
        <CharString name="guilsinglleft">
          -262 38 284 vstem
          38 354 rmoveto
          13 callsubr
          endchar
        </CharString>
        <CharString name="guilsinglright">
          -203 106 284 vstem
          106 200 rmoveto
          24 callsubr
          endchar
        </CharString>
        <CharString name="h">
          21 -21 466 74 244 -20 hstem
          60 hmoveto
          -16 callsubr
          endchar
        </CharString>
        <CharString name="h.smcp">
          35 20 -21 239 74 hstem
          79 -1 rmoveto
          103 callsubr
          endchar
        </CharString>
        <CharString name="h.superior">
          -117 677 62 hstem
          127 378 rmoveto
          62 0 42 263 rlineto
          62 24 24 12 54 0 36 0 28 -20 -7 -43 rrcurveto
          -37 -236 62 0 39 247 rlineto
          9 59 -34 55 -80 0 -61 0 -38 -28 -50 -26 rrcurveto
          34 216 -62 0 rlineto
          endchar
        </CharString>
        <CharString name="hbar">
          -26 21 -21 466 74 70 54 120 -20 hstem
          60 hmoveto
          77 0 65 409 rlineto
          83 37 58 19 54 1 51 1 34 -31 -10 -66 rrcurveto
          -59 -370 74 0 59 370 rlineto
          14 88 -45 82 -106 0 -66 1 -65 -37 -67 -35 rrcurveto
          23 141 134 0 8 54 -134 0 19 120 -77 0 -19 -120 -77 0 -8 -54 77 0 rlineto
          endchar
        </CharString>
        <CharString name="hbar.smcp">
          35 20 -21 240 74 86 51 hstem
          70 -1 rmoveto
          74 0 39 240 293 0 -39 -240 74 0 64 400 46 0 7 51 -46 0 19 120 -74 0 -19 -120 -293 0 19 120 -74 0 rlineto
          -19 -120 -48 0 -7 -51 48 0 rlineto
          60 -86 rmoveto
          14 86 293 0 -14 -86 rlineto
          endchar
        </CharString>
        <CharString name="hcircumflex">
          0 21 445 74 224 20 60 130 hstem
          104 292 vstem
          104 844 rmoveto
          30 callsubr
          -156 -974 rmoveto
          -16 callsubr
          endchar
        </CharString>
        <CharString name="hcircumflex.smcp">
          35 -1 21 218 74 318 130 hstem
          262.410003662 292 vstem
          262.41015625 630 rmoveto
          30 callsubr
          -321.41015625 -761 rmoveto
          103 callsubr
          endchar
        </CharString>
        <CharString name="hungarumlaut">
          -105 531 133 hstem
          154 531 rmoveto
          19 callsubr
          7 -133 rmoveto
          19 callsubr
          endchar
        </CharString>
        <CharString name="hyphen">
          -208 253 74 hstem
          60 326 vstem
          60 253 rmoveto
          -98 callsubr
          endchar
        </CharString>
        <CharString name="hyphen.alt">
          -208 323 74 hstem
          71 326 vstem
          71 323 rmoveto
          -98 callsubr
          endchar
        </CharString>
        <CharString name="hyphen.smcp">
          -209 238 74 hstem
          57 326 vstem
          57 238 rmoveto
          -98 callsubr
          endchar
        </CharString>
        <CharString name="i">
          -368 21 -21 531 -20 82 102 hstem
          60 191 vstem
          60 hmoveto
          -15 callsubr
          2 85 rmoveto
          -14 callsubr
          endchar
        </CharString>
        <CharString name="i.smcp">
          -349 21 -21 hstem
          80 164 vstem
          80 hmoveto
          104 callsubr
          endchar
        </CharString>
        <CharString name="i.superior">
          -365 782 79 hstem
          125 145 vstem
          125 378 rmoveto
          62 0 56 356 -62 0 rlineto
          7 65 rmoveto
          -2 -11 6 -6 11 0 rrcurveto
          40 hlineto
          11 0 7 6 2 11 rrcurveto
          7 43 rlineto
          2 11 -5 8 -11 0 rrcurveto
          -40 hlineto
          -12 0 -7 -8 -2 -11 rrcurveto
          endchar
        </CharString>
        <CharString name="iacute">
          -368 0 21 490 20 65 133 hstemhm
          60 158 -63.0410003662 223 hintmask 00101000
          154.958984375 596 rmoveto
          19 callsubr
          hintmask 11010000
          -222.958984375 -729 rmoveto
          -15 callsubr
          endchar
        </CharString>
        <CharString name="iacute.smcp">
          -349 0 21 609 133 hstemhm
          80 164 -113.832992554 223 hintmask 01000000
          130.166992188 630 rmoveto
          19 callsubr
          hintmask 10100000
          -178.166992188 -763 rmoveto
          104 callsubr
          endchar
        </CharString>
        <CharString name="icircumflex">
          -368 0 21 490 20 65 130 hstemhm
          41.4589996338 292 -273.458999634 158 hintmask 00110000
          41.458984375 596 rmoveto
          30 callsubr
          hintmask 11001000
          -119.458984375 -726 rmoveto
          -15 callsubr
          endchar
        </CharString>
        <CharString name="icircumflex.smcp">
          -349 0 21 609 130 hstemhm
          64.6667022705 292 -276.666702271 164 hintmask 01000000
          64.6669921875 630 rmoveto
          30 callsubr
          hintmask 10010000
          -122.666992188 -760 rmoveto
          104 callsubr
          endchar
        </CharString>
        <CharString name="idieresis">
          -368 0 21 490 20 65 101 hstemhm
          13.5410003662 101 -54.5410003662 158 50.5410003662 101 hintmask 00100100
          13.541015625 647 rmoveto
          10 callsubr
          255 hmoveto
          10 callsubr
          hintmask 11001000
          -208.541015625 -647 rmoveto
          -15 callsubr
          endchar
        </CharString>
        <CharString name="idieresis.smcp">
          -349 0 21 609 101 hstemhm
          -5.25100708008 101 -15.7489929199 164 5.74899291992 101 hintmask 01001000
          -5.2509765625 681 rmoveto
          10 callsubr
          255 hmoveto
          10 callsubr
          hintmask 10010000
          -169.749023438 -681 rmoveto
          104 callsubr
          endchar
        </CharString>
        <CharString name="igrave">
          -368 0 21 490 20 65 133 hstemhm
          32.9589996338 193 -165.958999634 158 hintmask 00110000
          32.958984375 729 rmoveto
          -33 callsubr
          hintmask 11001000
          -59.958984375 -729 rmoveto
          -15 callsubr
          endchar
        </CharString>
        <CharString name="igrave.smcp">
          -349 0 21 609 133 hstemhm
          6.16700744629 193 -119.167007446 164 hintmask 01000000
          6.1669921875 763 rmoveto
          -33 callsubr
          hintmask 10010000
          -13.1669921875 -763 rmoveto
          104 callsubr
          endchar
        </CharString>
        <CharString name="imacron">
          -368 0 21 490 20 65 63 hstemhm
          43.4510040283 302 -285.451004028 158 hintmask 00100000
          43.451171875 596 rmoveto
          14 callsubr
          hintmask 11001000
          6.548828125 -659 rmoveto
          -15 callsubr
          endchar
        </CharString>
        <CharString name="imacron.smcp">
          -349 0 21 609 63 hstemhm
          63.658493042 302 -285.658493042 164 hintmask 01000000
          63.658203125 630 rmoveto
          14 callsubr
          hintmask 10010000
          6.341796875 -693 rmoveto
          104 callsubr
          endchar
        </CharString>
        <CharString name="infinity">
          120 169 74 197 74 hstem
          54 341 rmoveto
          -6 -80 35 -92 119 0 90 0 56 48 37 60 32 -78 55 -30 64 0 136 0 58 74 10 98 9 88 -28 85 -130 0 -76 0 -61 -47 -47 -58 rrcurveto
          -29 58 -55 47 -66 0 -138 0 -58 -78 -7 -95 rrcurveto
          74 hmoveto
          6 54 24 45 87 0 55 0 41 -49 24 -50 -41 -49 -41 -49 -69 0 -78 0 -14 48 6 50 rrcurveto
          301 hmoveto
          40 50 55 49 55 0 87 0 9 -44 -9 -55 -9 -55 -32 -43 -77 0 -69 0 -25 49 -25 49 rrcurveto
          endchar
        </CharString>
        <CharString name="integral">
          -121 -204 74 -49 49 856 74 -74 49 hstemhm
          hintmask 01000000
          -8 -179 rmoveto
          hintmask 10100000
          19 -14 37 -11 41 0 120 0 37 133 25 159 rrcurveto
          66 418 rlineto
          17 99 25 121 69 0 rrcurveto
          88 0 rlineto
          hintmask 00010000
          8 49 rlineto
          hintmask 10100000
          -17 7 -17 18 -61 0 -117 0 -44 -135 -25 -159 rrcurveto
          -66 -418 rlineto
          -17 -99 -20 -119 -70 0 rrcurveto
          -90 hlineto
          endchar
        </CharString>
        <CharString name="iogonek">
          -368 -174.92300415 60 101.00050354 20 -6.07749938965 21 490 20 62 102 hstemhm
          60 191 hintmask 00000000
          50.837890625 6.0771484375 rmoveto
          62 callsubr
          hintmask 00111100
          -29.837890625 -6.0771484375 rmoveto
          -15 callsubr
          2 85 rmoveto
          -14 callsubr
          endchar
        </CharString>
        <CharString name="iogonek.smcp">
          -349 -180.92300415 60 101.00050354 20 -0.0774993896484 21 hstemhm
          80 164 hintmask 00000000
          99.837890625 0.0771484375 rmoveto
          62 callsubr
          hintmask 00110000
          -58.837890625 -0.0771484375 rmoveto
          104 callsubr
          endchar
        </CharString>
        <CharString name="itilde">
          -368 0 21 490 20 66 70 -36 70 hstemhm
          60 158 hintmask 00010000
          16.19921875 637 rmoveto
          31 callsubr
          hintmask 00100000
          32 callsubr
          hintmask 00010000
          -15 42 rlineto
          hintmask 00100000
          33 callsubr
          hintmask 00010000
          34 callsubr
          hintmask 11001000
          43.80078125 -637 rmoveto
          -15 callsubr
          endchar
        </CharString>
        <CharString name="itilde.smcp">
          -349 0 21 610 70 -36 70 hstemhm
          83 164 hintmask 00100000
          48 671 rmoveto
          31 callsubr
          hintmask 01000000
          32 callsubr
          hintmask 00100000
          -15 42 rlineto
          hintmask 01000000
          33 callsubr
          hintmask 00100000
          34 callsubr
          hintmask 10010000
          35 -671 rmoveto
          104 callsubr
          endchar
        </CharString>
        <CharString name="j">
          -346 531 -20 82 102 hstem
          28 235 vstem
          28 -270 rmoveto
          48 hlineto
          37 92 18 88 13 86 rrcurveto
          85 535 -74 0 rlineto
          2 85 rmoveto
          -2 -14 8 -9 14 0 rrcurveto
          50 hlineto
          14 0 11 8 2 15 rrcurveto
          9 54 rlineto
          2 14 -6 11 -15 0 rrcurveto
          -50 hlineto
          -16 0 -10 -10 -2 -15 rrcurveto
          endchar
        </CharString>
        <CharString name="j.smcp">
          -230 21 54 hstem
          38 325 vstem
          38 21 rmoveto
          105 callsubr
          endchar
        </CharString>
        <CharString name="j.superior">
          -364 733 -20 69 80 hstem
          96 175 vstem
          96 196 rmoveto
          45 hlineto
          26 62 13 59 8 58 rrcurveto
          57 358 -64 0 rlineto
          8 67 rmoveto
          -2 -11 6 -7 11 0 rrcurveto
          40 hlineto
          11 0 7 7 2 11 rrcurveto
          7 43 rlineto
          2 11 -5 8 -11 0 rrcurveto
          -40 hlineto
          -12 0 -7 -8 -2 -11 rrcurveto
          endchar
        </CharString>
        <CharString name="jcircumflex">
          -354 531 -20 220 -20 hstem
          26 310 vstem
          26 -270 rmoveto
          53 hlineto
          37 92 18 88 13 86 rrcurveto
          85 535 -79 0 rlineto
          -109 66 rmoveto
          84 0 87 80 52 -80 69 0 -84 134 -71 0 rlineto
          endchar
        </CharString>
        <CharString name="jcircumflex.smcp">
          -230 21 54 555 130 hstemhm
          38 325 -184.332992554 292 hintmask 01010000
          178.666992188 630 rmoveto
          30 callsubr
          hintmask 10100000
          -278.666992188 -739 rmoveto
          105 callsubr
          endchar
        </CharString>
        <CharString name="k">
          -73 21 -21 531 -20 271 -20 hstem
          440 83 vstem
          60 hmoveto
          -13 callsubr
          endchar
        </CharString>
        <CharString name="k.smcp">
          -6 20 -21 243 74 hstem
          79 -1 rmoveto
          106 callsubr
          endchar
        </CharString>
        <CharString name="k.superior">
          -197 397 70 vstem
          127 378 rmoveto
          62 0 28 178 21 0 130 -178 79 0 -143 190 rlineto
          46 20 96 78 21 73 rrcurveto
          -70 hlineto
          -11 -51 -103 -77 -60 -18 rrcurveto
          49 306 -62 0 rlineto
          endchar
        </CharString>
        <CharString name="kcommaaccent">
          -73 -244.199996948 28.8000030518 213.399993896 21 490 20 231 20 hstem
          199.399993896 108.899993896 131.700012207 83 vstem
          hintmask 00000000
          199.400390625 -244.200195312 rmoveto
          76 callsubr
          -143.900390625 213.400390625 rmoveto
          -13 callsubr
          endchar
        </CharString>
        <CharString name="kcommaaccent.smcp">
          -6 -229.199996948 28.8000030518 199.399993896 21 222 74 hstem
          220.399993896 108.899993896 vstem
          hintmask 00000000
          220.400390625 -229.200195312 rmoveto
          76 callsubr
          -145.900390625 199.400390625 rmoveto
          106 callsubr
          endchar
        </CharString>
        <CharString name="kgreenlandic">
          -35 21 -21 226 74 231 -20 hstem
          60 hmoveto
          74 0 37 226 105 0 142 -226 89 0 -160 263 245 268 -97 0 -219 -231 -94 0 36 231 -74 0 rlineto
          endchar
        </CharString>
        <CharString name="l">
          -273 0 56 727 -20 hstem
          89 189 rmoveto
          -12 callsubr
          endchar
        </CharString>
        <CharString name="l.smcp">
          -67 0 74 hstem
          94 86 rmoveto
          107 callsubr
          endchar
        </CharString>
        <CharString name="l.superior">
          -316 378 44 hstem
          147 509 rmoveto
          -15 -94 31 -37 63 0 rrcurveto
          67 0 7 44 rlineto
          -5 -57 14 0 hvcurveto
          -31 8 -6 11 9 57 rrcurveto
          61 388 -62 0 rlineto
          endchar
        </CharString>
        <CharString name="lacute">
          -273 0 56 707 20 60 133 hstem
          168 223 vstem
          168 843 rmoveto
          19 callsubr
          -234 -787 rmoveto
          -12 callsubr
          endchar
        </CharString>
        <CharString name="lacute.smcp">
          -67 0 74 556 133 hstem
          182.167007446 223 vstem
          182.166992188 630 rmoveto
          19 callsubr
          -216.166992188 -677 rmoveto
          107 callsubr
          endchar
        </CharString>
        <CharString name="lcaron">
          -266 0 56 727 -20 hstem
          89 189 rmoveto
          -22 -140 52 -49 83 0 rrcurveto
          68 0 9 56 rlineto
          -1 -74 18 0 hvcurveto
          -39 9 -18 7 16 99 rrcurveto
          94 594 -74 0 rlineto
          129 -203 rmoveto
          64 callsubr
          endchar
        </CharString>
        <CharString name="lcaron.smcp">
          -67 0 74 hstem
          94 86 rmoveto
          107 callsubr
          133 -160 rmoveto
          53 0 31 134 10 67 -74 0 -10 -67 rlineto
          endchar
        </CharString>
</ttFont>
